<svg xmlns="http://www.w3.org/2000/svg" xmlns:xlink="http://www.w3.org/1999/xlink" contentStyleType="text/css" data-diagram-type="EBNF" height="553px" preserveAspectRatio="none" style="width:112px;height:553px;background:#FFFFFF;" version="1.1" viewBox="0 0 112 553" width="112px" zoomAndPan="magnify"><?plantuml 1.2026.3beta5?><defs/><g><g class="title" data-source-line="1"><text fill="#000000" font-family="sans-serif" font-size="14" font-weight="700" lengthAdjust="spacing" textLength="41.5146" x="31.7427" y="22.9951">EBNF</text></g><g class="title" data-source-line="1"><text fill="#000000" font-family="sans-serif" font-size="14" font-weight="700" lengthAdjust="spacing" textLength="41.5146" x="35.124" y="60.292">EBNF</text></g><path d="M10,79.5938 L10,109.7266 L101.7627,109.7266 L101.7627,89.5938 L91.7627,79.5938 L10,79.5938" fill="#FEFFDD" style="stroke:#181818;stroke-width:0.5;"/><path d="M91.7627,79.5938 L91.7627,89.5938 L101.7627,89.5938 L91.7627,79.5938" fill="#FEFFDD" style="stroke:#181818;stroke-width:0.5;"/><text fill="#000000" font-family="sans-serif" font-size="13" lengthAdjust="spacing" textLength="61.7627" x="20" y="98.6607">comment</text><text fill="#000000" font-family="sans-serif" font-size="14" font-weight="700" lengthAdjust="spacing" textLength="44.0781" x="10" y="141.0235">letter</text><rect fill="none" height="26.2969" style="stroke:#181818;stroke-width:0.5;" width="19.5771" x="40" y="140.875"/><text fill="#000000" font-family="sans-serif" font-size="14" lengthAdjust="spacing" textLength="9.5771" x="45" y="158.8701">A</text><line style="stroke:#181818;stroke-width:1.5000;" x1="59.5771" x2="59.7754" y1="154.0235" y2="154.0235"/><rect fill="none" height="26.2969" style="stroke:#181818;stroke-width:0.5;" width="19.6045" x="40" y="177.1719"/><text fill="#000000" font-family="sans-serif" font-size="14" lengthAdjust="spacing" textLength="9.6045" x="45" y="195.167">B</text><line style="stroke:#181818;stroke-width:1.5000;" x1="59.6045" x2="59.7754" y1="190.3204" y2="190.3204"/><path d="M28,154.0234 C28,190.3203 31,190.3203 40,190.3203" fill="none" style="stroke:#181818;stroke-width:1.5000;"/><path d="M59.7754,190.3203 C68.7754,190.3203 71.7754,190.3203 71.7754,154.0234" fill="none" style="stroke:#181818;stroke-width:1.5000;"/><rect fill="none" height="26.2969" style="stroke:#181818;stroke-width:0.5;" width="19.7754" x="40" y="213.4688"/><text fill="#000000" font-family="sans-serif" font-size="14" lengthAdjust="spacing" textLength="9.7754" x="45" y="231.4639">C</text><line style="stroke:#181818;stroke-width:1.5000;" x1="59.7754" x2="59.7754" y1="226.6173" y2="226.6173"/><path d="M28,190.3203 C28,226.6172 31,226.6172 40,226.6172" fill="none" style="stroke:#181818;stroke-width:1.5000;"/><path d="M59.7754,226.6172 C68.7754,226.6172 71.7754,226.6172 71.7754,190.3203" fill="none" style="stroke:#181818;stroke-width:1.5000;"/><line style="stroke:#181818;stroke-width:1.5000;" x1="28" x2="28" y1="190.3204" y2="226.6173"/><line style="stroke:#181818;stroke-width:1.5000;" x1="71.7754" x2="71.7754" y1="190.3204" y2="226.6173"/><ellipse cx="14" cy="154.0235" fill="none" rx="4" ry="4" style="stroke:#181818;stroke-width:2;"/><line style="stroke:#181818;stroke-width:1.5000;" x1="18" x2="40" y1="154.0235" y2="154.0235"/><line style="stroke:#181818;stroke-width:1.5000;" x1="59.7754" x2="77.7754" y1="154.0235" y2="154.0235"/><path d="M70.7754,154.0235 L70.7754,151.0235 L76.7754,154.0235 L70.7754,157.0235" fill="#181818"/><ellipse cx="81.7754" cy="154.0235" fill="#181818" rx="4" ry="4" style="stroke:#181818;stroke-width:1;"/><text fill="#000000" font-family="sans-serif" font-size="14" font-weight="700" lengthAdjust="spacing" textLength="36.3330" x="10" y="299.211">digit</text><rect fill="none" height="26.2969" style="stroke:#181818;stroke-width:0.5;" width="18.9072" x="40" y="299.0626"/><text fill="#000000" font-family="sans-serif" font-size="14" lengthAdjust="spacing" textLength="8.9072" x="45" y="317.0577">0</text><line style="stroke:#181818;stroke-width:1.5000;" x1="58.9072" x2="58.9072" y1="312.211" y2="312.211"/><rect fill="none" height="26.2969" style="stroke:#181818;stroke-width:0.5;" width="18.9072" x="40" y="335.3595"/><text fill="#000000" font-family="sans-serif" font-size="14" lengthAdjust="spacing" textLength="8.9072" x="45" y="353.3546">1</text><line style="stroke:#181818;stroke-width:1.5000;" x1="58.9072" x2="58.9072" y1="348.5079" y2="348.5079"/><path d="M28,312.211 C28,348.5079 31,348.5079 40,348.5079" fill="none" style="stroke:#181818;stroke-width:1.5000;"/><path d="M58.9072,348.5079 C67.9072,348.5079 70.9072,348.5079 70.9072,312.211" fill="none" style="stroke:#181818;stroke-width:1.5000;"/><rect fill="none" height="26.2969" style="stroke:#181818;stroke-width:0.5;" width="18.9072" x="40" y="371.6564"/><text fill="#000000" font-family="sans-serif" font-size="14" lengthAdjust="spacing" textLength="8.9072" x="45" y="389.6515">2</text><line style="stroke:#181818;stroke-width:1.5000;" x1="58.9072" x2="58.9072" y1="384.8048" y2="384.8048"/><path d="M28,348.5079 C28,384.8048 31,384.8048 40,384.8048" fill="none" style="stroke:#181818;stroke-width:1.5000;"/><path d="M58.9072,384.8048 C67.9072,384.8048 70.9072,384.8048 70.9072,348.5079" fill="none" style="stroke:#181818;stroke-width:1.5000;"/><line style="stroke:#181818;stroke-width:1.5000;" x1="28" x2="28" y1="348.5079" y2="384.8048"/><line style="stroke:#181818;stroke-width:1.5000;" x1="70.9072" x2="70.9072" y1="348.5079" y2="384.8048"/><ellipse cx="14" cy="312.211" fill="none" rx="4" ry="4" style="stroke:#181818;stroke-width:2;"/><line style="stroke:#181818;stroke-width:1.5000;" x1="18" x2="40" y1="312.211" y2="312.211"/><line style="stroke:#181818;stroke-width:1.5000;" x1="58.9072" x2="76.9072" y1="312.211" y2="312.211"/><path d="M69.9072,312.211 L69.9072,309.211 L75.9072,312.211 L69.9072,315.211" fill="#181818"/><ellipse cx="80.9072" cy="312.211" fill="#181818" rx="4" ry="4" style="stroke:#181818;stroke-width:1;"/><text fill="#000000" font-family="sans-serif" font-size="14" font-weight="700" lengthAdjust="spacing" textLength="56.4854" x="10" y="457.3986">symbol</text><rect fill="none" height="26.2969" style="stroke:#181818;stroke-width:0.5;" width="15.4619" x="40" y="457.2502"/><text fill="#000000" font-family="sans-serif" font-size="14" lengthAdjust="spacing" textLength="5.4619" x="45" y="475.2453">[</text><line style="stroke:#181818;stroke-width:1.5000;" x1="55.4619" x2="55.4619" y1="470.3986" y2="470.3986"/><rect fill="none" height="26.2969" style="stroke:#181818;stroke-width:0.5;" width="15.4619" x="40" y="493.5471"/><text fill="#000000" font-family="sans-serif" font-size="14" lengthAdjust="spacing" textLength="5.4619" x="45" y="511.5422">]</text><line style="stroke:#181818;stroke-width:1.5000;" x1="55.4619" x2="55.4619" y1="506.6955" y2="506.6955"/><path d="M28,470.3986 C28,506.6955 31,506.6955 40,506.6955" fill="none" style="stroke:#181818;stroke-width:1.5000;"/><path d="M55.4619,506.6955 C64.4619,506.6955 67.4619,506.6955 67.4619,470.3986" fill="none" style="stroke:#181818;stroke-width:1.5000;"/><ellipse cx="14" cy="470.3986" fill="none" rx="4" ry="4" style="stroke:#181818;stroke-width:2;"/><line style="stroke:#181818;stroke-width:1.5000;" x1="18" x2="40" y1="470.3986" y2="470.3986"/><line style="stroke:#181818;stroke-width:1.5000;" x1="55.4619" x2="73.4619" y1="470.3986" y2="470.3986"/><path d="M66.4619,470.3986 L66.4619,467.3986 L72.4619,470.3986 L66.4619,473.3986" fill="#181818"/><ellipse cx="77.4619" cy="470.3986" fill="#181818" rx="4" ry="4" style="stroke:#181818;stroke-width:1;"/><?plantuml-src 7Oqv2e0m403xl699fLPgAu87Mle1iJ1cbK0EIBOHVBnicYbcYXaIdP5G-LkG8OkmJDigYWgku1nwWgeK5eamGWzobF21d39d2PtGvZ74fSwkoMovfDUfO3djMHui1_IQNpy0?></g></svg>