<svg xmlns="http://www.w3.org/2000/svg" xmlns:xlink="http://www.w3.org/1999/xlink" contentStyleType="text/css" data-diagram-type="STATE" height="470px" preserveAspectRatio="none" style="width:140px;height:470px;background:#FFFFFF;" version="1.1" viewBox="0 0 140 470" width="140px" zoomAndPan="magnify"><?plantuml 1.2026.3beta5?><defs/><g><path d="M19.5,86 L113.8115,86 A12.5,12.5 0 0 1 126.3115,98.5 L126.3115,112.2969 L7,112.2969 L7,98.5 A12.5,12.5 0 0 1 19.5,86" fill="#F1F1F1"/><rect fill="none" height="260" rx="12.5" ry="12.5" style="stroke:#181818;stroke-width:0.5;" width="119.3115" x="7" y="86"/><line style="stroke:#181818;stroke-width:0.5;" x1="7" x2="126.3115" y1="112.2969" y2="112.2969"/><text fill="#000000" font-family="sans-serif" font-size="14" lengthAdjust="spacing" textLength="43.5518" x="44.8799" y="103.9951">Active</text><g class="start_entity" data-qualified-name="Active..start.Active" data-source-line="3" id="ent0002"><ellipse cx="30.6558" cy="123" fill="#222222" rx="10" ry="10" style="stroke:#222222;stroke-width:1;"/></g><g class="entity" data-qualified-name="Active.Idle" id="ent0004"><rect fill="#F1F1F1" height="50" rx="12.5" ry="12.5" style="stroke:#181818;stroke-width:0.5;" width="50" x="41.6558" y="184"/><line style="stroke:#181818;stroke-width:0.5;" x1="41.6558" x2="91.6558" y1="210.2969" y2="210.2969"/><text fill="#000000" font-family="sans-serif" font-size="14" lengthAdjust="spacing" textLength="25.5186" x="53.8965" y="201.9951">Idle</text></g><g class="entity" data-qualified-name="Active.Processing" id="ent0005"><rect fill="#F1F1F1" height="50" rx="12.5" ry="12.5" style="stroke:#181818;stroke-width:0.5;" width="95.3115" x="19" y="284"/><line style="stroke:#181818;stroke-width:0.5;" x1="19" x2="114.3115" y1="310.2969" y2="310.2969"/><text fill="#000000" font-family="sans-serif" font-size="14" lengthAdjust="spacing" textLength="75.3115" x="29" y="301.9951">Processing</text></g><circle cx="101.6558" cy="123" fill="none" r="11" style="stroke:#181818;stroke-width:1.5;"/><text fill="#000000" font-family="sans-serif" font-size="13" font-weight="700" lengthAdjust="spacing" text-anchor="middle" textLength="10.8799" x="101.6558" y="127.55">H</text><!--link *start*Active to Idle--><g class="link" data-link-type="dependency" data-source-line="3" id="lnk3"><path d="M54.01,346.12 C54.54,369.01 55.0565,384.4982 57.2265,399.9682" fill="none" id="*start*Active-to-Idle" style="stroke:#181818;stroke-width:1;"/><polygon fill="#181818" points="58.06,405.91,60.771,396.4416,57.3654,400.9585,52.8486,397.5529,58.06,405.91" style="stroke:#181818;stroke-width:1;"/></g><!--link Idle to Processing--><g class="link" data-link-type="dependency" data-source-line="4" id="lnk4"><path d="M75.44,405.91 C77.73,390.44 79.0106,375.0081 79.5806,352.1181" fill="none" id="Idle-to-Processing" style="stroke:#181818;stroke-width:1;"/><polygon fill="#181818" points="79.73,346.12,75.5072,355.0176,79.6055,351.1185,83.5047,355.2168,79.73,346.12" style="stroke:#181818;stroke-width:1;"/></g><!--link Processing to Idle--><g class="link" data-link-type="dependency" data-source-line="5" id="lnk5"><path d="M66.6558,284 L66.6558,234 " fill="none" id="Processing-to-Idle" style="stroke:#181818;stroke-width:1;"/><polygon fill="#181818" points="66.6558,234,62.6558,243,66.6558,239,70.6558,243,66.6558,234" style="stroke:#181818;stroke-width:1;"/></g><g class="entity" data-qualified-name="Paused" id="ent0003"><rect fill="#F1F1F1" height="50" rx="12.5" ry="12.5" style="stroke:#181818;stroke-width:0.5;" width="70.6885" x="31" y="406"/><line style="stroke:#181818;stroke-width:0.5;" x1="31" x2="101.6885" y1="432.2969" y2="432.2969"/><text fill="#000000" font-family="sans-serif" font-size="14" lengthAdjust="spacing" textLength="50.6885" x="41" y="423.9951">Paused</text></g><g class="start_entity" data-qualified-name=".start." data-source-line="1" id="ent0002"><ellipse cx="66.5" cy="16" fill="#222222" rx="10" ry="10" style="stroke:#222222;stroke-width:1;"/></g><!--link *start* to Active--><g class="link" data-entity-1="ent0002" data-entity-2="ent0002" data-link-type="dependency" data-source-line="1" id="lnk6"><path d="M64.5,24.02 C64.5,35.9 64.5,52.26 64.5,77.56" fill="none" id="*start*-to-Active" style="stroke:#181818;stroke-width:1;"/><polygon fill="#181818" points="66.5,85.56,70.5,76.56,66.5,80.56,62.5,76.56,66.5,85.56" style="stroke:#181818;stroke-width:1;"/></g><!--link Active to Paused--><g class="link" data-entity-1="ent0002" data-entity-2="ent0003" data-link-type="dependency" data-source-line="7" id="lnk7"><path d="M66.6558,346 L66.3442,406 " fill="none" id="Active-to-Paused" style="stroke:#181818;stroke-width:1;"/><polygon fill="#181818" points="66.3442,406,70.3909,397.0209,66.3702,401.0001,62.391,396.9794,66.3442,406" style="stroke:#181818;stroke-width:1;"/></g><!--link Paused to Active[H]--><g class="link" data-entity-1="ent0003" data-link-type="dependency" data-source-line="8" id="lnk8"><path d="M66.3442,406 L101.6558,134 " fill="none" id="Paused-to-Active[H]" style="stroke:#181818;stroke-width:1;"/><polygon fill="#181818" points="101.6558,134,96.5304,142.4101,101.0121,138.9584,104.4638,143.4401,101.6558,134" style="stroke:#181818;stroke-width:1;"/></g><?plantuml-src JOsn2e0m34JtV4LceRyWkEdcNZgKDaX154nq4V_TMWFjTBoxuyvs3etfSGYIBW8MBwI0Do1QpQUuKiPF2i_77eWvRKjsAzJk0xfIslvaYl1BysT7zm80?></g></svg>