<svg xmlns="http://www.w3.org/2000/svg" xmlns:xlink="http://www.w3.org/1999/xlink" contentStyleType="text/css" data-diagram-type="CLASS" height="246px" preserveAspectRatio="none" style="width:181px;height:246px;background:#FFFFFF;" version="1.1" viewBox="0 0 181 246" width="181px" zoomAndPan="magnify"><?plantuml 1.2026.3beta5?><defs/><g><!--class ArrayList--><g class="entity" data-qualified-name="ArrayList" data-source-line="1" id="ent0002"><rect fill="#F1F1F1" height="80.5938" rx="2.5" ry="2.5" style="stroke:#181818;stroke-width:0.5;" width="155.042" x="7" y="7"/><ellipse cx="44.0654" cy="23" fill="#ADD1B2" rx="11" ry="11" style="stroke:#181818;stroke-width:1;"/><path d="M47.0341,28.6406 Q46.456,28.9375 45.8154,29.0781 Q45.1748,29.2344 44.4716,29.2344 Q41.9716,29.2344 40.6435,27.5938 Q39.331,25.9375 39.331,22.8125 Q39.331,19.6875 40.6435,18.0313 Q41.9716,16.375 44.4716,16.375 Q45.1748,16.375 45.8154,16.5313 Q46.4716,16.6875 47.0341,16.9844 L47.0341,19.7031 Q46.4091,19.125 45.8154,18.8594 Q45.2216,18.5781 44.5966,18.5781 Q43.2529,18.5781 42.5654,19.6563 Q41.8779,20.7188 41.8779,22.8125 Q41.8779,24.9063 42.5654,25.9844 Q43.2529,27.0469 44.5966,27.0469 Q45.2216,27.0469 45.8154,26.7813 Q46.4091,26.5 47.0341,25.9219 L47.0341,28.6406 Z " fill="#000000"/><text fill="#000000" font-family="sans-serif" font-size="14" lengthAdjust="spacing" textLength="62.4258" x="62.9688" y="27.8467">ArrayList</text><rect fill="#FFFFFF" height="15.9688" style="stroke:#181818;stroke-width:1;stroke-dasharray:2,2;" width="9.582" x="155.46" y="4"/><text fill="#000000" font-family="sans-serif" font-size="12" font-style="italic" lengthAdjust="spacing" textLength="7.582" x="156.46" y="16.1387">E</text><line style="stroke:#181818;stroke-width:0.5;" x1="8" x2="161.042" y1="39" y2="39"/><line style="stroke:#181818;stroke-width:0.5;" x1="8" x2="161.042" y1="47" y2="47"/><g data-visibility-modifier="PUBLIC_METHOD"><ellipse cx="18" cy="60.6484" fill="#84BE84" rx="3" ry="3" style="stroke:#038048;stroke-width:1;"/></g><text fill="#000000" font-family="sans-serif" font-size="14" lengthAdjust="spacing" textLength="129.042" x="27" y="63.9951">add(e: E): boolean</text><g data-visibility-modifier="PUBLIC_METHOD"><ellipse cx="18" cy="76.9453" fill="#84BE84" rx="3" ry="3" style="stroke:#038048;stroke-width:1;"/></g><text fill="#000000" font-family="sans-serif" font-size="14" lengthAdjust="spacing" textLength="83.2344" x="27" y="80.292">get(i: int): E</text></g><!--class HashMap--><g class="entity" data-qualified-name="HashMap" data-source-line="5" id="ent0003"><rect fill="#F1F1F1" height="80.5938" rx="2.5" ry="2.5" style="stroke:#181818;stroke-width:0.5;" width="141.3018" x="14" y="148"/><ellipse cx="38.2659" cy="164" fill="#ADD1B2" rx="11" ry="11" style="stroke:#181818;stroke-width:1;"/><path d="M41.2346,169.6406 Q40.6565,169.9375 40.0159,170.0781 Q39.3752,170.2344 38.6721,170.2344 Q36.1721,170.2344 34.844,168.5938 Q33.5315,166.9375 33.5315,163.8125 Q33.5315,160.6875 34.844,159.0313 Q36.1721,157.375 38.6721,157.375 Q39.3752,157.375 40.0159,157.5313 Q40.6721,157.6875 41.2346,157.9844 L41.2346,160.7031 Q40.6096,160.125 40.0159,159.8594 Q39.4221,159.5781 38.7971,159.5781 Q37.4534,159.5781 36.7659,160.6563 Q36.0784,161.7188 36.0784,163.8125 Q36.0784,165.9063 36.7659,166.9844 Q37.4534,168.0469 38.7971,168.0469 Q39.4221,168.0469 40.0159,167.7813 Q40.6096,167.5 41.2346,166.9219 L41.2346,169.6406 Z " fill="#000000"/><text fill="#000000" font-family="sans-serif" font-size="14" lengthAdjust="spacing" textLength="64.8184" x="54.325" y="168.8467">HashMap</text><rect fill="#FFFFFF" height="15.9688" style="stroke:#181818;stroke-width:1;stroke-dasharray:2,2;" width="21.8926" x="136.4092" y="145"/><text fill="#000000" font-family="sans-serif" font-size="12" font-style="italic" lengthAdjust="spacing" textLength="19.8926" x="137.4092" y="157.1387">K,V</text><line style="stroke:#181818;stroke-width:0.5;" x1="15" x2="154.3018" y1="180" y2="180"/><line style="stroke:#181818;stroke-width:0.5;" x1="15" x2="154.3018" y1="188" y2="188"/><g data-visibility-modifier="PUBLIC_METHOD"><ellipse cx="25" cy="201.6484" fill="#84BE84" rx="3" ry="3" style="stroke:#038048;stroke-width:1;"/></g><text fill="#000000" font-family="sans-serif" font-size="14" lengthAdjust="spacing" textLength="115.3018" x="34" y="204.9951">put(k: K, v: V): V</text><g data-visibility-modifier="PUBLIC_METHOD"><ellipse cx="25" cy="217.9453" fill="#84BE84" rx="3" ry="3" style="stroke:#038048;stroke-width:1;"/></g><text fill="#000000" font-family="sans-serif" font-size="14" lengthAdjust="spacing" textLength="79.1123" x="34" y="221.292">get(k: K): V</text></g><!--link ArrayList to HashMap--><g class="link" data-entity-1="ent0002" data-entity-2="ent0003" data-link-type="dependency" data-source-line="9" id="lnk4"><path codeLine="9" d="M84.5,88.33 C84.5,106.94 84.5,123.05 84.5,141.66" fill="none" id="ArrayList-to-HashMap" style="stroke:#181818;stroke-width:1;"/><polygon fill="#181818" points="84.5,147.66,88.5,138.66,84.5,142.66,80.5,138.66,84.5,147.66" style="stroke:#181818;stroke-width:1;"/></g><?plantuml-src FOsx2eGm54JxVCMKMLP_u2B25e45jKr_rQ11KJ5H4F7VVQ2MSvWpKxJi77xZo4jgdOzKZ5K0NovBQGZgGyZxlZNSdRGoNbg2xVp1bTX4SUb_TdN6GvG4-jQ7oSk6a0IO2VeewqS_wPKtyRuY3EDdP0S0?></g></svg>