<svg xmlns="http://www.w3.org/2000/svg" xmlns:xlink="http://www.w3.org/1999/xlink" contentStyleType="text/css" data-diagram-type="SEQUENCE" height="399px" preserveAspectRatio="none" style="width:220px;height:399px;background:#FFFFFF;" version="1.1" viewBox="0 0 220 399" width="220px" zoomAndPan="magnify"><?plantuml 1.2026.3beta5?><defs/><g><g><title>A</title><rect fill="#000000" fill-opacity="0.00000" height="316.1953" width="8" x="18.2886" y="41.2969"/><line style="stroke:#181818;stroke-width:0.5;stroke-dasharray:5,5;" x1="21.7886" x2="21.7886" y1="41.2969" y2="357.4922"/></g><g><title>B</title><rect fill="#000000" fill-opacity="0.00000" height="316.1953" width="8" x="103.6641" y="41.2969"/><line style="stroke:#181818;stroke-width:0.5;stroke-dasharray:5,5;" x1="107.1641" x2="107.1641" y1="41.2969" y2="357.4922"/></g><g><title>C</title><rect fill="#000000" fill-opacity="0.00000" height="316.1953" width="8" x="194.0396" y="41.2969"/><line style="stroke:#181818;stroke-width:0.5;stroke-dasharray:5,5;" x1="197.5396" x2="197.5396" y1="41.2969" y2="357.4922"/></g><g><title/><rect fill="#FF0000" height="13" style="stroke:#181818;stroke-width:1;" width="10" x="192.5396" y="85.5625"/></g><g><title/><rect fill="#008000" height="13" style="stroke:#181818;stroke-width:1;" width="10" x="192.5396" y="194.9609"/></g><g><title/><rect fill="#FFFFFF" height="13" style="stroke:#181818;stroke-width:1;" width="10" x="192.5396" y="304.3594"/></g><rect fill="#E2E2F0" height="30.2969" rx="2.5" ry="2.5" style="stroke:#181818;stroke-width:0.5;" width="23.5771" x="10" y="10"/><text fill="#000000" font-family="sans-serif" font-size="14" lengthAdjust="spacing" textLength="9.5771" x="17" y="29.9951">A</text><rect fill="#E2E2F0" height="30.2969" rx="2.5" ry="2.5" style="stroke:#181818;stroke-width:0.5;" width="23.6045" x="95.3618" y="10"/><text fill="#000000" font-family="sans-serif" font-size="14" lengthAdjust="spacing" textLength="9.6045" x="102.3618" y="29.9951">B</text><rect fill="#E2E2F0" height="30.2969" rx="2.5" ry="2.5" style="stroke:#181818;stroke-width:0.5;" width="23.7754" x="185.6519" y="10"/><text fill="#000000" font-family="sans-serif" font-size="14" lengthAdjust="spacing" textLength="9.7754" x="192.6519" y="29.9951">C</text><rect fill="#E2E2F0" height="30.2969" rx="2.5" ry="2.5" style="stroke:#181818;stroke-width:0.5;" width="23.5771" x="10" y="357.4922"/><text fill="#000000" font-family="sans-serif" font-size="14" lengthAdjust="spacing" textLength="9.5771" x="17" y="377.4873">A</text><rect fill="#E2E2F0" height="30.2969" rx="2.5" ry="2.5" style="stroke:#181818;stroke-width:0.5;" width="23.6045" x="95.3618" y="357.4922"/><text fill="#000000" font-family="sans-serif" font-size="14" lengthAdjust="spacing" textLength="9.6045" x="102.3618" y="377.4873">B</text><rect fill="#E2E2F0" height="30.2969" rx="2.5" ry="2.5" style="stroke:#181818;stroke-width:0.5;" width="23.7754" x="185.6519" y="357.4922"/><text fill="#000000" font-family="sans-serif" font-size="14" lengthAdjust="spacing" textLength="9.7754" x="192.6519" y="377.4873">C</text><polygon fill="#181818" points="95.1641,81.5625,105.1641,85.5625,95.1641,89.5625,99.1641,85.5625" style="stroke:#181818;stroke-width:1;"/><line style="stroke:#181818;stroke-width:1;" x1="21.7886" x2="101.1641" y1="85.5625" y2="85.5625"/><text fill="#000000" font-family="sans-serif" font-size="13" lengthAdjust="spacing" textLength="60.9185" x="28.7886" y="65.3638">very long</text><text fill="#000000" font-family="sans-serif" font-size="13" lengthAdjust="spacing" textLength="61.3755" x="28.7886" y="80.4966">multi-line</text><polygon fill="#181818" points="180.5396,81.5625,190.5396,85.5625,180.5396,89.5625,184.5396,85.5625" style="stroke:#181818;stroke-width:1;"/><line style="stroke:#181818;stroke-width:1;" x1="107.1641" x2="186.5396" y1="85.5625" y2="85.5625"/><text fill="#000000" font-family="sans-serif" font-size="13" lengthAdjust="spacing" textLength="38.4858" x="114.1641" y="80.4966">single</text><path d="M169.9675,98.5625 L169.9675,123.5625 L224.9675,123.5625 L224.9675,108.5625 L214.9675,98.5625 L169.9675,98.5625" fill="#FEFFDD" style="stroke:#181818;stroke-width:0.5;"/><path d="M214.9675,98.5625 L214.9675,108.5625 L224.9675,108.5625 L214.9675,98.5625" fill="#FEFFDD" style="stroke:#181818;stroke-width:0.5;"/><text fill="#000000" font-family="sans-serif" font-size="13" lengthAdjust="spacing" textLength="34.144" x="175.9675" y="115.6294">got it</text><rect fill="#EEEEEE" height="3" style="stroke:#EEEEEE;stroke-width:1;" width="199.4272" x="10" y="127.6953"/><line style="stroke:#000000;stroke-width:1;" x1="10" x2="209.4272" y1="127.6953" y2="127.6953"/><line style="stroke:#000000;stroke-width:1;" x1="10" x2="209.4272" y1="130.6953" y2="130.6953"/><polygon fill="#181818" points="95.1641,190.9609,105.1641,194.9609,95.1641,198.9609,99.1641,194.9609" style="stroke:#181818;stroke-width:1;"/><line style="stroke:#181818;stroke-width:1;" x1="21.7886" x2="101.1641" y1="194.9609" y2="194.9609"/><text fill="#000000" font-family="sans-serif" font-size="13" lengthAdjust="spacing" textLength="60.9185" x="28.7886" y="174.7622">very long</text><text fill="#000000" font-family="sans-serif" font-size="13" lengthAdjust="spacing" textLength="61.3755" x="28.7886" y="189.895">multi-line</text><path d="M169.9675,207.9609 L169.9675,232.9609 L224.9675,232.9609 L224.9675,217.9609 L214.9675,207.9609 L169.9675,207.9609" fill="#FEFFDD" style="stroke:#181818;stroke-width:0.5;"/><path d="M214.9675,207.9609 L214.9675,217.9609 L224.9675,217.9609 L214.9675,207.9609" fill="#FEFFDD" style="stroke:#181818;stroke-width:0.5;"/><text fill="#000000" font-family="sans-serif" font-size="13" lengthAdjust="spacing" textLength="34.144" x="175.9675" y="225.0278">got it</text><polygon fill="#181818" points="180.5396,190.9609,190.5396,194.9609,180.5396,198.9609,184.5396,194.9609" style="stroke:#181818;stroke-width:1;"/><line style="stroke:#181818;stroke-width:1;" x1="107.1641" x2="186.5396" y1="194.9609" y2="194.9609"/><text fill="#000000" font-family="sans-serif" font-size="13" lengthAdjust="spacing" textLength="35.4009" x="114.1641" y="174.7622">same</text><text fill="#000000" font-family="sans-serif" font-size="13" lengthAdjust="spacing" textLength="41.4375" x="114.1641" y="189.895">height</text><path d="M169.9675,317.3594 L169.9675,342.3594 L224.9675,342.3594 L224.9675,327.3594 L214.9675,317.3594 L169.9675,317.3594" fill="#FEFFDD" style="stroke:#181818;stroke-width:0.5;"/><path d="M214.9675,317.3594 L214.9675,327.3594 L224.9675,327.3594 L214.9675,317.3594" fill="#FEFFDD" style="stroke:#181818;stroke-width:0.5;"/><text fill="#000000" font-family="sans-serif" font-size="13" lengthAdjust="spacing" textLength="34.144" x="175.9675" y="334.4263">got it</text><rect fill="#EEEEEE" height="3" style="stroke:#EEEEEE;stroke-width:1;" width="199.4272" x="10" y="237.0938"/><line style="stroke:#000000;stroke-width:1;" x1="10" x2="209.4272" y1="237.0938" y2="237.0938"/><line style="stroke:#000000;stroke-width:1;" x1="10" x2="209.4272" y1="240.0938" y2="240.0938"/><polygon fill="#181818" points="95.1641,300.3594,105.1641,304.3594,95.1641,308.3594,99.1641,304.3594" style="stroke:#181818;stroke-width:1;"/><line style="stroke:#181818;stroke-width:1;" x1="21.7886" x2="101.1641" y1="304.3594" y2="304.3594"/><text fill="#000000" font-family="sans-serif" font-size="13" lengthAdjust="spacing" textLength="38.4858" x="28.7886" y="299.2935">single</text><polygon fill="#181818" points="180.5396,300.3594,190.5396,304.3594,180.5396,308.3594,184.5396,304.3594" style="stroke:#181818;stroke-width:1;"/><line style="stroke:#181818;stroke-width:1;" x1="107.1641" x2="186.5396" y1="304.3594" y2="304.3594"/><text fill="#000000" font-family="sans-serif" font-size="13" lengthAdjust="spacing" textLength="60.9185" x="114.1641" y="284.1606">very long</text><text fill="#000000" font-family="sans-serif" font-size="13" lengthAdjust="spacing" textLength="61.3755" x="114.1641" y="299.2935">multi-line</text></g></svg>