<svg xmlns="http://www.w3.org/2000/svg" xmlns:xlink="http://www.w3.org/1999/xlink" contentStyleType="text/css" data-diagram-type="STATE" height="368px" preserveAspectRatio="none" style="width:385px;height:368px;background:#FFFFFF;" version="1.1" viewBox="0 0 385 368" width="385px" zoomAndPan="magnify"><?plantuml 1.2026.3beta5?><defs/><g><path d="M121.5,86 L198.4961,86 A12.5,12.5 0 0 1 210.9961,98.5 L210.9961,112.2969 L109,112.2969 L109,98.5 A12.5,12.5 0 0 1 121.5,86" fill="#F1F1F1"/><rect fill="none" height="158" rx="12.5" ry="12.5" style="stroke:#181818;stroke-width:0.5;" width="101.9961" x="109" y="86"/><line style="stroke:#181818;stroke-width:0.5;" x1="109" x2="210.9961" y1="112.2969" y2="112.2969"/><text fill="#000000" font-family="sans-serif" font-size="14" lengthAdjust="spacing" textLength="43.5518" x="159.998" y="103.9951">Active</text><g class="start_entity" data-qualified-name="Active..start.Active" data-source-line="4" id="ent0002"><ellipse cx="159.998" cy="122" fill="#222222" rx="10" ry="10" style="stroke:#222222;stroke-width:1;"/></g><g class="entity" data-qualified-name="Active.Running" id="ent0004"><rect fill="#F1F1F1" height="50" rx="12.5" ry="12.5" style="stroke:#181818;stroke-width:0.5;" width="77.9961" x="121" y="182"/><line style="stroke:#181818;stroke-width:0.5;" x1="121" x2="198.9961" y1="208.2969" y2="208.2969"/><text fill="#000000" font-family="sans-serif" font-size="14" lengthAdjust="spacing" textLength="57.9961" x="131" y="199.9951">Running</text></g><g class="entity" data-qualified-name="Inactive" id="ent0002"><rect fill="#F1F1F1" height="50" rx="12.5" ry="12.5" style="stroke:#181818;stroke-width:0.5;" width="75.5557" x="122" y="304"/><line style="stroke:#181818;stroke-width:0.5;" x1="122" x2="197.5557" y1="330.2969" y2="330.2969"/><text fill="#000000" font-family="sans-serif" font-size="14" lengthAdjust="spacing" textLength="55.5557" x="132" y="321.9951">Inactive</text></g><g class="start_entity" data-qualified-name=".start." data-source-line="1" id="ent0003"><ellipse cx="160" cy="16" fill="#222222" rx="10" ry="10" style="stroke:#222222;stroke-width:1;"/></g><g class="entity" data-qualified-name="GMN2" data-source-line="6" id="ent0005"><path d="M246,152.4336 L246,161 L210.9961,165 L246,169 L246,177.5664 L351.7285,177.5664 L351.7285,162.4336 L341.7285,152.4336 L246,152.4336" fill="#FEFFDD" style="stroke:#181818;stroke-width:0.5;"/>
<path d="M341.7285,152.4336 L341.7285,162.4336 L351.7285,162.4336 L341.7285,152.4336" fill="#FEFFDD" style="stroke:#181818;stroke-width:1;"/>
<text fill="#000000" font-family="sans-serif" font-size="13" lengthAdjust="spacing" textLength="84.7285" x="252" y="169.5005">This is active</text></g><g class="entity" data-qualified-name="GMN3" data-source-line="7" id="ent0006"><path d="M7,308.8672 L7,349.1328 L87.3696,349.1328 L87.3696,333 L122,329 L87.3696,325 L87.3696,318.8672 L77.3696,308.8672 L7,308.8672" fill="#FEFFDD" style="stroke:#181818;stroke-width:0.5;"/>
<path d="M77.3696,308.8672 L77.3696,318.8672 L87.3696,318.8672 L77.3696,308.8672" fill="#FEFFDD" style="stroke:#181818;stroke-width:1;"/>
<text fill="#000000" font-family="sans-serif" font-size="13" lengthAdjust="spacing" textLength="59.3696" x="13" y="325.9341">Multi line</text><text fill="#000000" font-family="sans-serif" font-size="13" lengthAdjust="spacing" textLength="59.3062" x="13" y="341.0669">note text</text></g><!--link *start* to Active--><g class="link" data-entity-1="ent0003" data-entity-2="ent0003" data-link-type="dependency" data-source-line="1" id="lnk3"><path d="M158,24.2 C158,36.58 158,53.83 158,77.76" fill="none" id="*start*-to-Active" style="stroke:#181818;stroke-width:1;"/><polygon fill="#181818" points="160,85.76,164,76.76,160,80.76,156,76.76,160,85.76" style="stroke:#181818;stroke-width:1;"/></g><!--link Active to Inactive--><g class="link" data-entity-1="ent0003" data-entity-2="ent0002" data-link-type="dependency" data-source-line="2" id="lnk4"><path d="M158,242.15 C158,263.84 158,279.79 158,295.8" fill="none" id="Active-to-Inactive" style="stroke:#181818;stroke-width:1;"/><polygon fill="#181818" points="160,303.8,164,294.8,160,298.8,156,294.8,160,303.8" style="stroke:#181818;stroke-width:1;"/></g><?plantuml-src FSmn2eHG30JGFgUOUi4BRB6mvHRRY9rOY4ODV29e546ykng_GY1aU9dyLI19FlXM9ZFJjJpvQNbbevN64M0b88y_wQGgsj96sXzYaBOpzCrDtyWw6N5CB78Lk77qr0F_APWWY9w78-F5YBNsQmS0?></g></svg>