<svg xmlns="http://www.w3.org/2000/svg" xmlns:xlink="http://www.w3.org/1999/xlink" contentStyleType="text/css" data-diagram-type="ACTIVITY" height="150px" preserveAspectRatio="none" style="width:209px;height:150px;background:#FFFFFF;" version="1.1" viewBox="0 0 209 150" width="209px" zoomAndPan="magnify"><?plantuml 1.2026.3beta5?><defs/><g><ellipse cx="161.0698" cy="25" fill="#222222" rx="10" ry="10" style="stroke:#222222;stroke-width:1;"/><path d="M15,59.418 L15,84.5508 L122.6011,84.5508 L122.6011,69.418 L112.6011,59.418 L15,59.418" fill="#FEFFDD" style="stroke:#181818;stroke-width:0.5;"/><path d="M112.6011,59.418 L112.6011,69.418 L122.6011,69.418 L112.6011,59.418" fill="#FEFFDD" style="stroke:#181818;stroke-width:0.5;"/><text fill="#000000" font-family="sans-serif" font-size="13" lengthAdjust="spacing" textLength="26.5649" x="21" y="76.4849">This</text><text fill="#000000" font-family="sans-serif" font-size="13" lengthAdjust="spacing" textLength="4.1323" x="47.5649" y="76.4849">&#160;</text><text fill="#000000" font-family="sans-serif" font-size="13" lengthAdjust="spacing" textLength="10.3848" x="51.6973" y="76.4849">is</text><text fill="#000000" font-family="sans-serif" font-size="13" lengthAdjust="spacing" textLength="4.1323" x="62.082" y="76.4849">&#160;</text><text fill="#000000" font-family="sans-serif" font-size="13" lengthAdjust="spacing" textLength="7.9663" x="66.2144" y="76.4849">a</text><text fill="#000000" font-family="sans-serif" font-size="13" lengthAdjust="spacing" textLength="4.1323" x="74.1807" y="76.4849">&#160;</text><text fill="#000000" font-family="sans-serif" font-size="13" lengthAdjust="spacing" textLength="29.2881" x="78.313" y="76.4849">note</text><rect fill="#F1F1F1" height="33.9688" rx="12.5" ry="12.5" style="stroke:#181818;stroke-width:0.5;" width="56.9375" x="132.6011" y="55"/><text fill="#000000" font-family="sans-serif" font-size="12" lengthAdjust="spacing" textLength="36.9375" x="142.6011" y="76.1387">action</text><ellipse cx="161.0698" cy="119.9688" fill="none" rx="11" ry="11" style="stroke:#222222;stroke-width:1;"/><ellipse cx="161.0698" cy="119.9688" fill="#222222" rx="6" ry="6" style="stroke:#222222;stroke-width:1;"/><line style="stroke:#181818;stroke-width:1;" x1="161.0698" x2="161.0698" y1="35" y2="55"/><polygon fill="#181818" points="157.0698,45,161.0698,55,165.0698,45,161.0698,49" style="stroke:#181818;stroke-width:1;"/><line style="stroke:#181818;stroke-width:1;" x1="161.0698" x2="161.0698" y1="88.9688" y2="108.9688"/><polygon fill="#181818" points="157.0698,98.9688,161.0698,108.9688,165.0698,98.9688,161.0698,102.9688" style="stroke:#181818;stroke-width:1;"/><?plantuml-src BOox2eD044Nx-OhvWsXh99MbTeBrO5OTs8UuDo6Y_disHhZ5vS0vPSHgpOEaXxuLQwKoBk9u8sOVOCx3tCX7tSjr-iJ4UPObUD11vUtIzrgysIb25b3nYmL_fy46WVhnNx9cGC7jf97Jv8J92FCN?></g></svg>