<svg xmlns="http://www.w3.org/2000/svg" xmlns:xlink="http://www.w3.org/1999/xlink" contentStyleType="text/css" data-diagram-type="ACTIVITY" height="180px" preserveAspectRatio="none" style="width:244px;height:180px;background:#FFFFFF;" version="1.1" viewBox="0 0 244 180" width="244px" zoomAndPan="magnify"><?plantuml 1.2026.3beta5?><defs/><g><rect fill="none" height="20.9531" style="stroke:none;stroke-width:1;" width="197.3994" x="20" y="17.7451"/><ellipse cx="177.5698" cy="53.6982" fill="#222222" rx="10" ry="10" style="stroke:#222222;stroke-width:1;"/><path d="M22.5,88.1162 L22.5,113.249 L130.1011,113.249 L130.1011,98.1162 L120.1011,88.1162 L22.5,88.1162" fill="#FEFFDD" style="stroke:#181818;stroke-width:0.5;"/><path d="M120.1011,88.1162 L120.1011,98.1162 L130.1011,98.1162 L120.1011,88.1162" fill="#FEFFDD" style="stroke:#181818;stroke-width:0.5;"/><text fill="#000000" font-family="sans-serif" font-size="13" lengthAdjust="spacing" textLength="26.5649" x="28.5" y="105.1831">This</text><text fill="#000000" font-family="sans-serif" font-size="13" lengthAdjust="spacing" textLength="4.1323" x="55.0649" y="105.1831">&#160;</text><text fill="#000000" font-family="sans-serif" font-size="13" lengthAdjust="spacing" textLength="10.3848" x="59.1973" y="105.1831">is</text><text fill="#000000" font-family="sans-serif" font-size="13" lengthAdjust="spacing" textLength="4.1323" x="69.582" y="105.1831">&#160;</text><text fill="#000000" font-family="sans-serif" font-size="13" lengthAdjust="spacing" textLength="7.9663" x="73.7144" y="105.1831">a</text><text fill="#000000" font-family="sans-serif" font-size="13" lengthAdjust="spacing" textLength="4.1323" x="81.6807" y="105.1831">&#160;</text><text fill="#000000" font-family="sans-serif" font-size="13" lengthAdjust="spacing" textLength="29.2881" x="85.813" y="105.1831">note</text><rect fill="#F1F1F1" height="33.9688" rx="12.5" ry="12.5" style="stroke:#181818;stroke-width:0.5;" width="56.9375" x="149.1011" y="83.6982"/><text fill="#000000" font-family="sans-serif" font-size="12" lengthAdjust="spacing" textLength="36.9375" x="159.1011" y="104.8369">action</text><ellipse cx="177.5698" cy="148.667" fill="none" rx="11" ry="11" style="stroke:#222222;stroke-width:1;"/><ellipse cx="177.5698" cy="148.667" fill="#222222" rx="6" ry="6" style="stroke:#222222;stroke-width:1;"/><line style="stroke:#000000;stroke-width:1.5;" x1="20" x2="20" y1="17.7451" y2="159.667"/><line style="stroke:#000000;stroke-width:1.5;" x1="215.5386" x2="215.5386" y1="17.7451" y2="159.667"/><line style="stroke:#181818;stroke-width:1;" x1="177.5698" x2="177.5698" y1="63.6982" y2="83.6982"/><polygon fill="#181818" points="173.5698,73.6982,177.5698,83.6982,181.5698,73.6982,177.5698,77.6982" style="stroke:#181818;stroke-width:1;"/><line style="stroke:#181818;stroke-width:1;" x1="177.5698" x2="177.5698" y1="117.667" y2="137.667"/><polygon fill="#181818" points="173.5698,127.667,177.5698,137.667,181.5698,127.667,177.5698,131.667" style="stroke:#181818;stroke-width:1;"/><text fill="#000000" font-family="sans-serif" font-size="18" lengthAdjust="spacing" textLength="43.541" x="95.9988" y="34.4531">Lane</text></g></svg>