<svg xmlns="http://www.w3.org/2000/svg" xmlns:xlink="http://www.w3.org/1999/xlink" contentStyleType="text/css" data-diagram-type="SEQUENCE" height="1307px" preserveAspectRatio="none" style="width:363px;height:1307px;background:#FFFFFF;" version="1.1" viewBox="0 0 363 1307" width="363px" zoomAndPan="magnify"><?plantuml 1.2026.3beta5?><defs/><g><g><title>Particpant_A</title><rect fill="#000000" fill-opacity="0.00000" height="1223.9141" width="8" x="57.6294" y="41.2969"/><line style="stroke:#181818;stroke-width:0.5;stroke-dasharray:5,5;" x1="61.1294" x2="61.1294" y1="41.2969" y2="1265.2109"/></g><g><title/><rect fill="#FFFFFF" height="29.1328" style="stroke:#181818;stroke-width:1;" width="10" x="56.1294" y="101.5625"/></g><g><title/><rect fill="#FFFFFF" height="29.1328" style="stroke:#181818;stroke-width:1;" width="10" x="56.1294" y="308.3594"/></g><g><title/><rect fill="#FFFFFF" height="203.9297" style="stroke:#181818;stroke-width:1;" width="10" x="56.1294" y="411.7578"/></g><g><title/><rect fill="#FFFFFF" height="58.2656" style="stroke:#181818;stroke-width:1;" width="10" x="56.1294" y="689.9531"/></g><g><title/><rect fill="#FFFFFF" height="29.1328" style="stroke:#181818;stroke-width:1;" width="10" x="76.1294" y="1013.2813"/></g><g><title/><rect fill="#FFFFFF" height="87.3984" style="stroke:#181818;stroke-width:1;" width="10" x="71.1294" y="984.1484"/></g><g><title/><rect fill="#FFFFFF" height="145.6641" style="stroke:#181818;stroke-width:1;" width="10" x="66.1294" y="955.0156"/></g><g><title/><rect fill="#FFFFFF" height="203.9297" style="stroke:#181818;stroke-width:1;" width="10" x="61.1294" y="925.8828"/></g><g><title/><rect fill="#FFFFFF" height="442.7266" style="stroke:#181818;stroke-width:1;" width="10" x="56.1294" y="822.4844"/></g><g><title>Particpant_B</title><rect fill="#000000" fill-opacity="0.00000" height="1223.9141" width="8" x="169.9019" y="41.2969"/><line style="stroke:#181818;stroke-width:0.5;stroke-dasharray:5,5;" x1="173.4019" x2="173.4019" y1="41.2969" y2="1265.2109"/></g><g><title/><rect fill="#FFFFFF" height="29.1328" style="stroke:#181818;stroke-width:1;" width="10" x="168.4019" y="204.9609"/></g><g><title/><rect fill="#FFFFFF" height="29.1328" style="stroke:#181818;stroke-width:1;" width="10" x="168.4019" y="308.3594"/></g><g><title/><rect fill="#FFFFFF" height="29.1328" style="stroke:#181818;stroke-width:1;" width="10" x="183.4019" y="499.1563"/></g><g><title/><rect fill="#FFFFFF" height="87.3984" style="stroke:#181818;stroke-width:1;" width="10" x="178.4019" y="470.0234"/></g><g><title/><rect fill="#FFFFFF" height="145.6641" style="stroke:#181818;stroke-width:1;" width="10" x="173.4019" y="440.8906"/></g><g><title/><rect fill="#FFFFFF" height="203.9297" style="stroke:#181818;stroke-width:1;" width="10" x="168.4019" y="411.7578"/></g><g><title/><rect fill="#FFFFFF" height="29.1328" style="stroke:#181818;stroke-width:1;" width="10" x="173.4019" y="822.4844"/></g><g><title/><rect fill="#FFFFFF" height="203.9297" style="stroke:#181818;stroke-width:1;" width="10" x="173.4019" y="925.8828"/></g><g><title/><rect fill="#FFFFFF" height="575.2578" style="stroke:#181818;stroke-width:1;" width="10" x="168.4019" y="689.9531"/></g><g><title>Particpant_B ..</title><rect fill="#000000" fill-opacity="0.00000" height="1223.9141" width="8" x="290.0254" y="41.2969"/><line style="stroke:#181818;stroke-width:0.5;stroke-dasharray:5,5;" x1="293.5254" x2="293.5254" y1="41.2969" y2="1265.2109"/></g><rect fill="#E2E2F0" height="30.2969" rx="2.5" ry="2.5" style="stroke:#181818;stroke-width:0.5;" width="102.2588" x="10" y="10"/><text fill="#000000" font-family="sans-serif" font-size="14" lengthAdjust="spacing" textLength="88.2588" x="17" y="29.9951">Particpant_A</text><rect fill="#E2E2F0" height="30.2969" rx="2.5" ry="2.5" style="stroke:#181818;stroke-width:0.5;" width="102.2861" x="122.2588" y="10"/><text fill="#000000" font-family="sans-serif" font-size="14" lengthAdjust="spacing" textLength="88.2861" x="129.2588" y="29.9951">Particpant_B</text><rect fill="#E2E2F0" height="30.2969" rx="2.5" ry="2.5" style="stroke:#181818;stroke-width:0.5;" width="117.9609" x="234.5449" y="10"/><text fill="#000000" font-family="sans-serif" font-size="14" lengthAdjust="spacing" textLength="103.9609" x="241.5449" y="29.9951">Particpant_B !!</text><rect fill="#E2E2F0" height="30.2969" rx="2.5" ry="2.5" style="stroke:#181818;stroke-width:0.5;" width="102.2588" x="10" y="1265.2109"/><text fill="#000000" font-family="sans-serif" font-size="14" lengthAdjust="spacing" textLength="88.2588" x="17" y="1285.206">Particpant_A</text><rect fill="#E2E2F0" height="30.2969" rx="2.5" ry="2.5" style="stroke:#181818;stroke-width:0.5;" width="102.2861" x="122.2588" y="1265.2109"/><text fill="#000000" font-family="sans-serif" font-size="14" lengthAdjust="spacing" textLength="88.2861" x="129.2588" y="1285.206">Particpant_B</text><rect fill="#E2E2F0" height="30.2969" rx="2.5" ry="2.5" style="stroke:#181818;stroke-width:0.5;" width="117.9609" x="234.5449" y="1265.2109"/><text fill="#000000" font-family="sans-serif" font-size="14" lengthAdjust="spacing" textLength="103.9609" x="241.5449" y="1285.206">Particpant_B !!</text><path d="M45.1294,53.2969 L183.7764,53.2969 L183.7764,60.4297 L173.7764,70.4297 L45.1294,70.4297 L45.1294,53.2969" fill="#EEEEEE" style="stroke:#000000;stroke-width:1.5;"/><rect fill="none" height="85.3984" style="stroke:#000000;stroke-width:1.5;" width="208.5029" x="45.1294" y="53.2969"/><text fill="#000000" font-family="sans-serif" font-size="13" font-weight="700" lengthAdjust="spacing" textLength="93.647" x="60.1294" y="66.3638">#ffa Group 1</text><polygon fill="#181818" points="161.4019,97.5625,171.4019,101.5625,161.4019,105.5625,165.4019,101.5625" style="stroke:#181818;stroke-width:1;"/><line style="stroke:#181818;stroke-width:1;" x1="66.1294" x2="167.4019" y1="101.5625" y2="101.5625"/><polygon fill="#181818" points="77.1294,126.6953,67.1294,130.6953,77.1294,134.6953,73.1294,130.6953" style="stroke:#181818;stroke-width:1;"/><line style="stroke:#181818;stroke-width:1;" x1="71.1294" x2="172.4019" y1="130.6953" y2="130.6953"/><path d="M45.1294,156.6953 L183.7764,156.6953 L183.7764,163.8281 L173.7764,173.8281 L45.1294,173.8281 L45.1294,156.6953" fill="#EEEEEE" style="stroke:#000000;stroke-width:1.5;"/><rect fill="none" height="85.3984" style="stroke:#000000;stroke-width:1.5;" width="208.5029" x="45.1294" y="156.6953"/><text fill="#000000" font-family="sans-serif" font-size="13" font-weight="700" lengthAdjust="spacing" textLength="93.647" x="60.1294" y="169.7622">#ffa Group 2</text><polygon fill="#181818" points="156.4019,200.9609,166.4019,204.9609,156.4019,208.9609,160.4019,204.9609" style="stroke:#181818;stroke-width:1;"/><line style="stroke:#181818;stroke-width:1;" x1="61.1294" x2="162.4019" y1="204.9609" y2="204.9609"/><polygon fill="#181818" points="72.1294,230.0938,62.1294,234.0938,72.1294,238.0938,68.1294,234.0938" style="stroke:#181818;stroke-width:1;"/><line style="stroke:#181818;stroke-width:1;" x1="66.1294" x2="167.4019" y1="234.0938" y2="234.0938"/><path d="M45.1294,260.0938 L183.7764,260.0938 L183.7764,267.2265 L173.7764,277.2265 L45.1294,277.2265 L45.1294,260.0938" fill="#EEEEEE" style="stroke:#000000;stroke-width:1.5;"/><rect fill="none" height="85.3984" style="stroke:#000000;stroke-width:1.5;" width="208.5029" x="45.1294" y="260.0938"/><text fill="#000000" font-family="sans-serif" font-size="13" font-weight="700" lengthAdjust="spacing" textLength="93.647" x="60.1294" y="273.1606">#ffa Group 3</text><polygon fill="#181818" points="156.4019,304.3594,166.4019,308.3594,156.4019,312.3594,160.4019,308.3594" style="stroke:#181818;stroke-width:1;"/><line style="stroke:#181818;stroke-width:1;" x1="66.1294" x2="162.4019" y1="308.3594" y2="308.3594"/><polygon fill="#181818" points="77.1294,333.4922,67.1294,337.4922,77.1294,341.4922,73.1294,337.4922" style="stroke:#181818;stroke-width:1;"/><line style="stroke:#181818;stroke-width:1;" x1="71.1294" x2="167.4019" y1="337.4922" y2="337.4922"/><path d="M45.1294,363.4922 L193.082,363.4922 L193.082,370.625 L183.082,380.625 L45.1294,380.625 L45.1294,363.4922" fill="#EEEEEE" style="stroke:#000000;stroke-width:1.5;"/><rect fill="none" height="260.1953" style="stroke:#000000;stroke-width:1.5;" width="216.377" x="45.1294" y="363.4922"/><text fill="#000000" font-family="sans-serif" font-size="13" font-weight="700" lengthAdjust="spacing" textLength="102.9526" x="60.1294" y="376.5591">#ffa Group 3b</text><polygon fill="#181818" points="156.4019,407.7578,166.4019,411.7578,156.4019,415.7578,160.4019,411.7578" style="stroke:#181818;stroke-width:1;"/><line style="stroke:#181818;stroke-width:1;" x1="66.1294" x2="162.4019" y1="411.7578" y2="411.7578"/><polygon fill="#181818" points="161.4019,436.8906,171.4019,440.8906,161.4019,444.8906,165.4019,440.8906" style="stroke:#181818;stroke-width:1;"/><line style="stroke:#181818;stroke-width:1;" x1="66.1294" x2="167.4019" y1="440.8906" y2="440.8906"/><polygon fill="#181818" points="166.4019,466.0234,176.4019,470.0234,166.4019,474.0234,170.4019,470.0234" style="stroke:#181818;stroke-width:1;"/><line style="stroke:#181818;stroke-width:1;" x1="66.1294" x2="172.4019" y1="470.0234" y2="470.0234"/><polygon fill="#181818" points="171.4019,495.1563,181.4019,499.1563,171.4019,503.1563,175.4019,499.1563" style="stroke:#181818;stroke-width:1;"/><line style="stroke:#181818;stroke-width:1;" x1="66.1294" x2="177.4019" y1="499.1563" y2="499.1563"/><polygon fill="#181818" points="77.1294,524.2891,67.1294,528.2891,77.1294,532.2891,73.1294,528.2891" style="stroke:#181818;stroke-width:1;"/><line style="stroke:#181818;stroke-width:1;" x1="71.1294" x2="182.4019" y1="528.2891" y2="528.2891"/><polygon fill="#181818" points="77.1294,553.4219,67.1294,557.4219,77.1294,561.4219,73.1294,557.4219" style="stroke:#181818;stroke-width:1;"/><line style="stroke:#181818;stroke-width:1;" x1="71.1294" x2="177.4019" y1="557.4219" y2="557.4219"/><polygon fill="#181818" points="77.1294,582.5547,67.1294,586.5547,77.1294,590.5547,73.1294,586.5547" style="stroke:#181818;stroke-width:1;"/><line style="stroke:#181818;stroke-width:1;" x1="71.1294" x2="172.4019" y1="586.5547" y2="586.5547"/><polygon fill="#181818" points="77.1294,611.6875,67.1294,615.6875,77.1294,619.6875,73.1294,615.6875" style="stroke:#181818;stroke-width:1;"/><line style="stroke:#181818;stroke-width:1;" x1="71.1294" x2="167.4019" y1="615.6875" y2="615.6875"/><path d="M45.1294,641.6875 L202.1274,641.6875 L202.1274,648.8203 L192.1274,658.8203 L45.1294,658.8203 L45.1294,641.6875" fill="#EEEEEE" style="stroke:#000000;stroke-width:1.5;"/><rect fill="none" height="114.5313" style="stroke:#000000;stroke-width:1.5;" width="264.396" x="45.1294" y="641.6875"/><text fill="#000000" font-family="sans-serif" font-size="13" font-weight="700" lengthAdjust="spacing" textLength="111.998" x="60.1294" y="654.7544">#ffa Group 3b2</text><polygon fill="#181818" points="156.4019,685.9531,166.4019,689.9531,156.4019,693.9531,160.4019,689.9531" style="stroke:#181818;stroke-width:1;"/><line style="stroke:#181818;stroke-width:1;" x1="66.1294" x2="162.4019" y1="689.9531" y2="689.9531"/><polygon fill="#181818" points="77.1294,715.0859,67.1294,719.0859,77.1294,723.0859,73.1294,719.0859" style="stroke:#181818;stroke-width:1;"/><line style="stroke:#181818;stroke-width:1;" x1="71.1294" x2="167.4019" y1="719.0859" y2="719.0859"/><polygon fill="#181818" points="281.5254,744.2188,291.5254,748.2188,281.5254,752.2188,285.5254,748.2188" style="stroke:#181818;stroke-width:1;"/><line style="stroke:#181818;stroke-width:1;" x1="66.1294" x2="287.5254" y1="748.2188" y2="748.2188"/><path d="M45.1294,774.2188 L202.1274,774.2188 L202.1274,781.3516 L192.1274,791.3516 L45.1294,791.3516 L45.1294,774.2188" fill="#EEEEEE" style="stroke:#000000;stroke-width:1.5;"/><rect fill="none" height="85.3984" style="stroke:#000000;stroke-width:1.5;" width="264.396" x="45.1294" y="774.2188"/><text fill="#000000" font-family="sans-serif" font-size="13" font-weight="700" lengthAdjust="spacing" textLength="111.998" x="60.1294" y="787.2857">#ffa Group 3b3</text><polygon fill="#181818" points="161.4019,818.4844,171.4019,822.4844,161.4019,826.4844,165.4019,822.4844" style="stroke:#181818;stroke-width:1;"/><line style="stroke:#181818;stroke-width:1;" x1="66.1294" x2="167.4019" y1="822.4844" y2="822.4844"/><polygon fill="#181818" points="77.1294,847.6172,67.1294,851.6172,77.1294,855.6172,73.1294,851.6172" style="stroke:#181818;stroke-width:1;"/><line style="stroke:#181818;stroke-width:1;" x1="71.1294" x2="292.5254" y1="851.6172" y2="851.6172"/><path d="M45.1294,877.6172 L191.4824,877.6172 L191.4824,884.75 L181.4824,894.75 L45.1294,894.75 L45.1294,877.6172" fill="#EEEEEE" style="stroke:#000000;stroke-width:1.5;"/><rect fill="none" height="260.1953" style="stroke:#000000;stroke-width:1.5;" width="215.0234" x="45.1294" y="877.6172"/><text fill="#000000" font-family="sans-serif" font-size="13" font-weight="700" lengthAdjust="spacing" textLength="101.353" x="60.1294" y="890.6841">#ffa Group 3c</text><polygon fill="#181818" points="161.4019,921.8828,171.4019,925.8828,161.4019,929.8828,165.4019,925.8828" style="stroke:#181818;stroke-width:1;"/><line style="stroke:#181818;stroke-width:1;" x1="71.1294" x2="167.4019" y1="925.8828" y2="925.8828"/><polygon fill="#181818" points="87.1294,951.0156,77.1294,955.0156,87.1294,959.0156,83.1294,955.0156" style="stroke:#181818;stroke-width:1;"/><line style="stroke:#181818;stroke-width:1;" x1="81.1294" x2="172.4019" y1="955.0156" y2="955.0156"/><polygon fill="#181818" points="92.1294,980.1484,82.1294,984.1484,92.1294,988.1484,88.1294,984.1484" style="stroke:#181818;stroke-width:1;"/><line style="stroke:#181818;stroke-width:1;" x1="86.1294" x2="172.4019" y1="984.1484" y2="984.1484"/><polygon fill="#181818" points="97.1294,1009.2813,87.1294,1013.2813,97.1294,1017.2813,93.1294,1013.2813" style="stroke:#181818;stroke-width:1;"/><line style="stroke:#181818;stroke-width:1;" x1="91.1294" x2="172.4019" y1="1013.2813" y2="1013.2813"/><polygon fill="#181818" points="161.4019,1038.4141,171.4019,1042.4141,161.4019,1046.4141,165.4019,1042.4141" style="stroke:#181818;stroke-width:1;"/><line style="stroke:#181818;stroke-width:1;" x1="86.1294" x2="167.4019" y1="1042.4141" y2="1042.4141"/><polygon fill="#181818" points="161.4019,1067.5469,171.4019,1071.5469,161.4019,1075.5469,165.4019,1071.5469" style="stroke:#181818;stroke-width:1;"/><line style="stroke:#181818;stroke-width:1;" x1="81.1294" x2="167.4019" y1="1071.5469" y2="1071.5469"/><polygon fill="#181818" points="161.4019,1096.6797,171.4019,1100.6797,161.4019,1104.6797,165.4019,1100.6797" style="stroke:#181818;stroke-width:1;"/><line style="stroke:#181818;stroke-width:1;" x1="76.1294" x2="167.4019" y1="1100.6797" y2="1100.6797"/><polygon fill="#181818" points="82.1294,1125.8125,72.1294,1129.8125,82.1294,1133.8125,78.1294,1129.8125" style="stroke:#181818;stroke-width:1;"/><line style="stroke:#181818;stroke-width:1;" x1="76.1294" x2="172.4019" y1="1129.8125" y2="1129.8125"/><path d="M45.1294,1155.8125 L183.7764,1155.8125 L183.7764,1162.9453 L173.7764,1172.9453 L45.1294,1172.9453 L45.1294,1155.8125" fill="#EEEEEE" style="stroke:#000000;stroke-width:1.5;"/><rect fill="none" height="85.3984" style="stroke:#000000;stroke-width:1.5;" width="208.5029" x="45.1294" y="1155.8125"/><text fill="#000000" font-family="sans-serif" font-size="13" font-weight="700" lengthAdjust="spacing" textLength="93.647" x="60.1294" y="1168.8794">#ffa Group 4</text><polygon fill="#181818" points="156.4019,1200.0781,166.4019,1204.0781,156.4019,1208.0781,160.4019,1204.0781" style="stroke:#181818;stroke-width:1;"/><line style="stroke:#181818;stroke-width:1;" x1="66.1294" x2="162.4019" y1="1204.0781" y2="1204.0781"/><polygon fill="#181818" points="77.1294,1229.2109,67.1294,1233.2109,77.1294,1237.2109,73.1294,1233.2109" style="stroke:#181818;stroke-width:1;"/><line style="stroke:#181818;stroke-width:1;" x1="71.1294" x2="167.4019" y1="1233.2109" y2="1233.2109"/></g></svg>