<svg xmlns="http://www.w3.org/2000/svg" xmlns:xlink="http://www.w3.org/1999/xlink" contentStyleType="text/css" data-diagram-type="SEQUENCE" height="174px" preserveAspectRatio="none" style="width:152px;height:174px;background:#FFFFFF;" version="1.1" viewBox="0 0 152 174" width="152px" zoomAndPan="magnify"><?plantuml 1.2026.3beta5?><defs/><g><g><title>A</title><rect fill="#000000" fill-opacity="0.00000" height="91.1328" width="8" x="25.5" y="41.2969"/><line style="stroke:#181818;stroke-width:0.5;stroke-dasharray:5,5;" x1="29" x2="29" y1="41.2969" y2="132.4297"/></g><g><title>B</title><rect fill="#000000" fill-opacity="0.00000" height="91.1328" width="8" x="59.0908" y="41.2969"/><line style="stroke:#181818;stroke-width:0.5;stroke-dasharray:5,5;" x1="62.5908" x2="62.5908" y1="41.2969" y2="132.4297"/></g><rect fill="#E2E2F0" height="30.2969" rx="2.5" ry="2.5" style="stroke:#181818;stroke-width:0.5;" width="23.5771" x="17.2114" y="10"/><text fill="#000000" font-family="sans-serif" font-size="14" lengthAdjust="spacing" textLength="9.5771" x="24.2114" y="29.9951">A</text><rect fill="#E2E2F0" height="30.2969" rx="2.5" ry="2.5" style="stroke:#181818;stroke-width:0.5;" width="23.6045" x="50.7886" y="10"/><text fill="#000000" font-family="sans-serif" font-size="14" lengthAdjust="spacing" textLength="9.6045" x="57.7886" y="29.9951">B</text><rect fill="#E2E2F0" height="30.2969" rx="2.5" ry="2.5" style="stroke:#181818;stroke-width:0.5;" width="23.5771" x="17.2114" y="132.4297"/><text fill="#000000" font-family="sans-serif" font-size="14" lengthAdjust="spacing" textLength="9.5771" x="24.2114" y="152.4248">A</text><rect fill="#E2E2F0" height="30.2969" rx="2.5" ry="2.5" style="stroke:#181818;stroke-width:0.5;" width="23.6045" x="50.7886" y="132.4297"/><text fill="#000000" font-family="sans-serif" font-size="14" lengthAdjust="spacing" textLength="9.6045" x="57.7886" y="152.4248">B</text><path d="M13,53.2969 L116.1445,53.2969 L116.1445,60.4297 L106.1445,70.4297 L13,70.4297 L13,53.2969" fill="#EEEEEE" style="stroke:#000000;stroke-width:1.5;"/><rect fill="none" height="55.1328" style="stroke:#000000;stroke-width:1.5;" width="119.1445" x="13" y="53.2969"/><text fill="#000000" font-family="sans-serif" font-size="13" font-weight="700" lengthAdjust="spacing" textLength="58.1445" x="28" y="66.3638">Group 1</text><polygon fill="#181818" points="50.5908,82.4297,60.5908,86.4297,50.5908,90.4297,54.5908,86.4297" style="stroke:#181818;stroke-width:1;"/><line style="stroke:#181818;stroke-width:1;" x1="29" x2="56.5908" y1="86.4297" y2="86.4297"/><polygon fill="#181818" points="40,96.4297,30,100.4297,40,104.4297,36,100.4297" style="stroke:#181818;stroke-width:1;"/><line style="stroke:#181818;stroke-width:1;" x1="34" x2="61.5908" y1="100.4297" y2="100.4297"/><?plantuml-src KomeIapFJLGeISslKYWfAatbIY_ABorGS0UJXbmAGE2ee6kdu0HbskW2cQbvAG00?></g></svg>