<svg xmlns="http://www.w3.org/2000/svg" xmlns:xlink="http://www.w3.org/1999/xlink" contentStyleType="text/css" data-diagram-type="SEQUENCE" height="204px" preserveAspectRatio="none" style="width:211px;height:204px;background:#FFFFFF;" version="1.1" viewBox="0 0 211 204" width="211px" zoomAndPan="magnify"><?plantuml 1.2026.3beta5?><defs/><g><g><title>A</title><rect fill="#000000" fill-opacity="0.00000" height="121.3984" width="8" x="25.5" y="41.2969"/><line style="stroke:#181818;stroke-width:0.5;stroke-dasharray:5,5;" x1="29" x2="29" y1="41.2969" y2="162.6953"/></g><g><title>B</title><rect fill="#000000" fill-opacity="0.00000" height="121.3984" width="8" x="59.0908" y="41.2969"/><line style="stroke:#181818;stroke-width:0.5;stroke-dasharray:5,5;" x1="62.5908" x2="62.5908" y1="41.2969" y2="162.6953"/></g><rect fill="#E2E2F0" height="30.2969" rx="2.5" ry="2.5" style="stroke:#181818;stroke-width:0.5;" width="23.5771" x="17.2114" y="10"/><text fill="#000000" font-family="sans-serif" font-size="14" lengthAdjust="spacing" textLength="9.5771" x="24.2114" y="29.9951">A</text><rect fill="#E2E2F0" height="30.2969" rx="2.5" ry="2.5" style="stroke:#181818;stroke-width:0.5;" width="23.6045" x="50.7886" y="10"/><text fill="#000000" font-family="sans-serif" font-size="14" lengthAdjust="spacing" textLength="9.6045" x="57.7886" y="29.9951">B</text><rect fill="#E2E2F0" height="30.2969" rx="2.5" ry="2.5" style="stroke:#181818;stroke-width:0.5;" width="23.5771" x="17.2114" y="162.6953"/><text fill="#000000" font-family="sans-serif" font-size="14" lengthAdjust="spacing" textLength="9.5771" x="24.2114" y="182.6904">A</text><rect fill="#E2E2F0" height="30.2969" rx="2.5" ry="2.5" style="stroke:#181818;stroke-width:0.5;" width="23.6045" x="50.7886" y="162.6953"/><text fill="#000000" font-family="sans-serif" font-size="14" lengthAdjust="spacing" textLength="9.6045" x="57.7886" y="182.6904">B</text><path d="M13,53.2969 L116.1445,53.2969 L116.1445,60.4297 L106.1445,70.4297 L13,70.4297 L13,53.2969" fill="#EEEEEE" style="stroke:#000000;stroke-width:1.5;"/><rect fill="none" height="85.3984" style="stroke:#000000;stroke-width:1.5;" width="178.4624" x="13" y="53.2969"/><text fill="#000000" font-family="sans-serif" font-size="13" font-weight="700" lengthAdjust="spacing" textLength="58.1445" x="28" y="66.3638">Group 1</text><polygon fill="#181818" points="50.5908,97.5625,60.5908,101.5625,50.5908,105.5625,54.5908,101.5625" style="stroke:#181818;stroke-width:1;"/><line style="stroke:#181818;stroke-width:1;" x1="29" x2="56.5908" y1="101.5625" y2="101.5625"/><polygon fill="#181818" points="40,126.6953,30,130.6953,40,134.6953,36,130.6953" style="stroke:#181818;stroke-width:1;"/><line style="stroke:#181818;stroke-width:1;" x1="34" x2="61.5908" y1="130.6953" y2="130.6953"/></g></svg>