Warning: table size too small for content
in label of graph cluster6
Warning: table size too small for content
in label of graph cluster10
<?xml version="1.0" encoding="UTF-8" standalone="no"?>
<!DOCTYPE svg PUBLIC "-//W3C//DTD SVG 1.1//EN"
 "http://www.w3.org/Graphics/SVG/1.1/DTD/svg11.dtd">
<!-- Generated by graphviz version 2.43.0 (0)
 -->
<!-- Title: unix Pages: 1 -->
<svg width="356pt" height="206pt"
 viewBox="0.00 0.00 356.00 206.00" xmlns="http://www.w3.org/2000/svg" xmlns:xlink="http://www.w3.org/1999/xlink">
<g id="graph0" class="graph" transform="scale(1 1) rotate(0) translate(4 202)">
<title>unix</title>
<polygon fill="white" stroke="transparent" points="-4,4 -4,-202 352,-202 352,4 -4,4"/>
<g id="clust1" class="cluster">
<title>cluster6p0</title>
<polygon fill="none" stroke="black" points="8,-8 8,-190 340,-190 340,-8 8,-8"/>
</g>
<g id="clust2" class="cluster">
<title>cluster6</title>
<polygon fill="none" stroke="#000006" points="16,-16 16,-182 332,-182 332,-16 16,-16"/>
<polygon fill="#000007" stroke="transparent" points="154.5,-167 154.5,-178 193.5,-178 193.5,-167 154.5,-167"/>
<polygon fill="none" stroke="#000006" points="158,-168.5 158,-174.5 164,-174.5 164,-168.5 158,-168.5"/>
<polygon fill="none" stroke="#000006" points="154.5,-167 154.5,-178 193.5,-178 193.5,-167 154.5,-167"/>
</g>
<g id="clust3" class="cluster">
<title>cluster6p1</title>
<polygon fill="none" stroke="#000006" points="24,-24 24,-155 324,-155 324,-24 24,-24"/>
</g>
<g id="clust4" class="cluster">
<title>cluster10p0</title>
<polygon fill="none" stroke="#000006" points="32,-32 32,-147 316,-147 316,-32 32,-32"/>
</g>
<g id="clust5" class="cluster">
<title>cluster10</title>
<polygon fill="none" stroke="#00000a" points="40,-40 40,-139 308,-139 308,-40 40,-40"/>
<polygon fill="#00000b" stroke="transparent" points="154.5,-124 154.5,-135 193.5,-135 193.5,-124 154.5,-124"/>
<polygon fill="none" stroke="#00000a" points="158,-125.5 158,-131.5 164,-131.5 164,-125.5 158,-125.5"/>
<polygon fill="none" stroke="#00000a" points="154.5,-124 154.5,-135 193.5,-135 193.5,-124 154.5,-124"/>
</g>
<g id="clust6" class="cluster">
<title>cluster10p1</title>
<polygon fill="none" stroke="#00000a" points="48,-48 48,-112 300,-112 300,-48 48,-48"/>
</g>
<!-- sh0014 -->
<g id="node1" class="node">
<title>sh0014</title>
<polygon fill="none" stroke="#00000e" points="230,-104 56,-104 56,-56 230,-56 230,-104"/>
</g>
<!-- sh0014&#45;&gt;sh0014 -->
<g id="edge1" class="edge">
<title>sh0014&#45;&gt;sh0014</title>
<path fill="none" stroke="#00000f" d="M230.18,-88.8C250.26,-88.04 265,-85.11 265,-80 265,-74.89 250.26,-71.96 230.18,-71.2"/>
<polygon fill="#000010" stroke="transparent" points="265,-66.5 265,-93.5 309,-93.5 309,-66.5 265,-66.5"/>
<polygon fill="none" stroke="#00000f" points="268,-84 268,-90 274,-90 274,-84 268,-84"/>
<polygon fill="none" stroke="#00000f" points="265,-66.5 265,-93.5 309,-93.5 309,-66.5 265,-66.5"/>
</g>
</g>
</svg>
