<svg xmlns="http://www.w3.org/2000/svg" xmlns:xlink="http://www.w3.org/1999/xlink" contentStyleType="text/css" data-diagram-type="CLASS" height="529px" preserveAspectRatio="none" style="width:74px;height:529px;background:#FFFFFF;" version="1.1" viewBox="0 0 74 529" width="74px" zoomAndPan="magnify"><?plantuml 1.2026.3beta4?><defs/><g><!--class cl1--><g class="entity" data-qualified-name="cl1" data-source-line="1" id="ent0002"><rect fill="#F1F1F1" height="48" rx="2.5" ry="2.5" style="stroke:#181818;stroke-width:0.5;" width="52.4941" x="7" y="7"/><ellipse cx="22" cy="23" fill="#ADD1B2" rx="11" ry="11" style="stroke:#181818;stroke-width:1;"/><path d="M24.9688,28.6406 Q24.3906,28.9375 23.75,29.0781 Q23.1094,29.2344 22.4063,29.2344 Q19.9063,29.2344 18.5781,27.5938 Q17.2656,25.9375 17.2656,22.8125 Q17.2656,19.6875 18.5781,18.0313 Q19.9063,16.375 22.4063,16.375 Q23.1094,16.375 23.75,16.5313 Q24.4063,16.6875 24.9688,16.9844 L24.9688,19.7031 Q24.3438,19.125 23.75,18.8594 Q23.1563,18.5781 22.5313,18.5781 Q21.1875,18.5781 20.5,19.6563 Q19.8125,20.7188 19.8125,22.8125 Q19.8125,24.9063 20.5,25.9844 Q21.1875,27.0469 22.5313,27.0469 Q23.1563,27.0469 23.75,26.7813 Q24.3438,26.5 24.9688,25.9219 L24.9688,28.6406 Z " fill="#000000"/><text fill="#000000" font-family="sans-serif" font-size="14" lengthAdjust="spacing" textLength="20.4941" x="36" y="27.8467">cl1</text><line style="stroke:#181818;stroke-width:0.5;" x1="8" x2="58.4941" y1="39" y2="39"/><line style="stroke:#181818;stroke-width:0.5;" x1="8" x2="58.4941" y1="47" y2="47"/></g><!--class cl2--><g class="entity" data-qualified-name="cl2" data-source-line="2" id="ent0003"><rect fill="#F1F1F1" height="48" rx="2.5" ry="2.5" style="stroke:#181818;stroke-width:0.5;" width="52.4941" x="7" y="160"/><ellipse cx="22" cy="176" fill="#ADD1B2" rx="11" ry="11" style="stroke:#181818;stroke-width:1;"/><path d="M24.9688,181.6406 Q24.3906,181.9375 23.75,182.0781 Q23.1094,182.2344 22.4063,182.2344 Q19.9063,182.2344 18.5781,180.5938 Q17.2656,178.9375 17.2656,175.8125 Q17.2656,172.6875 18.5781,171.0313 Q19.9063,169.375 22.4063,169.375 Q23.1094,169.375 23.75,169.5313 Q24.4063,169.6875 24.9688,169.9844 L24.9688,172.7031 Q24.3438,172.125 23.75,171.8594 Q23.1563,171.5781 22.5313,171.5781 Q21.1875,171.5781 20.5,172.6563 Q19.8125,173.7188 19.8125,175.8125 Q19.8125,177.9063 20.5,178.9844 Q21.1875,180.0469 22.5313,180.0469 Q23.1563,180.0469 23.75,179.7813 Q24.3438,179.5 24.9688,178.9219 L24.9688,181.6406 Z " fill="#000000"/><text fill="#000000" font-family="sans-serif" font-size="14" lengthAdjust="spacing" textLength="20.4941" x="36" y="180.8467">cl2</text><line style="stroke:#181818;stroke-width:0.5;" x1="8" x2="58.4941" y1="192" y2="192"/><line style="stroke:#181818;stroke-width:0.5;" x1="8" x2="58.4941" y1="200" y2="200"/></g><!--class cl3--><g class="entity" data-qualified-name="cl3" data-source-line="3" id="ent0004"><rect fill="#F1F1F1" height="48" rx="2.5" ry="2.5" style="stroke:#181818;stroke-width:0.5;" width="52.4941" x="7" y="313"/><ellipse cx="22" cy="329" fill="#ADD1B2" rx="11" ry="11" style="stroke:#181818;stroke-width:1;"/><path d="M24.9688,334.6406 Q24.3906,334.9375 23.75,335.0781 Q23.1094,335.2344 22.4063,335.2344 Q19.9063,335.2344 18.5781,333.5938 Q17.2656,331.9375 17.2656,328.8125 Q17.2656,325.6875 18.5781,324.0313 Q19.9063,322.375 22.4063,322.375 Q23.1094,322.375 23.75,322.5313 Q24.4063,322.6875 24.9688,322.9844 L24.9688,325.7031 Q24.3438,325.125 23.75,324.8594 Q23.1563,324.5781 22.5313,324.5781 Q21.1875,324.5781 20.5,325.6563 Q19.8125,326.7188 19.8125,328.8125 Q19.8125,330.9063 20.5,331.9844 Q21.1875,333.0469 22.5313,333.0469 Q23.1563,333.0469 23.75,332.7813 Q24.3438,332.5 24.9688,331.9219 L24.9688,334.6406 Z " fill="#000000"/><text fill="#000000" font-family="sans-serif" font-size="14" lengthAdjust="spacing" textLength="20.4941" x="36" y="333.8467">cl3</text><line style="stroke:#181818;stroke-width:0.5;" x1="8" x2="58.4941" y1="345" y2="345"/><line style="stroke:#181818;stroke-width:0.5;" x1="8" x2="58.4941" y1="353" y2="353"/></g><!--class cl4--><g class="entity" data-qualified-name="cl4" data-source-line="4" id="ent0005"><rect fill="#F1F1F1" height="48" rx="2.5" ry="2.5" style="stroke:#181818;stroke-width:0.5;" width="52.4941" x="7" y="466"/><ellipse cx="22" cy="482" fill="#ADD1B2" rx="11" ry="11" style="stroke:#181818;stroke-width:1;"/><path d="M24.9688,487.6406 Q24.3906,487.9375 23.75,488.0781 Q23.1094,488.2344 22.4063,488.2344 Q19.9063,488.2344 18.5781,486.5938 Q17.2656,484.9375 17.2656,481.8125 Q17.2656,478.6875 18.5781,477.0313 Q19.9063,475.375 22.4063,475.375 Q23.1094,475.375 23.75,475.5313 Q24.4063,475.6875 24.9688,475.9844 L24.9688,478.7031 Q24.3438,478.125 23.75,477.8594 Q23.1563,477.5781 22.5313,477.5781 Q21.1875,477.5781 20.5,478.6563 Q19.8125,479.7188 19.8125,481.8125 Q19.8125,483.9063 20.5,484.9844 Q21.1875,486.0469 22.5313,486.0469 Q23.1563,486.0469 23.75,485.7813 Q24.3438,485.5 24.9688,484.9219 L24.9688,487.6406 Z " fill="#000000"/><text fill="#000000" font-family="sans-serif" font-size="14" lengthAdjust="spacing" textLength="20.4941" x="36" y="486.8467">cl4</text><line style="stroke:#181818;stroke-width:0.5;" x1="8" x2="58.4941" y1="498" y2="498"/><line style="stroke:#181818;stroke-width:0.5;" x1="8" x2="58.4941" y1="506" y2="506"/></g><!--link cl1 to cl2--><g class="link" data-entity-1="ent0002" data-entity-2="ent0003" data-link-type="association" data-source-line="5" id="lnk6"><path codeLine="5" d="M33,55.26 C33,83.72 33,131.6 33,159.96" fill="none" id="cl1-to-cl2" style="stroke:#181818;stroke-width:1;"/><text fill="#000000" font-family="sans-serif" font-size="13" lengthAdjust="spacing" textLength="38.2383" x="48.7361" y="114.9677">this is</text><text fill="#000000" font-family="sans-serif" font-size="13" lengthAdjust="spacing" textLength="67.7104" x="34" y="130.1005">on several</text><text fill="#000000" font-family="sans-serif" font-size="13" lengthAdjust="spacing" textLength="30.2339" x="52.7383" y="145.2333">lines</text></g><!--link cl2 to cl3--><g class="link" data-entity-1="ent0003" data-entity-2="ent0004" data-link-type="association" data-source-line="6" id="lnk7"><path codeLine="6" d="M33,208.26 C33,236.72 33,284.6 33,312.96" fill="none" id="cl2-to-cl3" style="stroke:#181818;stroke-width:1;"/><text fill="#000000" font-family="sans-serif" font-size="13" lengthAdjust="spacing" textLength="38.2383" x="34" y="267.9677">this is</text><text fill="#000000" font-family="sans-serif" font-size="13" lengthAdjust="spacing" textLength="67.7104" x="34" y="283.1005">on several</text><text fill="#000000" font-family="sans-serif" font-size="13" lengthAdjust="spacing" textLength="30.2339" x="34" y="298.2333">lines</text></g><!--link cl3 to cl4--><g class="link" data-entity-1="ent0004" data-entity-2="ent0005" data-link-type="association" data-source-line="7" id="lnk8"><path codeLine="7" d="M33,361.26 C33,389.72 33,437.6 33,465.96" fill="none" id="cl3-to-cl4" style="stroke:#181818;stroke-width:1;"/><text fill="#000000" font-family="sans-serif" font-size="13" lengthAdjust="spacing" textLength="38.2383" x="63.4722" y="420.9677">this is</text><text fill="#000000" font-family="sans-serif" font-size="13" lengthAdjust="spacing" textLength="67.7104" x="34" y="436.1005">on several</text><text fill="#000000" font-family="sans-serif" font-size="13" lengthAdjust="spacing" textLength="30.2339" x="71.4766" y="451.2333">lines</text></g><?plantuml-src JSen2i0W343HtLFa0WvMfvx5HKHe8AIGb9w_rLR9zk6_IaKLAWLN_zfMnLNfhG3UzmqxN0Sge6O-6RJTJGfb9kIcheFXed5a74qNFvUC4-Dak0S0?></g></svg>