<svg xmlns="http://www.w3.org/2000/svg" xmlns:xlink="http://www.w3.org/1999/xlink" contentStyleType="text/css" data-diagram-type="CLASS" height="70px" preserveAspectRatio="none" style="width:217px;height:70px;background:#FFFFFF;" version="1.1" viewBox="0 0 217 70" width="217px" zoomAndPan="magnify"><?plantuml 1.2026.3beta4?><defs/><g><!--class C--><g class="entity" data-qualified-name="C" data-source-line="3" id="ent0002"><rect fill="#F1F1F1" height="48" rx="2.5" ry="2.5" style="stroke:#181818;stroke-width:0.5;" width="41.7754" x="7" y="7"/><ellipse cx="22" cy="23" fill="#ADD1B2" rx="11" ry="11" style="stroke:#181818;stroke-width:1;"/><path d="M24.9688,28.6406 Q24.3906,28.9375 23.75,29.0781 Q23.1094,29.2344 22.4063,29.2344 Q19.9063,29.2344 18.5781,27.5938 Q17.2656,25.9375 17.2656,22.8125 Q17.2656,19.6875 18.5781,18.0313 Q19.9063,16.375 22.4063,16.375 Q23.1094,16.375 23.75,16.5313 Q24.4063,16.6875 24.9688,16.9844 L24.9688,19.7031 Q24.3438,19.125 23.75,18.8594 Q23.1563,18.5781 22.5313,18.5781 Q21.1875,18.5781 20.5,19.6563 Q19.8125,20.7188 19.8125,22.8125 Q19.8125,24.9063 20.5,25.9844 Q21.1875,27.0469 22.5313,27.0469 Q23.1563,27.0469 23.75,26.7813 Q24.3438,26.5 24.9688,25.9219 L24.9688,28.6406 Z " fill="#000000"/><text fill="#000000" font-family="sans-serif" font-size="14" lengthAdjust="spacing" textLength="9.7754" x="36" y="27.8467">C</text><line style="stroke:#181818;stroke-width:0.5;" x1="8" x2="47.7754" y1="39" y2="39"/><line style="stroke:#181818;stroke-width:0.5;" x1="8" x2="47.7754" y1="47" y2="47"/></g><!--class B--><g class="entity" data-qualified-name="B" data-source-line="6" id="ent0003"><rect fill="#F1F1F1" height="48" rx="2.5" ry="2.5" style="stroke:#181818;stroke-width:0.5;" width="41.6045" x="84" y="7"/><ellipse cx="99" cy="23" fill="#ADD1B2" rx="11" ry="11" style="stroke:#181818;stroke-width:1;"/><path d="M101.9688,28.6406 Q101.3906,28.9375 100.75,29.0781 Q100.1094,29.2344 99.4063,29.2344 Q96.9063,29.2344 95.5781,27.5938 Q94.2656,25.9375 94.2656,22.8125 Q94.2656,19.6875 95.5781,18.0313 Q96.9063,16.375 99.4063,16.375 Q100.1094,16.375 100.75,16.5313 Q101.4063,16.6875 101.9688,16.9844 L101.9688,19.7031 Q101.3438,19.125 100.75,18.8594 Q100.1563,18.5781 99.5313,18.5781 Q98.1875,18.5781 97.5,19.6563 Q96.8125,20.7188 96.8125,22.8125 Q96.8125,24.9063 97.5,25.9844 Q98.1875,27.0469 99.5313,27.0469 Q100.1563,27.0469 100.75,26.7813 Q101.3438,26.5 101.9688,25.9219 L101.9688,28.6406 Z " fill="#000000"/><text fill="#000000" font-family="sans-serif" font-size="14" lengthAdjust="spacing" textLength="9.6045" x="113" y="27.8467">B</text><line style="stroke:#181818;stroke-width:0.5;" x1="85" x2="124.6045" y1="39" y2="39"/><line style="stroke:#181818;stroke-width:0.5;" x1="85" x2="124.6045" y1="47" y2="47"/></g><!--class A--><g class="entity" data-qualified-name="A" data-source-line="10" id="ent0004"><rect fill="#F1F1F1" height="48" rx="2.5" ry="2.5" style="stroke:#181818;stroke-width:0.5;" width="41.5771" x="161" y="7"/><ellipse cx="176" cy="23" fill="#ADD1B2" rx="11" ry="11" style="stroke:#181818;stroke-width:1;"/><path d="M178.9688,28.6406 Q178.3906,28.9375 177.75,29.0781 Q177.1094,29.2344 176.4063,29.2344 Q173.9063,29.2344 172.5781,27.5938 Q171.2656,25.9375 171.2656,22.8125 Q171.2656,19.6875 172.5781,18.0313 Q173.9063,16.375 176.4063,16.375 Q177.1094,16.375 177.75,16.5313 Q178.4063,16.6875 178.9688,16.9844 L178.9688,19.7031 Q178.3438,19.125 177.75,18.8594 Q177.1563,18.5781 176.5313,18.5781 Q175.1875,18.5781 174.5,19.6563 Q173.8125,20.7188 173.8125,22.8125 Q173.8125,24.9063 174.5,25.9844 Q175.1875,27.0469 176.5313,27.0469 Q177.1563,27.0469 177.75,26.7813 Q178.3438,26.5 178.9688,25.9219 L178.9688,28.6406 Z " fill="#000000"/><text fill="#000000" font-family="sans-serif" font-size="14" lengthAdjust="spacing" textLength="9.5771" x="190" y="27.8467">A</text><line style="stroke:#181818;stroke-width:0.5;" x1="162" x2="201.5771" y1="39" y2="39"/><line style="stroke:#181818;stroke-width:0.5;" x1="162" x2="201.5771" y1="47" y2="47"/></g><?plantuml-src ROkn3O0m30JxdyA384l092QOW8X8bAH1ABjZGKF1DrVStxhDIgLgrbZFf80BKWgDr7LBZCp6IJ8paDLLENnGCl7L3o-GxOq7D229syKhMVrxwj5k?></g></svg>