<svg xmlns="http://www.w3.org/2000/svg" xmlns:xlink="http://www.w3.org/1999/xlink" contentStyleType="text/css" data-diagram-type="STATE" height="164px" preserveAspectRatio="none" style="width:174px;height:164px;background:#FFFFFF;" version="1.1" viewBox="0 0 174 164" width="174px" zoomAndPan="magnify"><?plantuml 1.2026.3beta5?><defs/><g><g class="entity" data-qualified-name="A" id="ent0002"><rect fill="#F1F1F1" height="64.2344" rx="12.5" ry="12.5" style="stroke:#181818;stroke-width:0.5;" width="66.8398" x="7" y="86"/><line style="stroke:#181818;stroke-width:0.5;" x1="7" x2="73.8398" y1="112.2969" y2="112.2969"/><text fill="#000000" font-family="sans-serif" font-size="14" lengthAdjust="spacing" textLength="9.5771" x="35.6313" y="103.9951">A</text><text fill="#000000" font-family="sans-serif" font-size="12" lengthAdjust="spacing" textLength="23.4492" x="12" y="128.4355">first</text><text fill="#000000" font-family="sans-serif" font-size="12" lengthAdjust="spacing" textLength="46.8398" x="12" y="142.4043">\second</text></g><g class="entity" data-qualified-name="B" id="ent0003"><rect fill="#F1F1F1" height="50" rx="12.5" ry="12.5" style="stroke:#181818;stroke-width:0.5;" width="50" x="109.5" y="93"/><line style="stroke:#181818;stroke-width:0.5;" x1="109.5" x2="159.5" y1="119.2969" y2="119.2969"/><text fill="#000000" font-family="sans-serif" font-size="14" lengthAdjust="spacing" textLength="9.6045" x="129.6978" y="110.9951">B</text></g><g class="start_entity" data-qualified-name=".start." data-source-line="1" id="ent0002"><ellipse cx="40.5" cy="16" fill="#222222" rx="10" ry="10" style="stroke:#222222;stroke-width:1;"/></g><!--link *start* to A--><g class="link" data-entity-1="ent0002" data-entity-2="ent0002" data-link-type="dependency" data-source-line="1" id="lnk3"><path d="M40.5,26.23 C40.5,39.67 40.5,59.28 40.5,79.87" fill="none" id="*start*-to-A" style="stroke:#181818;stroke-width:1;"/><polygon fill="#181818" points="40.5,85.87,44.5,76.87,40.5,80.87,36.5,76.87,40.5,85.87" style="stroke:#181818;stroke-width:1;"/></g><!--link A to B--><g class="link" data-entity-1="ent0002" data-entity-2="ent0003" data-link-type="dependency" data-source-line="3" id="lnk4"><path d="M74.28,118 C85.89,118 91.49,118 103.1,118" fill="none" id="A-to-B" style="stroke:#181818;stroke-width:1;"/><polygon fill="#181818" points="109.1,118,100.1,114,104.1,118,100.1,122,109.1,118" style="stroke:#181818;stroke-width:1;"/></g><?plantuml-src 0IK0slzRAbqWBIq-844AGI0w86PfSdDqN6vSN0fpPMDlRcGAGI0jFY12?></g></svg>