<svg xmlns="http://www.w3.org/2000/svg" xmlns:xlink="http://www.w3.org/1999/xlink" contentStyleType="text/css" data-diagram-type="STATE" height="164px" preserveAspectRatio="none" style="width:202px;height:164px;background:#FFFFFF;" version="1.1" viewBox="0 0 202 164" width="202px" zoomAndPan="magnify"><?plantuml 1.2026.3beta5?><defs/><g><g class="entity" data-qualified-name="A" id="ent0002"><rect fill="#F1F1F1" height="64.2344" rx="12.5" ry="12.5" style="stroke:#181818;stroke-width:0.5;" width="94.9121" x="7" y="86"/><line style="stroke:#181818;stroke-width:0.5;" x1="7" x2="101.9121" y1="112.2969" y2="112.2969"/><text fill="#000000" font-family="sans-serif" font-size="14" lengthAdjust="spacing" textLength="9.5771" x="49.6675" y="103.9951">A</text><text fill="#000000" font-family="sans-serif" font-size="12" lengthAdjust="spacing" textLength="74.9121" x="12" y="128.4355">adding bold:</text><text fill="#000000" font-family="sans-serif" font-size="12" lengthAdjust="spacing" textLength="68.2676" x="12" y="142.4043">second line</text></g><g class="entity" data-qualified-name="B" id="ent0003"><rect fill="#F1F1F1" height="50" rx="12.5" ry="12.5" style="stroke:#181818;stroke-width:0.5;" width="50" x="137.5" y="93"/><line style="stroke:#181818;stroke-width:0.5;" x1="137.5" x2="187.5" y1="119.2969" y2="119.2969"/><text fill="#000000" font-family="sans-serif" font-size="14" lengthAdjust="spacing" textLength="9.6045" x="157.6978" y="110.9951">B</text></g><g class="start_entity" data-qualified-name=".start." data-source-line="1" id="ent0002"><ellipse cx="54.5" cy="16" fill="#222222" rx="10" ry="10" style="stroke:#222222;stroke-width:1;"/></g><!--link *start* to A--><g class="link" data-entity-1="ent0002" data-entity-2="ent0002" data-link-type="dependency" data-source-line="1" id="lnk3"><path d="M54.5,26.23 C54.5,39.67 54.5,59.28 54.5,79.87" fill="none" id="*start*-to-A" style="stroke:#181818;stroke-width:1;"/><polygon fill="#181818" points="54.5,85.87,58.5,76.87,54.5,80.87,50.5,76.87,54.5,85.87" style="stroke:#181818;stroke-width:1;"/></g><!--link A to B--><g class="link" data-entity-1="ent0002" data-entity-2="ent0003" data-link-type="dependency" data-source-line="3" id="lnk4"><path d="M102.17,118 C113.8,118 119.42,118 131.05,118" fill="none" id="A-to-B" style="stroke:#181818;stroke-width:1;"/><polygon fill="#181818" points="137.05,118,128.05,114,132.05,118,128.05,122,137.05,118" style="stroke:#181818;stroke-width:1;"/></g><?plantuml-src 0J00p_zRAbqWBIq-844AGI0w865aP6bkPo1YRsnaEbnkN0fpPMDlRcGWR6bkPGf182q-8480?></g></svg>