<svg xmlns="http://www.w3.org/2000/svg" xmlns:xlink="http://www.w3.org/1999/xlink" contentStyleType="text/css" data-diagram-type="STATE" height="194px" preserveAspectRatio="none" style="width:116px;height:194px;background:#FFFFFF;" version="1.1" viewBox="0 0 116 194" width="116px" zoomAndPan="magnify"><?plantuml 1.2026.3beta5?><defs/><g><path d="M19.5,7 L88.9399,7 A12.5,12.5 0 0 1 101.4399,19.5 L101.4399,33.2969 L7,33.2969 L7,19.5 A12.5,12.5 0 0 1 19.5,7" fill="#F1F1F1"/><rect fill="none" height="173.2969" rx="12.5" ry="12.5" style="stroke:#181818;stroke-width:0.5;" width="94.4399" x="7" y="7"/><line style="stroke:#181818;stroke-width:0.5;" x1="7" x2="101.4399" y1="33.2969" y2="33.2969"/><text fill="#000000" font-family="sans-serif" font-size="14" lengthAdjust="spacing" textLength="36.2441" x="36.0979" y="24.9951">Inner</text><g class="start_entity" data-qualified-name="Inner..start.Inner" data-source-line="2" id="ent0002"><ellipse cx="44" cy="54.2969" fill="#222222" rx="10" ry="10" style="stroke:#222222;stroke-width:1;"/></g><g class="entity" data-qualified-name="Inner.A" id="ent0003"><rect fill="#F1F1F1" height="50" rx="12.5" ry="12.5" style="stroke:#181818;stroke-width:0.5;" width="50" x="19" y="117.2969"/><line style="stroke:#181818;stroke-width:0.5;" x1="19" x2="69" y1="143.5938" y2="143.5938"/><text fill="#000000" font-family="sans-serif" font-size="14" lengthAdjust="spacing" textLength="9.5771" x="39.2114" y="135.292">A</text></g><!--link *start*Inner to A--><g class="link" data-entity-1="ent0002" data-entity-2="ent0003" data-link-type="dependency" data-source-line="2" id="lnk4"><path d="M44,64.4969 C44,76.9769 44,93.7169 44,111.2269" fill="none" id="*start*Inner-to-A" style="stroke:#181818;stroke-width:1;"/><polygon fill="#181818" points="44,117.2269,48,108.2269,44,112.2269,40,108.2269,44,117.2269" style="stroke:#181818;stroke-width:1;"/><text fill="#000000" font-family="sans-serif" font-size="13" lengthAdjust="spacing" textLength="31.4399" x="45" y="95.3638">label</text></g><?plantuml-src 0IC0tFzpT65qPI19RcvbSY1x2Y0WMofT82qjFY1183eWR65YPMmAVG00?></g></svg>