<svg xmlns="http://www.w3.org/2000/svg" xmlns:xlink="http://www.w3.org/1999/xlink" contentStyleType="text/css" data-diagram-type="SEQUENCE" height="284px" preserveAspectRatio="none" style="width:209px;height:284px;background:#FFFFFF;" version="1.1" viewBox="0 0 209 284" width="209px" zoomAndPan="magnify"><?plantuml 1.2026.3beta5?><defs/><g><g><title>Bob</title><rect fill="#000000" fill-opacity="0.00000" height="200.6641" width="8" x="27.0283" y="41.2969"/><line style="stroke:#181818;stroke-width:0.5;stroke-dasharray:5,5;" x1="30.5283" x2="30.5283" y1="41.2969" y2="241.9609"/></g><g><title/><rect fill="#FFFFFF" height="42.1328" style="stroke:#181818;stroke-width:1;" width="10" x="25.5283" y="105.5625"/></g><g><title/><rect fill="#FFFFFF" height="35.1328" style="stroke:#181818;stroke-width:1;" width="10" x="25.5283" y="182.8281"/></g><g><title>Alice</title><rect fill="#000000" fill-opacity="0.00000" height="200.6641" width="8" x="123.5928" y="41.2969"/><line style="stroke:#181818;stroke-width:0.5;stroke-dasharray:5,5;" x1="127.0928" x2="127.0928" y1="41.2969" y2="241.9609"/></g><g><title/><rect fill="#FFFFFF" height="13" style="stroke:#181818;stroke-width:1;" width="10" x="122.0928" y="182.8281"/></g><g><title/><rect fill="#FFFFFF" height="13" style="stroke:#181818;stroke-width:1;" width="10" x="122.0928" y="217.9609"/></g><rect fill="#E2E2F0" height="30.2969" rx="2.5" ry="2.5" style="stroke:#181818;stroke-width:0.5;" width="41.0566" x="10" y="10"/><text fill="#000000" font-family="sans-serif" font-size="14" lengthAdjust="spacing" textLength="27.0566" x="17" y="29.9951">Bob</text><rect fill="#E2E2F0" height="30.2969" rx="2.5" ry="2.5" style="stroke:#181818;stroke-width:0.5;" width="47.667" x="103.2593" y="10"/><text fill="#000000" font-family="sans-serif" font-size="14" lengthAdjust="spacing" textLength="33.667" x="110.2593" y="29.9951">Alice</text><rect fill="#E2E2F0" height="30.2969" rx="2.5" ry="2.5" style="stroke:#181818;stroke-width:0.5;" width="41.0566" x="10" y="241.9609"/><text fill="#000000" font-family="sans-serif" font-size="14" lengthAdjust="spacing" textLength="27.0566" x="17" y="261.956">Bob</text><rect fill="#E2E2F0" height="30.2969" rx="2.5" ry="2.5" style="stroke:#181818;stroke-width:0.5;" width="47.667" x="103.2593" y="241.9609"/><text fill="#000000" font-family="sans-serif" font-size="14" lengthAdjust="spacing" textLength="33.667" x="110.2593" y="261.956">Alice</text><polygon fill="#181818" points="115.0928,66.4297,125.0928,70.4297,115.0928,74.4297,119.0928,70.4297" style="stroke:#181818;stroke-width:1;"/><line style="stroke:#181818;stroke-width:1;" x1="30.5283" x2="121.0928" y1="70.4297" y2="70.4297"/><text fill="#000000" font-family="sans-serif" font-size="13" lengthAdjust="spacing" textLength="58.4238" x="37.5283" y="65.3638">message</text><path d="M132.0928,54.2969 L132.0928,79.2969 L168.0928,79.2969 L168.0928,64.2969 L158.0928,54.2969 L132.0928,54.2969" fill="#FEFFDD" style="stroke:#181818;stroke-width:0.5;"/><path d="M158.0928,54.2969 L158.0928,64.2969 L168.0928,64.2969 L158.0928,54.2969" fill="#FEFFDD" style="stroke:#181818;stroke-width:0.5;"/><text fill="#000000" font-family="sans-serif" font-size="13" lengthAdjust="spacing" textLength="15.4819" x="138.0928" y="71.3638">ok</text><path d="M132.0928,131.5625 L132.0928,156.5625 L168.0928,156.5625 L168.0928,141.5625 L158.0928,131.5625 L132.0928,131.5625" fill="#FEFFDD" style="stroke:#181818;stroke-width:0.5;"/><path d="M158.0928,131.5625 L158.0928,141.5625 L168.0928,141.5625 L158.0928,131.5625" fill="#FEFFDD" style="stroke:#181818;stroke-width:0.5;"/><text fill="#000000" font-family="sans-serif" font-size="13" lengthAdjust="spacing" textLength="15.4819" x="138.0928" y="148.6294">ok</text><polygon fill="#181818" points="115.0928,143.6953,125.0928,147.6953,115.0928,151.6953,119.0928,147.6953" style="stroke:#181818;stroke-width:1;"/><line style="stroke:#181818;stroke-width:1;" x1="35.5283" x2="121.0928" y1="147.6953" y2="147.6953"/><text fill="#000000" font-family="sans-serif" font-size="13" lengthAdjust="spacing" textLength="68.8276" x="42.5283" y="142.6294">deactivate</text><path d="M132.0928,166.6953 L132.0928,191.6953 L168.0928,191.6953 L168.0928,176.6953 L158.0928,166.6953 L132.0928,166.6953" fill="#FEFFDD" style="stroke:#181818;stroke-width:0.5;"/><path d="M158.0928,166.6953 L158.0928,176.6953 L168.0928,176.6953 L158.0928,166.6953" fill="#FEFFDD" style="stroke:#181818;stroke-width:0.5;"/><text fill="#000000" font-family="sans-serif" font-size="13" lengthAdjust="spacing" textLength="15.4819" x="138.0928" y="183.7622">ok</text><path d="M132.0928,201.8281 L132.0928,226.8281 L193.0928,226.8281 L193.0928,211.8281 L183.0928,201.8281 L132.0928,201.8281" fill="#FEFFDD" style="stroke:#181818;stroke-width:0.5;"/><path d="M183.0928,201.8281 L183.0928,211.8281 L193.0928,211.8281 L183.0928,201.8281" fill="#FEFFDD" style="stroke:#181818;stroke-width:0.5;"/><text fill="#000000" font-family="sans-serif" font-size="13" lengthAdjust="spacing" textLength="40.9043" x="138.0928" y="218.895">not ok</text><polygon fill="#181818" points="110.0928,178.8281,120.0928,182.8281,110.0928,186.8281,114.0928,182.8281" style="stroke:#181818;stroke-width:1;"/><line style="stroke:#181818;stroke-width:1;" x1="30.5283" x2="116.0928" y1="182.8281" y2="182.8281"/><text fill="#000000" font-family="sans-serif" font-size="13" lengthAdjust="spacing" textLength="52.5776" x="37.5283" y="177.7622">activate</text><polygon fill="#181818" points="110.0928,213.9609,120.0928,217.9609,110.0928,221.9609,114.0928,217.9609" style="stroke:#181818;stroke-width:1;"/><line style="stroke:#181818;stroke-width:1;" x1="35.5283" x2="116.0928" y1="217.9609" y2="217.9609"/><text fill="#000000" font-family="sans-serif" font-size="13" lengthAdjust="spacing" textLength="67.5645" x="42.5283" y="212.895">act+deact</text></g></svg>