<svg xmlns="http://www.w3.org/2000/svg" xmlns:xlink="http://www.w3.org/1999/xlink" contentStyleType="text/css" data-diagram-type="STATE" height="368px" preserveAspectRatio="none" style="width:386px;height:368px;background:#FFFFFF;" version="1.1" viewBox="0 0 386 368" width="386px" zoomAndPan="magnify"><?plantuml 1.2026.3beta5?><defs/><g><path d="M19.5,86 L96.4961,86 A12.5,12.5 0 0 1 108.9961,98.5 L108.9961,112.2969 L7,112.2969 L7,98.5 A12.5,12.5 0 0 1 19.5,86" fill="#F1F1F1"/><rect fill="none" height="158" rx="12.5" ry="12.5" style="stroke:#181818;stroke-width:0.5;" width="101.9961" x="7" y="86"/><line style="stroke:#181818;stroke-width:0.5;" x1="7" x2="108.9961" y1="112.2969" y2="112.2969"/><text fill="#000000" font-family="sans-serif" font-size="14" lengthAdjust="spacing" textLength="43.5518" x="57.998" y="103.9951">Active</text><g class="start_entity" data-qualified-name="Active..start.Active" data-source-line="4" id="ent0002"><ellipse cx="57.998" cy="122" fill="#222222" rx="10" ry="10" style="stroke:#222222;stroke-width:1;"/></g><g class="entity" data-qualified-name="Active.Running" id="ent0004"><rect fill="#F1F1F1" height="50" rx="12.5" ry="12.5" style="stroke:#181818;stroke-width:0.5;" width="77.9961" x="19" y="182"/><line style="stroke:#181818;stroke-width:0.5;" x1="19" x2="96.9961" y1="208.2969" y2="208.2969"/><text fill="#000000" font-family="sans-serif" font-size="14" lengthAdjust="spacing" textLength="57.9961" x="29" y="199.9951">Running</text></g><g class="entity" data-qualified-name="Inactive" id="ent0002"><rect fill="#F1F1F1" height="50" rx="12.5" ry="12.5" style="stroke:#181818;stroke-width:0.5;" width="75.5557" x="20" y="304"/><line style="stroke:#181818;stroke-width:0.5;" x1="20" x2="95.5557" y1="330.2969" y2="330.2969"/><text fill="#000000" font-family="sans-serif" font-size="14" lengthAdjust="spacing" textLength="55.5557" x="30" y="321.9951">Inactive</text></g><g class="start_entity" data-qualified-name=".start." data-source-line="1" id="ent0003"><ellipse cx="58" cy="16" fill="#222222" rx="10" ry="10" style="stroke:#222222;stroke-width:1;"/></g><g class="entity" data-qualified-name="GMN2" data-source-line="6" id="ent0005"><path d="M143.9961,152.4336 L143.9961,161 L108.9961,165 L143.9961,169 L143.9961,177.5664 L249.7246,177.5664 L249.7246,162.4336 L239.7246,152.4336 L143.9961,152.4336" fill="#FEFFDD" style="stroke:#181818;stroke-width:0.5;"/>
<path d="M239.7246,152.4336 L239.7246,162.4336 L249.7246,162.4336 L239.7246,152.4336" fill="#FEFFDD" style="stroke:#181818;stroke-width:1;"/>
<text fill="#000000" font-family="sans-serif" font-size="13" lengthAdjust="spacing" textLength="84.7285" x="149.9961" y="169.5005">This is active</text></g><g class="entity" data-qualified-name="GMN3" data-source-line="7" id="ent0006"><path d="M-95.3696,308.8672 L-95.3696,349.1328 L-15,349.1328 L-15,333 L20,329 L-15,325 L-15,318.8672 L-25,308.8672 L-95.3696,308.8672" fill="#FEFFDD" style="stroke:#181818;stroke-width:0.5;"/>
<path d="M-25,308.8672 L-25,318.8672 L-15,318.8672 L-25,308.8672" fill="#FEFFDD" style="stroke:#181818;stroke-width:1;"/>
<text fill="#000000" font-family="sans-serif" font-size="13" lengthAdjust="spacing" textLength="59.3696" x="-89.3696" y="325.9341">Multi line</text><text fill="#000000" font-family="sans-serif" font-size="13" lengthAdjust="spacing" textLength="59.3062" x="-89.3696" y="341.0669">note text</text></g><!--link *start* to Active--><g class="link" data-entity-1="ent0003" data-entity-2="ent0003" data-link-type="dependency" data-source-line="1" id="lnk3"><path d="M56,24.2 C56,36.58 56,53.83 56,77.76" fill="none" id="*start*-to-Active" style="stroke:#181818;stroke-width:1;"/><polygon fill="#181818" points="58,85.76,62,76.76,58,80.76,54,76.76,58,85.76" style="stroke:#181818;stroke-width:1;"/></g><!--link Active to Inactive--><g class="link" data-entity-1="ent0003" data-entity-2="ent0002" data-link-type="dependency" data-source-line="2" id="lnk4"><path d="M56,242.15 C56,263.84 56,279.79 56,295.8" fill="none" id="Active-to-Inactive" style="stroke:#181818;stroke-width:1;"/><polygon fill="#181818" points="58,303.8,62,294.8,58,298.8,54,294.8,58,303.8" style="stroke:#181818;stroke-width:1;"/></g><?plantuml-src FSmn2eHG30JGFgUOUi4BRB6mvHRRY9rOY4ODV29e546ykng_GY1aU9dyLI19FlXM9ZFJjJpvQNbbevN64M0b88y_wQGgsj96sXzYaBOpzCrDtyWw6N5CB78Lk77qr0F_APWWY9w78-F5YBNsQmS0?></g></svg>