<svg xmlns="http://www.w3.org/2000/svg" xmlns:xlink="http://www.w3.org/1999/xlink" contentStyleType="text/css" data-diagram-type="SEQUENCE" height="159px" preserveAspectRatio="none" style="width:200px;height:159px;background:#FFFFFF;" version="1.1" viewBox="0 0 200 159" width="200px" zoomAndPan="magnify"><?plantuml 1.2026.3beta5?><defs/><g><g><title>Alice</title><rect fill="#000000" fill-opacity="0.00000" height="76.2656" width="8" x="30.3335" y="41.2969"/><line style="stroke:#181818;stroke-width:0.5;stroke-dasharray:5,5;" x1="33.8335" x2="33.8335" y1="41.2969" y2="117.5625"/></g><g><title>Bob</title><rect fill="#000000" fill-opacity="0.00000" height="76.2656" width="8" x="165.6714" y="41.2969"/><line style="stroke:#181818;stroke-width:0.5;stroke-dasharray:5,5;" x1="169.1714" x2="169.1714" y1="41.2969" y2="117.5625"/></g><rect fill="#E2E2F0" height="30.2969" rx="2.5" ry="2.5" style="stroke:#181818;stroke-width:0.5;" width="47.667" x="10" y="10"/><text fill="#000000" font-family="sans-serif" font-size="14" lengthAdjust="spacing" textLength="33.667" x="17" y="29.9951">Alice</text><rect fill="#E2E2F0" height="30.2969" rx="2.5" ry="2.5" style="stroke:#181818;stroke-width:0.5;" width="41.0566" x="148.6431" y="10"/><text fill="#000000" font-family="sans-serif" font-size="14" lengthAdjust="spacing" textLength="27.0566" x="155.6431" y="29.9951">Bob</text><rect fill="#E2E2F0" height="30.2969" rx="2.5" ry="2.5" style="stroke:#181818;stroke-width:0.5;" width="47.667" x="10" y="117.5625"/><text fill="#000000" font-family="sans-serif" font-size="14" lengthAdjust="spacing" textLength="33.667" x="17" y="137.5576">Alice</text><rect fill="#E2E2F0" height="30.2969" rx="2.5" ry="2.5" style="stroke:#181818;stroke-width:0.5;" width="41.0566" x="148.6431" y="117.5625"/><text fill="#000000" font-family="sans-serif" font-size="14" lengthAdjust="spacing" textLength="27.0566" x="155.6431" y="137.5576">Bob</text><polygon fill="#181818" points="157.1714,66.4297,167.1714,70.4297,157.1714,70.4297" style="stroke:#181818;stroke-width:1;"/><line style="stroke:#181818;stroke-width:1;" x1="33.8335" x2="168.1714" y1="70.4297" y2="70.4297"/><text fill="#000000" font-family="sans-serif" font-size="13" lengthAdjust="spacing" textLength="85.6235" x="40.8335" y="65.3638">filled half top</text><polygon fill="#181818" points="157.1714,99.5625,167.1714,99.5625,157.1714,103.5625" style="stroke:#181818;stroke-width:1;"/><line style="stroke:#181818;stroke-width:1;" x1="33.8335" x2="168.1714" y1="99.5625" y2="99.5625"/><text fill="#000000" font-family="sans-serif" font-size="13" lengthAdjust="spacing" textLength="111.3379" x="40.8335" y="94.4966">filled half bottom</text><?plantuml-src PScn3O0m30J0FbCy0o1wEfY3nWa6B2NO2gPXUfGIqTvrLcal16TzuFNcO5HTaXYTZYbBOj05-l2iiM4CWT0lGCI8JNBc5GVb3QxMPlXFL7SjBm00?></g></svg>