<svg xmlns="http://www.w3.org/2000/svg" xmlns:xlink="http://www.w3.org/1999/xlink" contentStyleType="text/css" data-diagram-type="STATE" height="71px" preserveAspectRatio="none" style="width:208px;height:71px;background:#FFFFFF;" version="1.1" viewBox="0 0 208 71" width="208px" zoomAndPan="magnify"><?plantuml 1.2026.3beta5?><defs/><g><g class="entity" data-qualified-name="Active" id="__e0__"><rect fill="#F1F1F1" height="50" rx="12.5" ry="12.5" style="stroke:#181818;stroke-width:0.5;" width="63.5518" x="7" y="7"/><line style="stroke:#181818;stroke-width:0.5;" x1="7" x2="70.5518" y1="33.2969" y2="33.2969"/><text fill="#000000" font-family="sans-serif" font-size="14" lengthAdjust="spacing" textLength="43.5518" x="17" y="24.9951">Active</text></g><g class="entity" data-qualified-name="GMN2" id="__e1__"><path d="M106,19.5 L106,28 L71.09,32 L106,36 L106,44.6328 A0,0 0 0 0 106,44.6328 L193.8281,44.6328 A0,0 0 0 0 193.8281,44.6328 L193.8281,29.5 L183.8281,19.5 L106,19.5 A0,0 0 0 0 106,19.5" fill="#FEFFDD" style="stroke:#181818;stroke-width:0.5;"/><path d="M183.8281,19.5 L183.8281,29.5 L193.8281,29.5 L183.8281,19.5" fill="#FEFFDD" style="stroke:#181818;stroke-width:0.5;"/><text fill="#000000" font-family="sans-serif" font-size="13" lengthAdjust="spacing" textLength="66.8281" x="112" y="36.5669">short note</text></g></g></svg>