<svg xmlns="http://www.w3.org/2000/svg" xmlns:xlink="http://www.w3.org/1999/xlink" contentStyleType="text/css" data-diagram-type="STATE" height="368px" preserveAspectRatio="none" style="width:188px;height:368px;background:#FFFFFF;" version="1.1" viewBox="0 0 188 368" width="188px" zoomAndPan="magnify"><?plantuml 1.2026.3beta5?><defs/><g><rect fill="#555555" height="8" style="stroke:none;stroke-width:1;" width="80" x="50" y="86"/><rect fill="#555555" height="8" style="stroke:none;stroke-width:1;" width="80" x="50" y="264"/><g class="start_entity" data-qualified-name=".start." data-source-line="2" id="ent0002"><ellipse cx="90" cy="16" fill="#222222" rx="10" ry="10" style="stroke:#222222;stroke-width:1;"/></g><g class="entity" data-qualified-name="State1" id="ent0004"><rect fill="#F1F1F1" height="50" rx="12.5" ry="12.5" style="stroke:#181818;stroke-width:0.5;" width="65.9648" x="7" y="154"/><line style="stroke:#181818;stroke-width:0.5;" x1="7" x2="72.9648" y1="180.2969" y2="180.2969"/><text fill="#000000" font-family="sans-serif" font-size="14" lengthAdjust="spacing" textLength="45.9648" x="17" y="171.9951">State1</text></g><g class="entity" data-qualified-name="State2" id="ent0006"><rect fill="#F1F1F1" height="50" rx="12.5" ry="12.5" style="stroke:#181818;stroke-width:0.5;" width="65.9648" x="108" y="154"/><line style="stroke:#181818;stroke-width:0.5;" x1="108" x2="173.9648" y1="180.2969" y2="180.2969"/><text fill="#000000" font-family="sans-serif" font-size="14" lengthAdjust="spacing" textLength="45.9648" x="118" y="171.9951">State2</text></g><g class="end_entity" data-qualified-name=".end." data-source-line="8" id="ent0010"><ellipse cx="90" cy="343" fill="none" rx="11" ry="11" style="stroke:#222222;stroke-width:1;"/><ellipse cx="90" cy="343" fill="#222222" rx="6" ry="6" style="stroke:#222222;stroke-width:1;"/></g><!--link *start* to fork_state--><g class="link" data-entity-1="ent0002" data-entity-2="ent0002" data-link-type="dependency" data-source-line="2" id="lnk3"><path d="M90,26.12 C90,42.31 90,69.37 90,79.79" fill="none" id="*start*-to-fork_state" style="stroke:#181818;stroke-width:1;"/><polygon fill="#181818" points="90,85.79,94,76.79,90,80.79,86,76.79,90,85.79" style="stroke:#181818;stroke-width:1;"/></g><!--link fork_state to State1--><g class="link" data-entity-1="ent0002" data-entity-2="ent0004" data-link-type="dependency" data-source-line="3" id="lnk5"><path d="M88.1,94.3 C82.57,103.93 69.0893,127.3777 56.9593,148.4877" fill="none" id="fork_state-to-State1" style="stroke:#181818;stroke-width:1;"/><polygon fill="#181818" points="53.97,153.69,61.9222,147.8794,56.4611,149.3547,54.9857,143.8937,53.97,153.69" style="stroke:#181818;stroke-width:1;"/></g><!--link fork_state to State2--><g class="link" data-entity-1="ent0002" data-entity-2="ent0006" data-link-type="dependency" data-source-line="4" id="lnk7"><path d="M91.94,94.3 C97.58,103.93 111.3347,127.4044 123.7147,148.5144" fill="none" id="fork_state-to-State2" style="stroke:#181818;stroke-width:1;"/><polygon fill="#181818" points="126.75,153.69,125.6475,143.903,124.2206,149.377,118.7467,147.9501,126.75,153.69" style="stroke:#181818;stroke-width:1;"/></g><!--link State1 to join_state--><g class="link" data-entity-1="ent0004" data-entity-2="ent0003" data-link-type="dependency" data-source-line="6" id="lnk8"><path d="M53.93,204.23 C66.18,225.55 79.8876,249.4095 85.2676,258.7595" fill="none" id="State1-to-join_state" style="stroke:#181818;stroke-width:1;"/><polygon fill="#181818" points="88.26,263.96,87.2384,254.1643,85.7663,259.6262,80.3044,258.1541,88.26,263.96" style="stroke:#181818;stroke-width:1;"/></g><!--link State2 to join_state--><g class="link" data-entity-1="ent0006" data-entity-2="ent0003" data-link-type="dependency" data-source-line="7" id="lnk9"><path d="M126.79,204.23 C114.3,225.55 100.308,249.436 94.818,258.786" fill="none" id="State2-to-join_state" style="stroke:#181818;stroke-width:1;"/><polygon fill="#181818" points="91.78,263.96,99.7864,258.2243,94.3117,259.6483,92.8877,254.1736,91.78,263.96" style="stroke:#181818;stroke-width:1;"/></g><!--link join_state to *end*--><g class="link" data-entity-1="ent0003" data-entity-2="ent0010" data-link-type="dependency" data-source-line="8" id="lnk11"><path d="M90,272.14 C90,282.34 90,308.92 90,325.73" fill="none" id="join_state-to-*end*" style="stroke:#181818;stroke-width:1;"/><polygon fill="#181818" points="90,331.73,94,322.73,90,326.73,86,322.73,90,331.73" style="stroke:#181818;stroke-width:1;"/></g><?plantuml-src Aov9B4bLICiloeul1ZDjR40SEpkkQArO1LrTEoGvBYHb89bW4CiGgwWH5qGWApyp3sumY0Cq6A8Dh1OX3H4rGXT5qW-I0Re90000?></g></svg>