<svg xmlns="http://www.w3.org/2000/svg" xmlns:xlink="http://www.w3.org/1999/xlink" contentStyleType="text/css" data-diagram-type="STATE" height="71px" preserveAspectRatio="none" style="width:211px;height:71px;background:#FFFFFF;" version="1.1" viewBox="0 0 211 71" width="211px" zoomAndPan="magnify"><?plantuml 1.2026.3beta5?><defs/><g><g class="entity" data-qualified-name="Inactive" id="__e0__"><rect fill="#F1F1F1" height="50" rx="12.5" ry="12.5" style="stroke:#181818;stroke-width:0.5;" width="75.5557" x="121" y="7"/><line style="stroke:#181818;stroke-width:0.5;" x1="121" x2="196.5557" y1="33.2969" y2="33.2969"/><text fill="#000000" font-family="sans-serif" font-size="14" lengthAdjust="spacing" textLength="55.5557" x="131" y="24.9951">Inactive</text></g><g class="entity" data-qualified-name="GMN2" id="__e1__"><path d="M6,12 L6,52.2656 A0,0 0 0 0 6,52.2656 L86.3696,52.2656 A0,0 0 0 0 86.3696,52.2656 L86.3696,36 L120.88,32 L86.3696,28 L86.3696,22 L76.3696,12 L6,12 A0,0 0 0 0 6,12" fill="#FEFFDD" style="stroke:#181818;stroke-width:0.5;"/><path d="M76.3696,12 L76.3696,22 L86.3696,22 L76.3696,12" fill="#FEFFDD" style="stroke:#181818;stroke-width:0.5;"/><text fill="#000000" font-family="sans-serif" font-size="13" lengthAdjust="spacing" textLength="59.3696" x="12" y="29.0669">Multi line</text><text fill="#000000" font-family="sans-serif" font-size="13" lengthAdjust="spacing" textLength="59.3062" x="12" y="44.1997">note text</text></g></g></svg>