<svg xmlns="http://www.w3.org/2000/svg" xmlns:xlink="http://www.w3.org/1999/xlink" contentStyleType="text/css" data-diagram-type="SEQUENCE" height="135px" preserveAspectRatio="none" style="width:370px;height:135px;background:#FFFFFF;" version="1.1" viewBox="0 0 370 135" width="370px" zoomAndPan="magnify"><?plantuml 1.2026.3beta5?><defs/><g><g class="participant-lifeline" data-entity-uid="part1" data-qualified-name="Test" data-source-line="1" id="part1-lifeline"><g><title>Test</title><rect fill="#000000" fill-opacity="0.00000" height="62.1328" width="8" x="22.9741" y="36.2969"/><line style="stroke:#181818;stroke-width:0.5;stroke-dasharray:5,5;" x1="26" x2="26" y1="36.2969" y2="98.4297"/></g></g><g class="participant participant-head" data-entity-uid="part1" data-qualified-name="Test" data-source-line="1" id="part1-head"><rect fill="#E2E2F0" height="30.2969" rx="2.5" ry="2.5" style="stroke:#181818;stroke-width:0.5;" width="43.9482" x="5" y="5"/><text fill="#000000" font-family="sans-serif" font-size="14" lengthAdjust="spacing" textLength="29.9482" x="12" y="24.9951">Test</text></g><g class="participant participant-tail" data-entity-uid="part1" data-qualified-name="Test" data-source-line="1" id="part1-tail"><rect fill="#E2E2F0" height="30.2969" rx="2.5" ry="2.5" style="stroke:#181818;stroke-width:0.5;" width="43.9482" x="5" y="97.4297"/><text fill="#000000" font-family="sans-serif" font-size="14" lengthAdjust="spacing" textLength="29.9482" x="12" y="117.4248">Test</text></g><g class="message" data-entity-1="part1" data-entity-2="part1" data-source-line="1" id="msg1"><line style="stroke:#181818;stroke-width:1;stroke-dasharray:2,2;" x1="26.9741" x2="68.9741" y1="67.4297" y2="67.4297"/><line style="stroke:#181818;stroke-width:1;stroke-dasharray:2,2;" x1="68.9741" x2="68.9741" y1="67.4297" y2="80.4297"/><line style="stroke:#181818;stroke-width:1;stroke-dasharray:2,2;" x1="27.9741" x2="68.9741" y1="80.4297" y2="80.4297"/><polygon fill="#181818" points="37.9741,76.4297,27.9741,80.4297,37.9741,84.4297,33.9741,80.4297" style="stroke:#181818;stroke-width:1;"/><text fill="#000000" font-family="sans-serif" font-size="13" lengthAdjust="spacing" textLength="28.7295" x="33.9741" y="62.3638">Text</text></g><path d="M81,54.7969 L81,79.7969 L353,79.7969 L353,64.7969 L343,54.7969 L81,54.7969" fill="#FEFFDD" style="stroke:#181818;stroke-width:0.5;"/><path d="M343,54.7969 L343,64.7969 L353,64.7969 L343,54.7969" fill="#FEFFDD" style="stroke:#181818;stroke-width:0.5;"/><text fill="#000000" font-family="sans-serif" font-size="13" lengthAdjust="spacing" textLength="251.6846" x="87" y="71.8638">the location of the Comment is correct</text><?plantuml-src 7OYn3O0m30HxflW5iW053Ija0HGPOedOalC5usEbETrTbKcKSg2cxCcFcpa5eK_FmIvulLrKD_Yz-lGnn0YTQ1uXZJy0?></g></svg>