<svg xmlns="http://www.w3.org/2000/svg" xmlns:xlink="http://www.w3.org/1999/xlink" contentStyleType="text/css" data-diagram-type="SEQUENCE" height="349px" preserveAspectRatio="none" style="width:414px;height:349px;background:#FFFFFF;" version="1.1" viewBox="0 0 414 349" width="414px" zoomAndPan="magnify"><?plantuml 1.2026.3beta4?><defs><linearGradient x1="58.9717389%" y1="7.4114724%" x2="37.1905196%" y2="103.76182%" id="Azure-linearGradient-1">
            <stop stop-color="#114A8B" offset="0%"></stop>
            <stop stop-color="#0669BC" offset="100%"></stop>
        </linearGradient><linearGradient x1="59.7188447%" y1="52.3127289%" x2="52.6914332%" y2="54.8636556%" id="Azure-linearGradient-2">
            <stop stop-color="#000000" stop-opacity="0.3" offset="0%"></stop>
            <stop stop-color="#000000" stop-opacity="0.2" offset="7.1%"></stop>
            <stop stop-color="#000000" stop-opacity="0.1" offset="32.1%"></stop>
            <stop stop-color="#000000" stop-opacity="0.05" offset="62.3%"></stop>
            <stop stop-color="#000000" stop-opacity="0" offset="100%"></stop>
        </linearGradient><linearGradient x1="37.2789399%" y1="4.60005789%" x2="62.4733904%" y2="99.9794963%" id="Azure-linearGradient-3">
            <stop stop-color="#3CCBF4" offset="0%"></stop>
            <stop stop-color="#2892DF" offset="100%"></stop>
        </linearGradient></defs><g><g class="participant-lifeline" data-entity-uid="part1" data-qualified-name="Alice" id="part1-lifeline"><g><title>Alice</title><rect fill="#000000" fill-opacity="0.00000" height="276" width="8" x="24.8335" y="36.2969"/><line style="stroke:#181818;stroke-width:0.5;stroke-dasharray:5,5;" x1="28" x2="28" y1="36.2969" y2="312.2969"/></g></g><g class="participant-lifeline" data-entity-uid="part2" data-qualified-name="Bob" id="part2-lifeline"><g><title>Bob</title><rect fill="#000000" fill-opacity="0.00000" height="276" width="8" x="379.1899" y="36.2969"/><line style="stroke:#181818;stroke-width:0.5;stroke-dasharray:5,5;" x1="382.6616" x2="382.6616" y1="36.2969" y2="312.2969"/></g></g><g class="participant participant-head" data-entity-uid="part1" data-qualified-name="Alice" id="part1-head"><rect fill="#E2E2F0" height="30.2969" rx="2.5" ry="2.5" style="stroke:#181818;stroke-width:0.5;" width="47.667" x="5" y="5"/><text fill="#000000" font-family="sans-serif" font-size="14" lengthAdjust="spacing" textLength="33.667" x="12" y="24.9951">Alice</text></g><g class="participant participant-tail" data-entity-uid="part1" data-qualified-name="Alice" id="part1-tail"><rect fill="#E2E2F0" height="30.2969" rx="2.5" ry="2.5" style="stroke:#181818;stroke-width:0.5;" width="47.667" x="5" y="311.2969"/><text fill="#000000" font-family="sans-serif" font-size="14" lengthAdjust="spacing" textLength="33.667" x="12" y="331.292">Alice</text></g><g class="participant participant-head" data-entity-uid="part2" data-qualified-name="Bob" id="part2-head"><rect fill="#E2E2F0" height="30.2969" rx="2.5" ry="2.5" style="stroke:#181818;stroke-width:0.5;" width="41.0566" x="362.6616" y="5"/><text fill="#000000" font-family="sans-serif" font-size="14" lengthAdjust="spacing" textLength="27.0566" x="369.6616" y="24.9951">Bob</text></g><g class="participant participant-tail" data-entity-uid="part2" data-qualified-name="Bob" id="part2-tail"><rect fill="#E2E2F0" height="30.2969" rx="2.5" ry="2.5" style="stroke:#181818;stroke-width:0.5;" width="41.0566" x="362.6616" y="311.2969"/><text fill="#000000" font-family="sans-serif" font-size="14" lengthAdjust="spacing" textLength="27.0566" x="369.6616" y="331.292">Bob</text></g><g class="message" data-entity-1="part1" data-entity-2="part2" id="msg1"><polygon fill="#181818" points="371.1899,290.2969,381.1899,294.2969,371.1899,298.2969,375.1899,294.2969" style="stroke:#181818;stroke-width:1;"/><line style="stroke:#181818;stroke-width:1;" x1="28.8335" x2="377.1899" y1="294.2969" y2="294.2969"/><text fill="#000000" font-family="sans-serif" font-size="13" lengthAdjust="spacing" textLength="31.4146" x="35.8335" y="289.231">hello</text><path d="M156.7236,50.2998 L232.4763,50.2998 L153.8376,283.2979 C 152.1803,288.2071 147.5767,291.5138 142.3952,291.5138 L83.4409,291.5138 C 79.5567,291.5138 75.91,289.6436 73.6443,286.4886 C 71.3787,283.3335 70.7715,279.2803 72.0132,275.5998 L145.2784,58.5157 C 146.935,53.6042 151.5403,50.2969 156.7236,50.2969 L156.7236,50.2998 Z" fill="url(#Azure-linearGradient-1)"/><path d="M266.8032,206.5793 L146.6777,206.5793 C 144.3923,206.5768 142.3381,207.9732 141.4996,210.0993 C 140.6611,212.2254 141.2091,214.648 142.8811,216.2062 L220.071,288.2524 C 222.3183,290.3488 225.2775,291.5138 228.3509,291.5138 L296.3706,291.5138 L266.8032,206.5793 Z" fill="#0078D4"/><path d="M156.7236,50.2997 C 151.4786,50.2797 146.8302,53.6736 145.2522,58.6757 L72.1033,275.402 C 70.7777,279.0971 71.336,283.2063 73.5994,286.4138 C 75.8628,289.6212 79.5473,291.5244 83.4729,291.5138 L143.9488,291.5138 C 148.5344,290.6945 152.3244,287.4712 153.8696,283.0768 L168.4569,240.0859 L220.5626,288.6859 C 222.7462,290.492 225.4853,291.4907 228.3189,291.5138 L296.0855,291.5138 L266.3639,206.5793 L179.7217,206.5997 L232.7497,50.2997 L156.7236,50.2997 Z" fill="url(#Azure-linearGradient-2)"/><path d="M253.4786,58.504 C 251.8243,53.6005 247.2259,50.2998 242.0508,50.2998 L157.6255,50.2998 C 162.8002,50.2998 167.3982,53.6011 169.0533,58.504 L242.3214,275.5969 C 243.564,279.2781 242.9573,283.3324 240.6917,286.4886 C 238.4261,289.6448 234.7788,291.5167 230.8936,291.5167 L315.3218,291.5167 C 319.2065,291.5167 322.8529,289.6435 325.1179,286.4874 C 327.3828,283.3313 327.9891,279.2776 326.7467,275.5969 L253.4786,58.504 Z" fill="url(#Azure-linearGradient-3)"/><text fill="#000000" font-family="sans-serif" font-size="13" lengthAdjust="spacing" textLength="34.6772" x="331.5126" y="289.231">there</text></g><?plantuml-src hLV1RXj733tNNp7TD40BoAFXS3WS1f81Mq5wSIwzjJVLNjj25KkGb5Zfr-VDIh4anuw3909ix79dEUJZu-Fih_F5-FhTs2q_NC_7YsMxSClnsXqjvul9gdKNitVpQRlUtWsmoDrDBbStmoPAdgyRTzDEhczMk4sntdwOj7Tdi_Mm2IuuB76mmzekbfFPxR0XJurRlvlUBeVDpMerVzNltztT-JlsiyLrFuOG-jXYk-JLUZgv_U-nXMHc_Uvfu-QB5a5_Q4-Ny_PYzTTuDPaDc_NRoUNV-6jEZXn-WylsQhcvx6xnPZjU_BaONqxQsvLRqx2Huar9kTZBnds4GNqYIXeJxjTnsB1wiY1akIw0WG9xpLGYxYUNm-Rq__UBzlZGzJ4rkssxhPUhsTpLVySNi-biCMnUO9VJSjQusTNLiWMIuMLpCkZN9S--6dAsiz7kLGgFlJpe7mRr313cbKf9IRT0IFHCKME7J4K2XcoKcECM2Kc-PCuY-MjGnEUX2DslsHXdy_75PFKHW7Z-FdIUy1Pttb3J7_T7EtySVuR383kF6UZ_iCUVon1qGjHYR9zR9VcCNKNl6OAWap9RI5k6cA6xB5dchp64dsS8ZqPdRz9tqG44Zg_VV1yKW_vEGGRN9qU_u3UOZrSt3hcyBU8vSHJEFHGlH0k6ZedYpYcJ3oOMltXI095e92czo8nd0PhcHYLunOM43BDwen1pTfgXFPbJi5vCv2FbOkeKlYaL2sNVUaxHXnoaQDetZuedpKnwk3fvYTLp5kndI2Ehgei-PhPYKgEeUvDITgFZcWEXpoKHvqtSd77ly2G7Y8PeWAC8BIsSOd4mSonuObWU0HCW47FdohvO2MInLn1AAK79ZLGyN6UCZ1vZgR9gYWwGa9ZbPBtWzg46Y4y1_q_ZhYRJwR1vlvZ-_k9nPVwZ5h_My64voSId26VK8ya-beWz4BFuQ0fOqhvvX5G28H7UhaRvGd4Ql8agXxfOVTOSYrPhjxGmhEPB0ERYHjdWBMZAS072M2mIsC5Qy9Ab36loB4H2jUWIi5OCLl4rumH0mGE8Si0usl06DPBYHYI8Wn5IBNeL5ZAKbwJ2hyG7LAZH6-eNwO1ECIQFb60wPDcZ8DtZ3YNIyZez1V73mfK8dXUchW62bHWZzohT22rI98i3-YaX3i0CRYXeoaYmyWZJYYM1Hwob05q4XoP2QAQY6zeH4eyR0cTin9ABTZGju7FXIj-G4imn4zA4YWFNX73G21ZwAHVPD0AIBycDaa_85-7aJTSWTrQ73iCy5f9juqML8AwseqKfTW-s9GAReaSK2R7icqUAYIGfi7NrOgHGSkq0ImbIe5rnIHFdvAg2GD8GVnUnAXeMZarzq2oGanuLp7Bq7a86GSpZh1BHSU2Vnpa7QLM2aCVaBfIw3L5Ld7b0XGJC4eZO1KV61OJi2C8573h8f194Ay27Ph9KLK1CTWIfYXYmUPKFxSmGXBAHISPh8DCX7SwV9CetT7XykiDBx5WcLEK7sfEje0y9G8C6kExq1xXGxHPG3yg6wmSY0or5OmUS4RyGT-IRW2Iw__39o0Z7IXGgFrGiovNidUJMlLC4rwApAXtHKCZzGC_hpW2veqcdgfY-21-S0XioRnKOKaC84eAXUKFLgjSY0LQ82nD1Kmu4dZB8inNnRXgeeUmP0O53gDYclX3kxAf-2J46svxn73MkWM6BVVCe9eMMPRA3rO0VnmHy9EJFimTZ2rOSgrc5FuSMXD5oM5RnIlTvf8GUg5OC7gtDrUKSj7C1J79cfJrupXyl-ZVmY0zuDEXZ_W_gPyh9qT7fT7BHkkCJTpRxrxt2nz1qEdE3tmw-caxSwgPTj9y0?></g></svg>