<svg xmlns="http://www.w3.org/2000/svg" xmlns:xlink="http://www.w3.org/1999/xlink" contentStyleType="text/css" data-diagram-type="SEQUENCE" height="167px" preserveAspectRatio="none" style="width:278px;height:167px;background:#FFFFFF;" version="1.1" viewBox="0 0 278 167" width="278px" zoomAndPan="magnify"><?plantuml 1.2026.3beta4?><defs/><g><g class="participant-lifeline" data-entity-uid="part1" data-qualified-name="Alice" id="part1-lifeline"><g><title>Alice</title><rect fill="#000000" fill-opacity="0.00000" height="94" width="8" x="24.8335" y="36.2969"/><line style="stroke:#181818;stroke-width:0.5;stroke-dasharray:5,5;" x1="28" x2="28" y1="36.2969" y2="130.2969"/></g></g><g class="participant-lifeline" data-entity-uid="part2" data-qualified-name="Bob" id="part2-lifeline"><g><title>Bob</title><rect fill="#000000" fill-opacity="0.00000" height="94" width="8" x="243.1899" y="36.2969"/><line style="stroke:#181818;stroke-width:0.5;stroke-dasharray:5,5;" x1="246.6616" x2="246.6616" y1="36.2969" y2="130.2969"/></g></g><g class="participant participant-head" data-entity-uid="part1" data-qualified-name="Alice" id="part1-head"><rect fill="#E2E2F0" height="30.2969" rx="2.5" ry="2.5" style="stroke:#181818;stroke-width:0.5;" width="47.667" x="5" y="5"/><text fill="#000000" font-family="sans-serif" font-size="14" lengthAdjust="spacing" textLength="33.667" x="12" y="24.9951">Alice</text></g><g class="participant participant-tail" data-entity-uid="part1" data-qualified-name="Alice" id="part1-tail"><rect fill="#E2E2F0" height="30.2969" rx="2.5" ry="2.5" style="stroke:#181818;stroke-width:0.5;" width="47.667" x="5" y="129.2969"/><text fill="#000000" font-family="sans-serif" font-size="14" lengthAdjust="spacing" textLength="33.667" x="12" y="149.292">Alice</text></g><g class="participant participant-head" data-entity-uid="part2" data-qualified-name="Bob" id="part2-head"><rect fill="#E2E2F0" height="30.2969" rx="2.5" ry="2.5" style="stroke:#181818;stroke-width:0.5;" width="41.0566" x="226.6616" y="5"/><text fill="#000000" font-family="sans-serif" font-size="14" lengthAdjust="spacing" textLength="27.0566" x="233.6616" y="24.9951">Bob</text></g><g class="participant participant-tail" data-entity-uid="part2" data-qualified-name="Bob" id="part2-tail"><rect fill="#E2E2F0" height="30.2969" rx="2.5" ry="2.5" style="stroke:#181818;stroke-width:0.5;" width="41.0566" x="226.6616" y="129.2969"/><text fill="#000000" font-family="sans-serif" font-size="14" lengthAdjust="spacing" textLength="27.0566" x="233.6616" y="149.292">Bob</text></g><g class="message" data-entity-1="part1" data-entity-2="part2" id="msg1"><polygon fill="#181818" points="235.1899,108.2969,245.1899,112.2969,235.1899,116.2969,239.1899,112.2969" style="stroke:#181818;stroke-width:1;"/><line style="stroke:#181818;stroke-width:1;" x1="28.8335" x2="241.1899" y1="112.2969" y2="112.2969"/><text fill="#000000" font-family="sans-serif" font-size="13" lengthAdjust="spacing" textLength="31.4146" x="35.8335" y="107.231">hello</text><path d="M83.3803,74.2969 A12,12 0 0 1 95.3803,62.2969 A12,12 0 0 1 107.3803,74.2969 A12,12 0 0 1 95.3803,86.2969 A12,12 0 0 1 83.3803,74.2969 L83.3803,74.2969" fill="#FF6666"/><text fill="#333333" font-family="Verdana" font-size="12" lengthAdjust="spacing" textLength="16.9336" x="119.3803" y="78.2969">G1</text><path d="M79.3803,96.2969 L127.3803,96.2969" fill="none" style="stroke:#0066CC;stroke-width:4;"/><path d="M147.3803,92.2969 A20,8 0 0 1 167.3803,84.2969 A20,8 0 0 1 187.3803,92.2969 A20,8 0 0 1 167.3803,100.2969 A20,8 0 0 1 147.3803,92.2969 L147.3803,92.2969" fill="#66CC66"/><text fill="#000000" font-family="Verdana" font-size="10" lengthAdjust="spacing" textLength="14.1113" x="143.3803" y="114.2969">G2</text><text fill="#000000" font-family="sans-serif" font-size="13" lengthAdjust="spacing" textLength="34.6772" x="195.5126" y="107.231">there</text></g><?plantuml-src ZP9FJxGm4CRl-od6lkz1eqY13I4R854JlUZLUuLPQ2oqQQkWdzw1PKdMQ2ANeUtyUPvVvinOqNG2t7jZX7LemObnuuoL7g7IdL4uBgUSSk1Tud2hnu9nu13575BEOEnKxmhMUczsOJWCm_MGN6lRX37dFAGoLcu0yhCWW0Uhtmn4EwYahHJ29IZnWWg2O4vfGDO5QwQaY86tedTxRRk2pRzAU3pFhhABkH-bBqqgqXEb3AgFGxGKOWPxgLJ1_jtVf_InSAdnE7gWWYq9f_oOmbxtFjYBJYgwU4PRYruijqv-uact94bO-H3buTHdrXmsvURKNhm3vwr-nHgCy2sPTBB6GNmuGAMaSVY3t_XNlqcw6fxRKSKJmUVmkCqei6KOYUCyJU_kZXV186lVajEZ-5xtk3ugsMCbJC5eU5-lU8u29wPPTc0w8HqFg2mTinN6DEq7jEdsW3Rx2rg-TgDb8RJnDxJvj414-4R9YhYLSAjVO0Sj2TMG_p_PqH9yYnQ_0000?></g></svg>