<svg xmlns="http://www.w3.org/2000/svg" xmlns:xlink="http://www.w3.org/1999/xlink" contentStyleType="text/css" data-diagram-type="SEQUENCE" height="207px" preserveAspectRatio="none" style="width:311px;height:207px;background:#FFFFFF;" version="1.1" viewBox="0 0 311 207" width="311px" zoomAndPan="magnify"><?plantuml 1.2026.3beta4?><defs><linearGradient id="circleGrad" x1="0%" y1="0%" x2="100%" y2="0%">
      <stop offset="0%" stop-color="#4A90E2"/>
      <stop offset="100%" stop-color="#E24A90"/>
    </linearGradient></defs><g><g class="participant-lifeline" data-entity-uid="part1" data-qualified-name="Alice" id="part1-lifeline"><g><title>Alice</title><rect fill="#000000" fill-opacity="0.00000" height="134" width="8" x="24.8335" y="36.2969"/><line style="stroke:#181818;stroke-width:0.5;stroke-dasharray:5,5;" x1="28" x2="28" y1="36.2969" y2="170.2969"/></g></g><g class="participant-lifeline" data-entity-uid="part2" data-qualified-name="Bob" id="part2-lifeline"><g><title>Bob</title><rect fill="#000000" fill-opacity="0.00000" height="134" width="8" x="275.8183" y="36.2969"/><line style="stroke:#181818;stroke-width:0.5;stroke-dasharray:5,5;" x1="279.29" x2="279.29" y1="36.2969" y2="170.2969"/></g></g><g class="participant participant-head" data-entity-uid="part1" data-qualified-name="Alice" id="part1-head"><rect fill="#E2E2F0" height="30.2969" rx="2.5" ry="2.5" style="stroke:#181818;stroke-width:0.5;" width="47.667" x="5" y="5"/><text fill="#000000" font-family="sans-serif" font-size="14" lengthAdjust="spacing" textLength="33.667" x="12" y="24.9951">Alice</text></g><g class="participant participant-tail" data-entity-uid="part1" data-qualified-name="Alice" id="part1-tail"><rect fill="#E2E2F0" height="30.2969" rx="2.5" ry="2.5" style="stroke:#181818;stroke-width:0.5;" width="47.667" x="5" y="169.2969"/><text fill="#000000" font-family="sans-serif" font-size="14" lengthAdjust="spacing" textLength="33.667" x="12" y="189.292">Alice</text></g><g class="participant participant-head" data-entity-uid="part2" data-qualified-name="Bob" id="part2-head"><rect fill="#E2E2F0" height="30.2969" rx="2.5" ry="2.5" style="stroke:#181818;stroke-width:0.5;" width="41.0566" x="259.29" y="5"/><text fill="#000000" font-family="sans-serif" font-size="14" lengthAdjust="spacing" textLength="27.0566" x="266.29" y="24.9951">Bob</text></g><g class="participant participant-tail" data-entity-uid="part2" data-qualified-name="Bob" id="part2-tail"><rect fill="#E2E2F0" height="30.2969" rx="2.5" ry="2.5" style="stroke:#181818;stroke-width:0.5;" width="41.0566" x="259.29" y="169.2969"/><text fill="#000000" font-family="sans-serif" font-size="14" lengthAdjust="spacing" textLength="27.0566" x="266.29" y="189.292">Bob</text></g><g class="message" data-entity-1="part1" data-entity-2="part2" id="msg1"><polygon fill="#181818" points="267.8183,148.2969,277.8183,152.2969,267.8183,156.2969,271.8183,152.2969" style="stroke:#181818;stroke-width:1;"/><line style="stroke:#181818;stroke-width:1;" x1="28.8335" x2="273.8183" y1="152.2969" y2="152.2969"/><text fill="#000000" font-family="sans-serif" font-size="13" lengthAdjust="spacing" textLength="93.7549" x="35.8335" y="147.231">gradient circle</text><path d="M143.7207,100.2969 A40,40 0 0 1 183.7207,60.2969 A40,40 0 0 1 223.7207,100.2969 A40,40 0 0 1 183.7207,140.2969 A40,40 0 0 1 143.7207,100.2969 L143.7207,100.2969" fill="url(#circleGrad)"/><text fill="#000000" font-family="sans-serif" font-size="13" lengthAdjust="spacing" textLength="24.9653" x="237.853" y="147.231">test</text></g><?plantuml-src RL7TRi8W5BxlKnnnIxOB1Akxc2bDT35x3jRIbWnB0qpgddv0wuo9JPe39-VxEH-BmV3snC6Usu4RAmnOFcPsCD89Q0slfUZTXpIL4b248JXBuGzwP8W2XJLDFuBnf7hBKEVSi2F4Ux_ocvKsBSaffIJWK9a15BLeR3o4evAzuEPpLW1PCrGbcTWAXEkWy8pWCjSnPoWenKwUEXDD8B9E3w2RnWetZSO6hhJIXg7bTlzEZpaYZySdnZl0CO-GAw0WzpxJ5kIwHhmiC8R9E7ZfEkYqaR-wTrp11FrF4Hgf562SE6P85O9y2_bLbwa61zjGuYH3FqQzB6-Xl4QdHd-Bu7AJlci3UrcxZg6qPn7ZBhDihsGb09Tmq5-mkxcObOkd-zSjmGdh_W00?></g></svg>