<svg xmlns="http://www.w3.org/2000/svg" xmlns:xlink="http://www.w3.org/1999/xlink" contentStyleType="text/css" data-diagram-type="ACTIVITY" height="267px" preserveAspectRatio="none" style="width:417px;height:267px;background:#FFFFFF;" version="1.1" viewBox="0 0 417 267" width="417px" zoomAndPan="magnify"><?plantuml 1.2026.3beta4?><defs/><g><g class="title" data-source-line="4"><text fill="#000000" font-family="sans-serif" font-size="14" font-weight="700" lengthAdjust="spacing" textLength="153.7197" x="118.8887" y="22.9951">Transform Group Test</text></g><g transform="translate(0,36.2969)"><defs/><g><rect fill="#FFFFFF" height="33.9688" rx="12.5" ry="12.5" style="stroke:#181818;stroke-width:0.5;" width="371.5449" x="20.8135" y="16"/><text fill="#000000" font-family="sans-serif" font-size="12" lengthAdjust="spacing" textLength="351.5449" x="30.8135" y="37.1387">The blue circle and green square are in a translated group</text><rect fill="#FFFFFF" height="33.9688" rx="12.5" ry="12.5" style="stroke:#181818;stroke-width:0.5;" width="330.9922" x="41.0898" y="69.9688"/><text fill="#000000" font-family="sans-serif" font-size="12" lengthAdjust="spacing" textLength="310.9922" x="51.0898" y="91.1074">They should appear shifted 30 units right and down</text><rect fill="#FFFFFF" height="33.9688" rx="12.5" ry="12.5" style="stroke:#181818;stroke-width:0.5;" width="381.1719" x="16" y="123.9375"/><text fill="#000000" font-family="sans-serif" font-size="12" lengthAdjust="spacing" textLength="361.1719" x="26" y="145.0762">Red circle and orange square are untransformed references</text><rect fill="#FFFFFF" height="33.9688" rx="12.5" ry="12.5" style="stroke:#181818;stroke-width:0.5;" width="108.5293" x="152.3213" y="177.9063"/><text fill="#000000" font-family="sans-serif" font-size="12" lengthAdjust="spacing" textLength="0" x="162.3213" y="199.0449"></text><g transform="translate(162.3213,183.0449) scale(0.1600)"><svg xmlns="http://www.w3.org/2000/svg" viewBox="0 0 100 100" width="100" height="100">
  <g transform="translate(30, 30)">
    <circle cx="10" cy="10" r="8" fill="blue"/>
    <rect x="5" y="25" width="10" height="10" fill="green"/>
  </g>
  <circle cx="10" cy="10" r="8" fill="red" fill-opacity="0.3"/>
  <rect x="5" y="25" width="10" height="10" fill="orange" fill-opacity="0.3"/>
</svg></g>
<line style="stroke:#181818;stroke-width:1;" x1="206.5859" x2="206.5859" y1="49.9688" y2="69.9688"/><polygon fill="#181818" points="202.5859,59.9688,206.5859,69.9688,210.5859,59.9688,206.5859,63.9688" style="stroke:#181818;stroke-width:1;"/><line style="stroke:#181818;stroke-width:1;" x1="206.5859" x2="206.5859" y1="103.9375" y2="123.9375"/><polygon fill="#181818" points="202.5859,113.9375,206.5859,123.9375,210.5859,113.9375,206.5859,117.9375" style="stroke:#181818;stroke-width:1;"/><line style="stroke:#181818;stroke-width:1;" x1="206.5859" x2="206.5859" y1="157.9063" y2="177.9063"/><polygon fill="#181818" points="202.5859,167.9063,206.5859,177.9063,210.5859,167.9063,206.5859,171.9063" style="stroke:#181818;stroke-width:1;"/></g></g><?plantuml-src bLB1JkCm4BtdAsQjbNPNMXf3X8GWwG4Et55_m3XJsyArmzWXvU-PEANj1GaEbYVnUpDlPjwlWPJPAKXlPb2Ka22fVVLdWob39XNIDj8EOW13SHmIN83o7hHrlYSCa6mSVGykM2IN5z29LwKN5pYjsi6pqY_pQ-WVeey4atKPgpGm2-5tuPMQBGk1_Sw7r0cRyt1RrzCqhQPc5SdKLrBAcX42tXnEzt7V2GaIBcKv0YRNPzk94bjqnkRbOrq1jEOah1Cbz2hZtqR-XqR-AnX6QKVQ8-Zzp1IWtvUREd4ZOEkyxyIp7r7K1poXpi3WQm4ClRe-4t6kuPDh234ivBOsvVf6HS9-2I_YeBJB396hvf3cXmeYTsxmYtJjFDrrLMMNMTBcQ837ijXvGzNjnYBC8u23S1LwA6r1UXqLyGy-Be22uv3xnHbtXVp-wHer3AZOSDPjPqWZOGmk9w1PSadRnoamwObVpuej7PnN6yDnjGmbt2ARKsDYRdior_hk0m00?></g></svg>