<svg xmlns="http://www.w3.org/2000/svg" xmlns:xlink="http://www.w3.org/1999/xlink" contentStyleType="text/css" data-diagram-type="STATE" height="450px" preserveAspectRatio="none" style="width:240px;height:450px;background:#FFFFFF;" version="1.1" viewBox="0 0 240 450" width="240px" zoomAndPan="magnify"><?plantuml 1.2026.3beta5?><defs/><g><path d="M19.5,86 L213.8115,86 A12.5,12.5 0 0 1 226.3115,98.5 L226.3115,112.2969 L7,112.2969 L7,98.5 A12.5,12.5 0 0 1 19.5,86" fill="#F1F1F1"/><rect fill="none" height="158" rx="12.5" ry="12.5" style="stroke:#181818;stroke-width:0.5;" width="219.3115" x="7" y="86"/><line style="stroke:#181818;stroke-width:0.5;" x1="7" x2="226.3115" y1="112.2969" y2="112.2969"/><text fill="#000000" font-family="sans-serif" font-size="14" lengthAdjust="spacing" textLength="43.5518" x="94.8799" y="103.9951">Active</text><g class="start_entity" data-qualified-name="Active..start.Active" data-source-line="3" id="ent0002"><ellipse cx="116.6558" cy="122" fill="#222222" rx="10" ry="10" style="stroke:#222222;stroke-width:1;"/></g><g class="entity" data-qualified-name="Active.Idle" id="ent0005"><rect fill="#F1F1F1" height="50" rx="12.5" ry="12.5" style="stroke:#181818;stroke-width:0.5;" width="50" x="19" y="182"/><line style="stroke:#181818;stroke-width:0.5;" x1="19" x2="69" y1="208.2969" y2="208.2969"/><text fill="#000000" font-family="sans-serif" font-size="14" lengthAdjust="spacing" textLength="25.5186" x="31.2407" y="199.9951">Idle</text></g><g class="entity" data-qualified-name="Active.Processing" id="ent0006"><rect fill="#F1F1F1" height="50" rx="12.5" ry="12.5" style="stroke:#181818;stroke-width:0.5;" width="95.3115" x="119" y="182"/><line style="stroke:#181818;stroke-width:0.5;" x1="119" x2="214.3115" y1="208.2969" y2="208.2969"/><text fill="#000000" font-family="sans-serif" font-size="14" lengthAdjust="spacing" textLength="75.3115" x="129" y="199.9951">Processing</text></g><!--link *start*Active to Idle--><g class="link" data-link-type="dependency" data-source-line="3" id="lnk3"><path d="M116.5,244.15 C116.5,265.84 116.5,281.79 116.5,297.8" fill="none" id="*start*Active-to-Idle" style="stroke:#181818;stroke-width:1;"/><polygon fill="#181818" points="116.5,303.8,120.5,294.8,116.5,298.8,112.5,294.8,116.5,303.8" style="stroke:#181818;stroke-width:1;"/></g><!--link Idle to Processing--><g class="link" data-link-type="dependency" data-source-line="4" id="lnk4"><path d="M116.5,354.21 C116.5,373.57 116.5,393.75 116.5,407.9" fill="none" id="Idle-to-Processing" style="stroke:#181818;stroke-width:1;"/><polygon fill="#181818" points="116.5,413.9,120.5,404.9,116.5,408.9,112.5,404.9,116.5,413.9" style="stroke:#181818;stroke-width:1;"/></g><!--link Processing to Idle--><g class="link" data-link-type="dependency" data-source-line="5" id="lnk5"><path d="M119,207 L69,207 " fill="none" id="Processing-to-Idle" style="stroke:#181818;stroke-width:1;"/><polygon fill="#181818" points="69,207,78,211,74,207,78,203,69,207" style="stroke:#181818;stroke-width:1;"/></g><g class="entity" data-qualified-name="Paused" id="ent0003"><rect fill="#F1F1F1" height="50" rx="12.5" ry="12.5" style="stroke:#181818;stroke-width:0.5;" width="70.6885" x="81" y="304"/><line style="stroke:#181818;stroke-width:0.5;" x1="81" x2="151.6885" y1="330.2969" y2="330.2969"/><text fill="#000000" font-family="sans-serif" font-size="14" lengthAdjust="spacing" textLength="50.6885" x="91" y="321.9951">Paused</text></g><g class="start_entity" data-qualified-name=".start." data-source-line="1" id="ent0002"><ellipse cx="116.5" cy="16" fill="#222222" rx="10" ry="10" style="stroke:#222222;stroke-width:1;"/></g><circle cx="116.5" cy="425" fill="none" r="11" style="stroke:#181818;stroke-width:1.5;"/><text fill="#000000" font-family="sans-serif" font-size="13" font-weight="700" lengthAdjust="spacing" text-anchor="middle" textLength="10.8799" x="116.5" y="429.55">H</text><!--link *start* to Active--><g class="link" data-entity-1="ent0002" data-entity-2="ent0002" data-link-type="dependency" data-source-line="1" id="lnk6"><path d="M114.5,24.2 C114.5,36.58 114.5,53.83 114.5,77.76" fill="none" id="*start*-to-Active" style="stroke:#181818;stroke-width:1;"/><polygon fill="#181818" points="116.5,85.76,120.5,76.76,116.5,80.76,112.5,76.76,116.5,85.76" style="stroke:#181818;stroke-width:1;"/></g><!--link Active to Paused--><g class="link" data-entity-1="ent0002" data-entity-2="ent0003" data-link-type="dependency" data-source-line="7" id="lnk7"><path d="M116.6558,244 L116.3442,304 " fill="none" id="Active-to-Paused" style="stroke:#181818;stroke-width:1;"/><polygon fill="#181818" points="116.3442,304,120.3909,295.0209,116.3702,299.0001,112.391,294.9794,116.3442,304" style="stroke:#181818;stroke-width:1;"/></g><!--link Paused to Active[H]--><g class="link" data-entity-1="ent0003" data-entity-2="ent0004" data-link-type="dependency" data-source-line="8" id="lnk8"><path d="M116.3442,354 L116.5,414 " fill="none" id="Paused-to-Active[H]" style="stroke:#181818;stroke-width:1;"/><polygon fill="#181818" points="116.5,414,120.4766,404.9896,116.487,409,112.4766,405.0104,116.5,414" style="stroke:#181818;stroke-width:1;"/></g><?plantuml-src JOsn2e0m34JtV4LceRyWkEdcNZgKDaX154nq4V_TMWFjTBoxuyvs3etfSGYIBW8MBwI0Do1QpQUuKiPF2i_77eWvRKjsAzJk0xfIslvaYl1BysT7zm80?></g></svg>