<svg xmlns="http://www.w3.org/2000/svg" viewBox="0 0 540.4 392.0" width="540.4" height="392.0" font-family="monospace" font-size="13">
<defs>
<marker id="seq-arrow-filled" viewBox="0 0 10 10" refX="10" refY="5" markerWidth="8" markerHeight="8" orient="auto-start-reverse"><path d="M 0 0 L 10 5 L 0 10 Z" fill="#A80036" stroke="none"/></marker>
<marker id="seq-arrow-open" viewBox="0 0 10 10" refX="10" refY="5" markerWidth="8" markerHeight="8" orient="auto-start-reverse"><path d="M 0 0 L 10 5 L 0 10" fill="none" stroke="#A80036" stroke-width="1.2"/></marker>
</defs>
<line x1="50.4" y1="56.0" x2="50.4" y2="296.0" stroke="#A80036" stroke-width="1" stroke-dasharray="5,5"/>
<line x1="150.4" y1="56.0" x2="150.4" y2="296.0" stroke="#A80036" stroke-width="1" stroke-dasharray="5,5"/>
<line x1="250.4" y1="56.0" x2="250.4" y2="296.0" stroke="#A80036" stroke-width="1" stroke-dasharray="5,5"/>
<line x1="350.4" y1="56.0" x2="350.4" y2="296.0" stroke="#A80036" stroke-width="1" stroke-dasharray="5,5"/>
<line x1="450.4" y1="56.0" x2="450.4" y2="296.0" stroke="#A80036" stroke-width="1" stroke-dasharray="5,5"/>
<line x1="50.4" y1="76.0" x2="250.4" y2="76.0" stroke="#A80036" stroke-width="1" stroke-dasharray="7,5" marker-end="url(#seq-arrow-filled)"/>
<line x1="50.4" y1="116.0" x2="350.4" y2="116.0" stroke="#A80036" stroke-width="1" stroke-dasharray="7,5" marker-end="url(#seq-arrow-filled)"/>
<line x1="150.4" y1="156.0" x2="250.4" y2="156.0" stroke="#A80036" stroke-width="1" stroke-dasharray="7,5" marker-end="url(#seq-arrow-filled)"/>
<line x1="150.4" y1="196.0" x2="450.4" y2="196.0" stroke="#A80036" stroke-width="1" stroke-dasharray="7,5" marker-end="url(#seq-arrow-filled)"/>
<line x1="150.4" y1="236.0" x2="350.4" y2="236.0" stroke="#A80036" stroke-width="1" stroke-dasharray="7,5" marker-end="url(#seq-arrow-filled)"/>
<rect x="20.0" y="20.0" width="60.8" height="36.0" fill="#FEFECE" stroke="#A80036" stroke-width="1.5"/>
<text x="50.4" y="42.5" text-anchor="middle" font-weight="bold" fill="#000000">User</text>
<rect x="116.4" y="20.0" width="68.0" height="36.0" fill="#FEFECE" stroke="#A80036" stroke-width="1.5"/>
<text x="150.4" y="42.5" text-anchor="middle" font-weight="bold" fill="#000000">Admin</text>
<rect x="220.4" y="20.0" width="60.0" height="36.0" fill="#FEFECE" stroke="#A80036" stroke-width="1.5"/>
<text x="250.4" y="42.5" text-anchor="middle" font-weight="bold" fill="#000000">UC1</text>
<rect x="320.4" y="20.0" width="60.0" height="36.0" fill="#FEFECE" stroke="#A80036" stroke-width="1.5"/>
<text x="350.4" y="42.5" text-anchor="middle" font-weight="bold" fill="#000000">UC3</text>
<rect x="420.4" y="20.0" width="60.0" height="36.0" fill="#FEFECE" stroke="#A80036" stroke-width="1.5"/>
<text x="450.4" y="42.5" text-anchor="middle" font-weight="bold" fill="#000000">UC2</text>
<rect x="20.0" y="296.0" width="60.8" height="36.0" fill="#FEFECE" stroke="#A80036" stroke-width="1.5"/>
<text x="50.4" y="318.6" text-anchor="middle" font-weight="bold" fill="#000000">User</text>
<rect x="116.4" y="296.0" width="68.0" height="36.0" fill="#FEFECE" stroke="#A80036" stroke-width="1.5"/>
<text x="150.4" y="318.6" text-anchor="middle" font-weight="bold" fill="#000000">Admin</text>
<rect x="220.4" y="296.0" width="60.0" height="36.0" fill="#FEFECE" stroke="#A80036" stroke-width="1.5"/>
<text x="250.4" y="318.6" text-anchor="middle" font-weight="bold" fill="#000000">UC1</text>
<rect x="320.4" y="296.0" width="60.0" height="36.0" fill="#FEFECE" stroke="#A80036" stroke-width="1.5"/>
<text x="350.4" y="318.6" text-anchor="middle" font-weight="bold" fill="#000000">UC3</text>
<rect x="420.4" y="296.0" width="60.0" height="36.0" fill="#FEFECE" stroke="#A80036" stroke-width="1.5"/>
<text x="450.4" y="318.6" text-anchor="middle" font-weight="bold" fill="#000000">UC2</text>
</svg>
