<svg xmlns="http://www.w3.org/2000/svg" xmlns:xlink="http://www.w3.org/1999/xlink" contentStyleType="text/css" data-diagram-type="CHEN_EER" height="1171px" preserveAspectRatio="none" style="width:469px;height:1171px;background:#FFFFFF;" version="1.1" viewBox="0 0 469 1171" width="469px" zoomAndPan="magnify"><?plantuml 1.2026.3beta4?><defs/><g><rect fill="#F1F1F1" height="36.2969" style="stroke:#181818;stroke-width:0.5;" width="92.5566" x="7" y="750.5385"/><text fill="#000000" font-family="sans-serif" font-size="14" lengthAdjust="spacing" textLength="72.5566" x="17" y="773.5869">DIRECTOR</text><rect fill="#F1F1F1" height="36.2969" style="stroke:#181818;stroke-width:0.5;" width="99.1328" x="184.5566" y="372.3441"/><text fill="#000000" font-family="sans-serif" font-size="14" lengthAdjust="spacing" textLength="79.1328" x="194.5566" y="395.3926">CUSTOMER</text><rect fill="#F1F1F1" height="36.2969" style="stroke:#181818;stroke-width:0.5;" width="80" x="179.5566" y="750.5385"/><text fill="#000000" font-family="sans-serif" font-size="14" lengthAdjust="spacing" textLength="60" x="189.5566" y="773.5869">MOVIE</text><rect fill="#F1F1F1" height="36.2969" style="stroke:#181818;stroke-width:0.5;" width="80" x="12.2256" y="548.641"/><text fill="#000000" font-family="sans-serif" font-size="14" lengthAdjust="spacing" textLength="60" x="22.2256" y="571.6895">PARENT</text><rect fill="#F1F1F1" height="36.2969" style="stroke:#181818;stroke-width:0.5;" width="81.1816" x="193.5322" y="196.0472"/><text fill="#000000" font-family="sans-serif" font-size="14" lengthAdjust="spacing" textLength="61.1816" x="203.5322" y="219.0957">MEMBER</text><rect fill="#F1F1F1" height="36.2969" style="stroke:#181818;stroke-width:0.5;" width="80" x="194.123" y="951.3832"/><rect fill="#F1F1F1" height="30.2969" style="stroke:#181818;stroke-width:0.5;" width="74" x="197.123" y="954.3832"/><text fill="#000000" font-family="sans-serif" font-size="14" lengthAdjust="spacing" textLength="60" x="204.123" y="974.4316">CHILD</text><rect fill="#F1F1F1" height="36.2969" style="stroke:#181818;stroke-width:0.5;" width="87.5049" x="11.1177" y="1127.6801"/><text fill="#000000" font-family="sans-serif" font-size="14" lengthAdjust="spacing" textLength="67.5049" x="21.1177" y="1150.7285">TODDLER</text><rect fill="#F1F1F1" height="36.2969" style="stroke:#181818;stroke-width:0.5;" width="118.5059" x="178.6226" y="1127.6801"/><text fill="#000000" font-family="sans-serif" font-size="14" lengthAdjust="spacing" textLength="98.5059" x="188.6226" y="1150.7285">PRIMARY_AGE</text><rect fill="#F1F1F1" height="36.2969" style="stroke:#181818;stroke-width:0.5;" width="80" x="377.1284" y="1127.6801"/><text fill="#000000" font-family="sans-serif" font-size="14" lengthAdjust="spacing" textLength="60" x="387.1284" y="1150.7285">TEEN</text><rect fill="#F1F1F1" height="36.2969" style="stroke:#181818;stroke-width:0.5;" width="80" x="172.2256" y="548.641"/><text fill="#000000" font-family="sans-serif" font-size="14" lengthAdjust="spacing" textLength="60" x="182.2256" y="571.6895">PERSON</text><polygon fill="#F1F1F1" points="394.123,548.641,456.0205,579.5897,394.123,610.5385,332.2256,579.5897" style="stroke:#181818;stroke-width:0.5;"/><text fill="#000000" font-family="sans-serif" font-size="14" lengthAdjust="spacing" textLength="83.7949" x="352.2256" y="584.4897">RENTED_TO</text><polygon fill="#F1F1F1" points="400.4014,750.5385,461.2461,780.9608,400.4014,811.3832,339.5566,780.9608" style="stroke:#181818;stroke-width:0.5;"/><polygon fill="#F1F1F1" points="400.4014,754.5385,455.2461,780.9608,400.4014,807.3832,345.5566,780.9608" style="stroke:#181818;stroke-width:0.5;"/><text fill="#000000" font-family="sans-serif" font-size="14" lengthAdjust="spacing" textLength="81.6895" x="359.5566" y="785.8608">PARENT_OF</text><ellipse cx="-86.7217" cy="688.6869" fill="#F1F1F1" rx="38.1196" ry="14.5236" style="stroke:#181818;stroke-width:0.5;"/><text fill="#000000" font-family="sans-serif" font-size="14" lengthAdjust="spacing" text-decoration="underline" textLength="66.2393" x="-119.8413" y="693.5869">Number</text><ellipse cx="-16.7217" cy="688.6869" fill="#F1F1F1" rx="30.6514" ry="14.5236" style="stroke:#181818;stroke-width:0.5;"/><text fill="#000000" font-family="sans-serif" font-size="14" lengthAdjust="spacing" textLength="51.3027" x="-42.373" y="693.5869">Name</text><ellipse cx="-69.2217" cy="576.6869" fill="#F1F1F1" rx="33.8779" ry="14.5236" style="stroke:#181818;stroke-width:0.5;"/><text fill="#000000" font-family="sans-serif" font-size="14" lengthAdjust="spacing" textLength="57.7559" x="-98.0996" y="581.5869">Fname</text><path d="M-16.7217,674.1633 L-69.2217,591.2105 " fill="none" style="stroke:#181818;stroke-width:1;"/><ellipse cx="35.7783" cy="576.6869" fill="#F1F1F1" rx="33.7515" ry="14.5236" style="stroke:#181818;stroke-width:0.5;"/><text fill="#000000" font-family="sans-serif" font-size="14" lengthAdjust="spacing" textLength="57.5029" x="7.0269" y="581.5869">Lname</text><path d="M-16.7217,674.1633 L35.7783,591.2105 " fill="none" style="stroke:#181818;stroke-width:1;"/><ellipse cx="53.2783" cy="688.6869" fill="#F1F1F1" rx="52.0854" ry="14.5236" style="stroke:#181818;stroke-width:0.5;"/><text fill="#000000" font-family="sans-serif" font-size="14" lengthAdjust="spacing" textLength="94.1709" x="6.1929" y="693.5869">Born : DATE</text><text fill="#000000" font-family="sans-serif" font-size="12" font-style="italic" lengthAdjust="spacing" textLength="94.1709" x="6.1929" y="709.5869">DATE</text><ellipse cx="123.2783" cy="688.6869" fill="#F1F1F1" rx="26.085" ry="14.5236" style="stroke:#181818;stroke-width:0.5;"/><text fill="#000000" font-family="sans-serif" font-size="14" lengthAdjust="spacing" textLength="42.1699" x="102.1934" y="693.5869">Died</text><ellipse cx="193.2783" cy="688.6869" fill="#F1F1F1" rx="23.5386" ry="14.5236" style="stroke:#181818;stroke-width:0.5;"/><text fill="#000000" font-family="sans-serif" font-size="14" lengthAdjust="spacing" textLength="37.0771" x="174.7397" y="693.5869">Age</text><ellipse cx="164.123" cy="310.4926" fill="#F1F1F1" rx="38.1196" ry="14.5236" style="stroke:#181818;stroke-width:0.5;"/><text fill="#000000" font-family="sans-serif" font-size="14" lengthAdjust="spacing" text-decoration="underline" textLength="66.2393" x="131.0034" y="315.3926">Number</text><ellipse cx="234.123" cy="310.4926" fill="#F1F1F1" rx="31.605" ry="14.5236" style="stroke:#181818;stroke-width:0.5;stroke-dasharray:10,10;"/><text fill="#000000" font-family="sans-serif" font-size="14" lengthAdjust="spacing" textLength="53.21" x="207.5181" y="315.3926">Bonus</text><ellipse cx="304.123" cy="310.4926" fill="#F1F1F1" rx="30.6514" ry="14.5236" style="stroke:#181818;stroke-width:0.5;"/><ellipse cx="304.123" cy="310.4926" fill="#F1F1F1" rx="27.6514" ry="11.5236" style="stroke:#181818;stroke-width:0.5;"/><text fill="#000000" font-family="sans-serif" font-size="14" lengthAdjust="spacing" textLength="51.3027" x="278.4717" y="315.3926">Name</text><ellipse cx="219.5566" cy="688.6869" fill="#F1F1F1" rx="27.9204" ry="14.5236" style="stroke:#181818;stroke-width:0.5;"/><text fill="#000000" font-family="sans-serif" font-size="14" lengthAdjust="spacing" textLength="45.8408" x="196.6362" y="693.5869">Code</text><ellipse cx="234.123" cy="889.5316" fill="#F1F1F1" rx="30.6514" ry="14.5236" style="stroke:#181818;stroke-width:0.5;"/><text fill="#000000" font-family="sans-serif" font-size="14" lengthAdjust="spacing" text-decoration="underline" textLength="51.3027" x="208.4717" y="894.4316">Name</text><ellipse cx="54.8701" cy="1065.8285" fill="#F1F1F1" rx="51.3164" ry="14.5236" style="stroke:#181818;stroke-width:0.5;"/><text fill="#000000" font-family="sans-serif" font-size="14" lengthAdjust="spacing" textLength="92.6328" x="8.5537" y="1070.7285">FavoriteToy</text><ellipse cx="237.8755" cy="1065.8285" fill="#F1F1F1" rx="56.8911" ry="14.5236" style="stroke:#181818;stroke-width:0.5;"/><text fill="#000000" font-family="sans-serif" font-size="14" lengthAdjust="spacing" textLength="103.7822" x="185.9844" y="1070.7285">FavoriteColor</text><ellipse cx="417.1284" cy="1065.8285" fill="#F1F1F1" rx="32.5757" ry="14.5236" style="stroke:#181818;stroke-width:0.5;"/><text fill="#000000" font-family="sans-serif" font-size="14" lengthAdjust="spacing" textLength="55.1514" x="389.5527" y="1070.7285">Hobby</text><ellipse cx="394.123" cy="499.5897" fill="#F1F1F1" rx="26.731" ry="14.5236" style="stroke:#181818;stroke-width:0.5;"/><text fill="#000000" font-family="sans-serif" font-size="14" lengthAdjust="spacing" textLength="43.4619" x="372.3921" y="504.4897">Date</text><path d="M-86.7217,688.6869 L53.2783,768.6869 " fill="none" style="stroke:#181818;stroke-width:1;"/><path d="M-16.7217,688.6869 L53.2783,768.6869 " fill="none" style="stroke:#181818;stroke-width:1;"/><path d="M53.2783,688.6869 L53.2783,768.6869 " fill="none" style="stroke:#181818;stroke-width:1;"/><path d="M123.2783,688.6869 L53.2783,768.6869 " fill="none" style="stroke:#181818;stroke-width:1;"/><path d="M193.2783,688.6869 L53.2783,768.6869 " fill="none" style="stroke:#181818;stroke-width:1;"/><path d="M164.123,310.4926 L234.123,390.4926 " fill="none" style="stroke:#181818;stroke-width:1;"/><path d="M234.123,310.4926 L234.123,390.4926 " fill="none" style="stroke:#181818;stroke-width:1;"/><path d="M304.123,310.4926 L234.123,390.4926 " fill="none" style="stroke:#181818;stroke-width:1;"/><path d="M219.5566,688.6869 L219.5566,768.6869 " fill="none" style="stroke:#181818;stroke-width:1;"/><path d="M234.123,889.5316 L234.123,969.5316 " fill="none" style="stroke:#181818;stroke-width:1;"/><path d="M54.8701,1065.8285 L54.8701,1145.8285 " fill="none" style="stroke:#181818;stroke-width:1;"/><path d="M237.8755,1065.8285 L237.8755,1145.8285 " fill="none" style="stroke:#181818;stroke-width:1;"/><path d="M417.1284,1065.8285 L417.1284,1145.8285 " fill="none" style="stroke:#181818;stroke-width:1;"/><path d="M394.123,499.5897 L394.123,579.5897 " fill="none" style="stroke:#181818;stroke-width:1;"/><path d="M367.9365,548.641 L249.4789,408.641 " fill="none" style="stroke:#181818;stroke-width:1;"/><text fill="#000000" font-family="sans-serif" font-size="11" lengthAdjust="spacing" textLength="7" x="308.7077" y="472.641">1</text><path d="M365.5525,610.5385 L236.3105,750.5385 " fill="none" style="stroke:#181818;stroke-width:1;"/><text fill="#000000" font-family="sans-serif" font-size="11" lengthAdjust="spacing" textLength="7" x="300.9315" y="674.5385">N</text><path d="M338.3384,610.5385 L85.9906,750.5385 " fill="none" style="stroke:#181818;stroke-width:1;"/><text fill="#000000" font-family="sans-serif" font-size="11" lengthAdjust="spacing" textLength="35" x="212.1645" y="674.5385">(N,M)</text><path d="M215.3981,408.641 L70.9506,548.641 " fill="none" style="stroke:#181818;stroke-width:1;"/><text fill="#000000" font-family="sans-serif" font-size="11" lengthAdjust="spacing" textLength="28" x="143.1743" y="472.641">&gt;</text><path d="M234.123,232.3441 L234.123,372.3441 " fill="none" style="stroke:#181818;stroke-width:1;"/><text fill="#000000" font-family="sans-serif" font-size="11" lengthAdjust="spacing" textLength="28" x="234.123" y="296.3441">&lt;</text><path d="M350.9441,750.5385 L81.7293,584.9379 " fill="none" style="stroke:#181818;stroke-width:1;"/><text fill="#000000" font-family="sans-serif" font-size="11" lengthAdjust="spacing" textLength="7" x="216.3367" y="661.7382">1</text><path d="M372.4504,810.3911 L249.0009,950.3911 " fill="none" style="stroke:#181818;stroke-width:1;"/><path d="M374.7006,812.3753 L251.2511,952.3753 " fill="none" style="stroke:#181818;stroke-width:1;"/><polygon fill="#181818" points="250.126,951.3832,252.4169,942.7373,258.4173,948.0283"/><text fill="#000000" font-family="sans-serif" font-size="11" lengthAdjust="spacing" textLength="7" x="311.8508" y="875.3832">N</text><polygon fill="#F1F1F1" points="234.123,1025.6801,248.523,1049.6801,219.723,1049.6801" style="stroke:#181818;stroke-width:0.5;"/><text fill="#000000" font-family="sans-serif" font-size="14" lengthAdjust="spacing" textLength="7" x="230.623" y="1040.4801">d</text><path d="M234.123,1013.6801 L234.123,1025.6801 " fill="none" style="stroke:#181818;stroke-width:1;"/><path d="M234.123,1049.6801 L94.123,1091.6801 " fill="none" style="stroke:#181818;stroke-width:1;"/><path d="M234.123,1049.6801 L234.123,1091.6801 " fill="none" style="stroke:#181818;stroke-width:1;"/><path d="M234.123,1049.6801 L374.123,1091.6801 " fill="none" style="stroke:#181818;stroke-width:1;"/><polygon fill="#F1F1F1" points="212.2256,622.9379,226.6256,646.9379,197.8256,646.9379" style="stroke:#181818;stroke-width:0.5;"/><text fill="#000000" font-family="sans-serif" font-size="14" lengthAdjust="spacing" textLength="7" x="208.7256" y="637.7379">U</text><path d="M212.2256,610.9379 L212.2256,622.9379 " fill="none" style="stroke:#181818;stroke-width:1;"/><path d="M212.2256,646.9379 L142.2256,688.9379 " fill="none" style="stroke:#181818;stroke-width:1;"/><path d="M212.2256,646.9379 L282.2256,688.9379 " fill="none" style="stroke:#181818;stroke-width:1;"/><?plantuml-src RLDTRu8m57tdLpJnPKlaOQyR6b7gD14mY4lsP73SOIEqfXGNOlplAoqVTTa3uVRst7lEFMrdfKYu-3e1HGMx4YWje8A86ddh22_YC48t2w6WAex0aUESePvEcqHIWDf1Q4bbhA9D6ztbDsUSebVakJ6MAuz0Adzk1jRTwXWM-rqS-ZX2evna9t7CAtZB2ONN9lg7ji4LBOJnX6QWU6XLIaGAd5mX7SGvJb7bWiZ4mEY77skiEYzOggHmo1D162rFv88Y7CJOEyGX6bq8FMic3gcgy1AXAWQG_M8_p21dDpO3MzEPkQTWx3_RlRMzhgtRW2ID8HNxSnpfL4zYJ-qEErBYBXM_v62rODjv53G0UijNwuqdhVc1v2mDlGrcwOFzwuWcEuHBYI1fq-Ix9ZHJfH8xR3TUw9MHd0GJpTZpnw7dRR2-KylaoZWH4BFQc7iRhNqt-Zoux_W1jM0vumOknZXGW1Kx7bK3FTjaEa7om3gciTbmhAiCCXpjmg2THSUDnNjPt_au7Xx2tRo06GUWrWneshoTNm00?></g></svg>