<svg xmlns="http://www.w3.org/2000/svg" xmlns:xlink="http://www.w3.org/1999/xlink" contentStyleType="text/css" data-diagram-type="STATE" height="260px" preserveAspectRatio="none" style="width:72px;height:260px;background:#FFFFFF;" version="1.1" viewBox="0 0 72 260" width="72px" zoomAndPan="magnify"><?plantuml 1.2026.3beta5?><defs/><g><g class="entity" data-qualified-name="A" id="__e0__"><rect fill="#F1F1F1" height="78.2031" rx="12.5" ry="12.5" style="stroke:#181818;stroke-width:0.5;" width="50" x="7" y="86"/><line style="stroke:#181818;stroke-width:0.5;" x1="7" x2="57" y1="112.2969" y2="112.2969"/><text fill="#000000" font-family="sans-serif" font-size="14" lengthAdjust="spacing" textLength="9.5771" x="27.2114" y="103.9951">A</text><text fill="#000000" font-family="sans-serif" font-size="12" lengthAdjust="spacing" textLength="29.291" x="12" y="128.4355">line1</text><text fill="#000000" font-family="sans-serif" font-size="12" lengthAdjust="spacing" textLength="29.291" x="12" y="142.4043">line2</text><text fill="#000000" font-family="sans-serif" font-size="12" lengthAdjust="spacing" textLength="29.291" x="12" y="156.373">line3</text></g><g class="start_entity" data-qualified-name=".start." id="__e0__"><ellipse cx="32" cy="16" fill="#222222" rx="10" ry="10" style="stroke:#222222;stroke-width:1;"/></g><g class="end_entity" data-qualified-name=".end." id="__e1__"><ellipse cx="32" cy="235" fill="none" rx="11" ry="11" style="stroke:#222222;stroke-width:1;"/><ellipse cx="32" cy="235" fill="#222222" rx="6" ry="6" style="stroke:#222222;stroke-width:1;"/></g><!--link *start* to A--><g class="link" data-entity-1="__e0__" data-entity-2="__e0__" data-link-type="dependency" id="__l0__"><path d="M32,26.12 C32,39.26 32,58.3 32,79.76" fill="none" id="*start*-to-A" style="stroke:#181818;stroke-width:1;"/><polygon fill="#181818" points="32,85.76,36,76.76,32,80.76,28,76.76,32,85.76" style="stroke:#181818;stroke-width:1;"/></g><!--link A to *end*--><g class="link" data-entity-1="__e0__" data-entity-2="__e1__" data-link-type="dependency" id="__l1__"><path d="M32,164.08 C32,185.21 32,203.92 32,217.58" fill="none" id="A-to-*end*" style="stroke:#181818;stroke-width:1;"/><polygon fill="#181818" points="32,223.58,36,214.58,32,218.58,28,214.58,32,223.58" style="stroke:#181818;stroke-width:1;"/></g></g></svg>