<svg xmlns="http://www.w3.org/2000/svg" xmlns:xlink="http://www.w3.org/1999/xlink" contentStyleType="text/css" data-diagram-type="CLASS" height="338px" preserveAspectRatio="none" style="width:217px;height:338px;background:#FFFFFF;" version="1.1" viewBox="0 0 217 338" width="217px" zoomAndPan="magnify"><?plantuml 1.2026.3beta4?><defs/><g><g class="header" data-source-line="1"><text fill="#888888" font-family="sans-serif" font-size="10" lengthAdjust="spacing" textLength="56.5576" x="154.7519" y="9.2822">Page 1 of 2</text></g><g class="title" data-source-line="2"><text fill="#000000" font-family="sans-serif" font-size="14" font-weight="700" lengthAdjust="spacing" textLength="107.1943" x="45.7344" y="34.6357">Class Overview</text></g><g transform="translate(37.1548,47.9375)"><defs/><g><!--class Foo--><g class="entity" data-qualified-name="Foo" data-source-line="5" id="ent0002"><rect fill="#F1F1F1" height="64.2969" rx="2.5" ry="2.5" style="stroke:#181818;stroke-width:0.5;" width="121.1016" x="7" y="7"/><ellipse cx="50.7631" cy="23" fill="#ADD1B2" rx="11" ry="11" style="stroke:#181818;stroke-width:1;"/><path d="M53.7318,28.6406 Q53.1537,28.9375 52.5131,29.0781 Q51.8725,29.2344 51.1693,29.2344 Q48.6693,29.2344 47.3412,27.5938 Q46.0287,25.9375 46.0287,22.8125 Q46.0287,19.6875 47.3412,18.0313 Q48.6693,16.375 51.1693,16.375 Q51.8725,16.375 52.5131,16.5313 Q53.1693,16.6875 53.7318,16.9844 L53.7318,19.7031 Q53.1068,19.125 52.5131,18.8594 Q51.9193,18.5781 51.2943,18.5781 Q49.9506,18.5781 49.2631,19.6563 Q48.5756,20.7188 48.5756,22.8125 Q48.5756,24.9063 49.2631,25.9844 Q49.9506,27.0469 51.2943,27.0469 Q51.9193,27.0469 52.5131,26.7813 Q53.1068,26.5 53.7318,25.9219 L53.7318,28.6406 Z " fill="#000000"/><text fill="#000000" font-family="sans-serif" font-size="14" lengthAdjust="spacing" textLength="25.1836" x="71.1549" y="27.8467">Foo</text><line style="stroke:#181818;stroke-width:0.5;" x1="8" x2="127.1016" y1="39" y2="39"/><g data-visibility-modifier="PUBLIC_FIELD"><ellipse cx="18" cy="52.6484" fill="none" rx="3" ry="3" style="stroke:#038048;stroke-width:1;"/></g><text fill="#000000" font-family="sans-serif" font-size="14" lengthAdjust="spacing" textLength="95.1016" x="27" y="55.9951">name : String</text><line style="stroke:#181818;stroke-width:0.5;" x1="8" x2="127.1016" y1="63.2969" y2="63.2969"/></g><!--class Bar--><g class="entity" data-qualified-name="Bar" data-source-line="8" id="ent0003"><rect fill="#F1F1F1" height="64.2969" rx="2.5" ry="2.5" style="stroke:#181818;stroke-width:0.5;" width="70.6455" x="32" y="131"/><ellipse cx="53.6177" cy="147" fill="#ADD1B2" rx="11" ry="11" style="stroke:#181818;stroke-width:1;"/><path d="M56.5865,152.6406 Q56.0083,152.9375 55.3677,153.0781 Q54.7271,153.2344 54.024,153.2344 Q51.524,153.2344 50.1958,151.5938 Q48.8833,149.9375 48.8833,146.8125 Q48.8833,143.6875 50.1958,142.0313 Q51.524,140.375 54.024,140.375 Q54.7271,140.375 55.3677,140.5313 Q56.024,140.6875 56.5865,140.9844 L56.5865,143.7031 Q55.9615,143.125 55.3677,142.8594 Q54.774,142.5781 54.149,142.5781 Q52.8052,142.5781 52.1177,143.6563 Q51.4302,144.7188 51.4302,146.8125 Q51.4302,148.9063 52.1177,149.9844 Q52.8052,151.0469 54.149,151.0469 Q54.774,151.0469 55.3677,150.7813 Q55.9615,150.5 56.5865,149.9219 L56.5865,152.6406 Z " fill="#000000"/><text fill="#000000" font-family="sans-serif" font-size="14" lengthAdjust="spacing" textLength="23.9395" x="69.0883" y="151.8467">Bar</text><line style="stroke:#181818;stroke-width:0.5;" x1="33" x2="101.6455" y1="163" y2="163"/><g data-visibility-modifier="PUBLIC_FIELD"><ellipse cx="43" cy="176.6484" fill="none" rx="3" ry="3" style="stroke:#038048;stroke-width:1;"/></g><text fill="#000000" font-family="sans-serif" font-size="14" lengthAdjust="spacing" textLength="44.6455" x="52" y="179.9951">id : int</text><line style="stroke:#181818;stroke-width:0.5;" x1="33" x2="101.6455" y1="187.2969" y2="187.2969"/></g><!--link Foo to Bar--><g class="link" data-entity-1="ent0002" data-entity-2="ent0003" data-link-type="dependency" data-source-line="11" id="lnk4"><path codeLine="11" d="M67.5,71.1 C67.5,89.46 67.5,106.61 67.5,124.96" fill="none" id="Foo-to-Bar" style="stroke:#181818;stroke-width:1;"/><polygon fill="#181818" points="67.5,130.96,71.5,121.96,67.5,125.96,63.5,121.96,67.5,130.96" style="stroke:#181818;stroke-width:1;"/></g></g></g><g class="legend" data-source-line="15"><rect fill="#DDDDDD" height="26.2969" rx="7.5" ry="7.5" style="stroke:#000000;stroke-width:1;" width="149.9658" x="30.6719" y="263.9375"/><text fill="#000000" font-family="sans-serif" font-size="14" lengthAdjust="spacing" textLength="139.9658" x="35.6719" y="281.9326">Foo depends on Bar</text></g><g class="caption" data-source-line="3"><text fill="#000000" font-family="sans-serif" font-size="14" lengthAdjust="spacing" textLength="209.3096" x="1" y="316.2295">Figure 1. System Architecture</text></g><g class="footer" data-source-line="13"><text fill="#888888" font-family="sans-serif" font-size="10" lengthAdjust="spacing" textLength="118.3887" x="46.4604" y="329.8135">Generated by PlantUML</text></g><?plantuml-src BOx12i8m44Jl-nLpbmfwz22eK2-AXU87n6RR1jgaf6kbYF_kndhRdJSFfcLZEQ8m3ME3K6DBugHZd3epZhXD72V7BwhC82vuvAvvHgskKSwZS8z3h5edN8d6HDNFoaF0cu2LDprZXrAYymrz_lXeueATLUYyA4bAbkqJ8wf341rrPi_H25iyPXITyNA_NeWwRjXRzPDZUT1dX4vBgjvO-1S0?></g></svg>