<svg xmlns="http://www.w3.org/2000/svg" xmlns:xlink="http://www.w3.org/1999/xlink" contentStyleType="text/css" data-diagram-type="SEQUENCE" height="204px" preserveAspectRatio="none" style="width:323px;height:204px;background:#FFFFFF;" version="1.1" viewBox="0 0 323 204" width="323px" zoomAndPan="magnify"><?plantuml 1.2026.3beta5?><defs/><g><g><title>A</title><rect fill="#000000" fill-opacity="0.00000" height="121.3984" width="8" x="25.5" y="41.2969"/><line style="stroke:#181818;stroke-width:0.5;stroke-dasharray:5,5;" x1="29" x2="29" y1="41.2969" y2="162.6953"/></g><g><title>B</title><rect fill="#000000" fill-opacity="0.00000" height="121.3984" width="8" x="107.9238" y="41.2969"/><line style="stroke:#181818;stroke-width:0.5;stroke-dasharray:5,5;" x1="111.4238" x2="111.4238" y1="41.2969" y2="162.6953"/></g><g><title>C</title><rect fill="#000000" fill-opacity="0.00000" height="121.3984" width="8" x="201.7354" y="41.2969"/><line style="stroke:#181818;stroke-width:0.5;stroke-dasharray:5,5;" x1="205.2354" x2="205.2354" y1="41.2969" y2="162.6953"/></g><g><title>D</title><rect fill="#000000" fill-opacity="0.00000" height="121.3984" width="8" x="284.1592" y="41.2969"/><line style="stroke:#181818;stroke-width:0.5;stroke-dasharray:5,5;" x1="287.6592" x2="287.6592" y1="41.2969" y2="162.6953"/></g><rect fill="#E2E2F0" height="30.2969" rx="2.5" ry="2.5" style="stroke:#181818;stroke-width:0.5;" width="23.5771" x="17.2114" y="10"/><text fill="#000000" font-family="sans-serif" font-size="14" lengthAdjust="spacing" textLength="9.5771" x="24.2114" y="29.9951">A</text><rect fill="#E2E2F0" height="30.2969" rx="2.5" ry="2.5" style="stroke:#181818;stroke-width:0.5;" width="23.6045" x="99.6216" y="10"/><text fill="#000000" font-family="sans-serif" font-size="14" lengthAdjust="spacing" textLength="9.6045" x="106.6216" y="29.9951">B</text><rect fill="#E2E2F0" height="30.2969" rx="2.5" ry="2.5" style="stroke:#181818;stroke-width:0.5;" width="23.7754" x="193.3477" y="10"/><text fill="#000000" font-family="sans-serif" font-size="14" lengthAdjust="spacing" textLength="9.7754" x="200.3477" y="29.9951">C</text><rect fill="#E2E2F0" height="30.2969" rx="2.5" ry="2.5" style="stroke:#181818;stroke-width:0.5;" width="24.7803" x="275.269" y="10"/><text fill="#000000" font-family="sans-serif" font-size="14" lengthAdjust="spacing" textLength="10.7803" x="282.269" y="29.9951">D</text><rect fill="#E2E2F0" height="30.2969" rx="2.5" ry="2.5" style="stroke:#181818;stroke-width:0.5;" width="23.5771" x="17.2114" y="162.6953"/><text fill="#000000" font-family="sans-serif" font-size="14" lengthAdjust="spacing" textLength="9.5771" x="24.2114" y="182.6904">A</text><rect fill="#E2E2F0" height="30.2969" rx="2.5" ry="2.5" style="stroke:#181818;stroke-width:0.5;" width="23.6045" x="99.6216" y="162.6953"/><text fill="#000000" font-family="sans-serif" font-size="14" lengthAdjust="spacing" textLength="9.6045" x="106.6216" y="182.6904">B</text><rect fill="#E2E2F0" height="30.2969" rx="2.5" ry="2.5" style="stroke:#181818;stroke-width:0.5;" width="23.7754" x="193.3477" y="162.6953"/><text fill="#000000" font-family="sans-serif" font-size="14" lengthAdjust="spacing" textLength="9.7754" x="200.3477" y="182.6904">C</text><rect fill="#E2E2F0" height="30.2969" rx="2.5" ry="2.5" style="stroke:#181818;stroke-width:0.5;" width="24.7803" x="275.269" y="162.6953"/><text fill="#000000" font-family="sans-serif" font-size="14" lengthAdjust="spacing" textLength="10.7803" x="282.269" y="182.6904">D</text><path d="M13,53.2969 L82.4512,53.2969 L82.4512,60.4297 L72.4512,70.4297 L13,70.4297 L13,53.2969" fill="#EEEEEE" style="stroke:#000000;stroke-width:1.5;"/><rect fill="none" height="56.2656" style="stroke:#000000;stroke-width:1.5;" width="114.4238" x="13" y="53.2969"/><text fill="#000000" font-family="sans-serif" font-size="13" font-weight="700" lengthAdjust="spacing" textLength="24.4512" x="28" y="66.3638">opt</text><polygon fill="#181818" points="99.4238,97.5625,109.4238,101.5625,99.4238,105.5625,103.4238,101.5625" style="stroke:#181818;stroke-width:1;"/><line style="stroke:#181818;stroke-width:1;" x1="29" x2="105.4238" y1="101.5625" y2="101.5625"/><text fill="#000000" font-family="sans-serif" font-size="13" lengthAdjust="spacing" textLength="58.4238" x="36" y="96.4966">message</text><path d="M189.2354,53.2969 L258.6865,53.2969 L258.6865,60.4297 L248.6865,70.4297 L189.2354,70.4297 L189.2354,53.2969" fill="#EEEEEE" style="stroke:#000000;stroke-width:1.5;"/><rect fill="none" height="56.2656" style="stroke:#000000;stroke-width:1.5;" width="114.4238" x="189.2354" y="53.2969"/><text fill="#000000" font-family="sans-serif" font-size="13" font-weight="700" lengthAdjust="spacing" textLength="24.4512" x="204.2354" y="66.3638">opt</text><polygon fill="#181818" points="275.6592,97.5625,285.6592,101.5625,275.6592,105.5625,279.6592,101.5625" style="stroke:#181818;stroke-width:1;"/><line style="stroke:#181818;stroke-width:1;" x1="205.2354" x2="281.6592" y1="101.5625" y2="101.5625"/><text fill="#000000" font-family="sans-serif" font-size="13" lengthAdjust="spacing" textLength="58.4238" x="212.2354" y="96.4966">message</text></g></svg>