<svg xmlns="http://www.w3.org/2000/svg" xmlns:xlink="http://www.w3.org/1999/xlink" contentStyleType="text/css" data-diagram-type="STATE" height="630px" preserveAspectRatio="none" style="width:113px;height:630px;background:#FFFFFF;" version="1.1" viewBox="0 0 113 630" width="113px" zoomAndPan="magnify"><?plantuml 1.2026.3beta5?><defs/><g><path d="M19.5,86 L86.0537,86 A12.5,12.5 0 0 1 98.5537,98.5 L98.5537,112.2969 L7,112.2969 L7,98.5 A12.5,12.5 0 0 1 19.5,86" fill="#F1F1F1"/><rect fill="none" height="448.2969" rx="12.5" ry="12.5" style="stroke:#181818;stroke-width:0.5;" width="91.5537" x="7" y="86"/><line style="stroke:#181818;stroke-width:0.5;" x1="7" x2="98.5537" y1="112.2969" y2="112.2969"/><text fill="#000000" font-family="sans-serif" font-size="14" lengthAdjust="spacing" textLength="43.5518" x="31.001" y="103.9951">Active</text><g class="start_entity" data-qualified-name="Active..start.Active" id="__e0__"><ellipse cx="47" cy="133.2969" fill="#222222" rx="10" ry="10" style="stroke:#222222;stroke-width:1;"/></g><g class="entity" data-qualified-name="Active.Sub1" id="__e1__"><rect fill="#F1F1F1" height="50" rx="12.5" ry="12.5" style="stroke:#181818;stroke-width:0.5;" width="55.5537" x="19" y="179.2969"/><line style="stroke:#181818;stroke-width:0.5;" x1="19" x2="74.5537" y1="205.5938" y2="205.5938"/><text fill="#000000" font-family="sans-serif" font-size="14" lengthAdjust="spacing" textLength="35.5537" x="29" y="197.292">Sub1</text></g><g class="entity" data-qualified-name="Active.Sub2" id="__e2__"><rect fill="#F1F1F1" height="50" rx="12.5" ry="12.5" style="stroke:#181818;stroke-width:0.5;" width="55.5537" x="19" y="265.2969"/><line style="stroke:#181818;stroke-width:0.5;" x1="19" x2="74.5537" y1="291.5938" y2="291.5938"/><text fill="#000000" font-family="sans-serif" font-size="14" lengthAdjust="spacing" textLength="35.5537" x="29" y="283.292">Sub2</text></g><!--link *start*Active to Sub1--><g class="link" data-entity-1="__e0__" data-entity-2="__e1__" data-link-type="dependency" id="__l0__"><path d="M47,143.3169 C47,152.3769 47,160.7369 47,173.1269" fill="none" id="*start*Active-to-Sub1" style="stroke:#181818;stroke-width:1;"/><polygon fill="#181818" points="47,179.1269,51,170.1269,47,174.1269,43,170.1269,47,179.1269" style="stroke:#181818;stroke-width:1;"/></g><!--link Sub1 to Sub2--><g class="link" data-entity-1="__e1__" data-entity-2="__e2__" data-link-type="dependency" id="__l1__"><path d="M47,229.5969 C47,240.7369 47,247.9169 47,259.0569" fill="none" id="Sub1-to-Sub2" style="stroke:#181818;stroke-width:1;"/><polygon fill="#181818" points="47,265.0569,51,256.0569,47,260.0569,43,256.0569,47,265.0569" style="stroke:#181818;stroke-width:1;"/></g><line style="stroke:#181818;stroke-width:1.5;stroke-dasharray:8,10;" x1="12" x2="91.5537" y1="323.2969" y2="323.2969"/><g class="start_entity" data-qualified-name="Active.CONC2..start.CONC2" id="__e3__"><ellipse cx="47" cy="339.2969" fill="#222222" rx="10" ry="10" style="stroke:#222222;stroke-width:1;"/></g><g class="entity" data-qualified-name="Active.CONC2.Sub3" id="__e4__"><rect fill="#F1F1F1" height="50" rx="12.5" ry="12.5" style="stroke:#181818;stroke-width:0.5;" width="55.5537" x="19" y="385.2969"/><line style="stroke:#181818;stroke-width:0.5;" x1="19" x2="74.5537" y1="411.5938" y2="411.5938"/><text fill="#000000" font-family="sans-serif" font-size="14" lengthAdjust="spacing" textLength="35.5537" x="29" y="403.292">Sub3</text></g><g class="entity" data-qualified-name="Active.CONC2.Sub4" id="__e5__"><rect fill="#F1F1F1" height="50" rx="12.5" ry="12.5" style="stroke:#181818;stroke-width:0.5;" width="55.5537" x="19" y="471.2969"/><line style="stroke:#181818;stroke-width:0.5;" x1="19" x2="74.5537" y1="497.5938" y2="497.5938"/><text fill="#000000" font-family="sans-serif" font-size="14" lengthAdjust="spacing" textLength="35.5537" x="29" y="489.292">Sub4</text></g><!--link *start*CONC2 to Sub3--><g class="link" data-entity-1="__e3__" data-entity-2="__e4__" data-link-type="dependency" id="__l2__"><path d="M47,349.3169 C47,358.3769 47,366.7369 47,379.1269" fill="none" id="*start*CONC2-to-Sub3" style="stroke:#181818;stroke-width:1;"/><polygon fill="#181818" points="47,385.1269,51,376.1269,47,380.1269,43,376.1269,47,385.1269" style="stroke:#181818;stroke-width:1;"/></g><!--link Sub3 to Sub4--><g class="link" data-entity-1="__e4__" data-entity-2="__e5__" data-link-type="dependency" id="__l3__"><path d="M47,435.5969 C47,446.7369 47,453.9169 47,465.0569" fill="none" id="Sub3-to-Sub4" style="stroke:#181818;stroke-width:1;"/><polygon fill="#181818" points="47,471.0569,51,462.0569,47,466.0569,43,462.0569,47,471.0569" style="stroke:#181818;stroke-width:1;"/></g><g class="start_entity" data-qualified-name=".start." id="__e6__"><ellipse cx="53" cy="16" fill="#222222" rx="10" ry="10" style="stroke:#222222;stroke-width:1;"/></g><g class="end_entity" data-qualified-name=".end." id="__e7__"><ellipse cx="53" cy="605" fill="none" rx="11" ry="11" style="stroke:#222222;stroke-width:1;"/><ellipse cx="53" cy="605" fill="#222222" rx="6" ry="6" style="stroke:#222222;stroke-width:1;"/></g><!--link *start* to Active--><g class="link" data-entity-1="__e6__" data-entity-2="__e6__" data-link-type="dependency" id="__l4__"><path d="M53,26.06 C53,37.61 53,53.29 53,79.71" fill="none" id="*start*-to-Active" style="stroke:#181818;stroke-width:1;"/><polygon fill="#181818" points="53,85.71,57,76.71,53,80.71,49,76.71,53,85.71" style="stroke:#181818;stroke-width:1;"/></g><!--link Active to *end*--><g class="link" data-entity-1="__e6__" data-entity-2="__e7__" data-link-type="dependency" id="__l5__"><path d="M53,534.19 C53,560.32 53,575.92 53,587.87" fill="none" id="Active-to-*end*" style="stroke:#181818;stroke-width:1;"/><polygon fill="#181818" points="53,593.87,57,584.87,53,588.87,49,584.87,53,593.87" style="stroke:#181818;stroke-width:1;"/></g></g></svg>