<svg xmlns="http://www.w3.org/2000/svg" xmlns:xlink="http://www.w3.org/1999/xlink" contentStyleType="text/css" data-diagram-type="STATE" height="150px" preserveAspectRatio="none" style="width:157px;height:150px;background:#FFFFFF;" version="1.1" viewBox="0 0 157 150" width="157px" zoomAndPan="magnify"><?plantuml 1.2026.3beta5?><defs/><g><g class="start_entity" data-qualified-name=".start." id="__e0__"><ellipse cx="32" cy="16" fill="#222222" rx="10" ry="10" style="stroke:#222222;stroke-width:1;"/></g><g class="entity" data-qualified-name="A" id="__e1__"><rect fill="#F1F1F1" height="50" rx="12.5" ry="12.5" style="stroke:#181818;stroke-width:0.5;" width="50" x="7" y="86"/><line style="stroke:#181818;stroke-width:0.5;" x1="7" x2="57" y1="112.2969" y2="112.2969"/><text fill="#000000" font-family="sans-serif" font-size="14" lengthAdjust="spacing" textLength="9.5771" x="27.2114" y="103.9951">A</text></g><g class="entity" data-qualified-name="B" id="__e2__"><rect fill="#F1F1F1" height="50" rx="12.5" ry="12.5" style="stroke:#181818;stroke-width:0.5;" width="50" x="92" y="86"/><line style="stroke:#181818;stroke-width:0.5;" x1="92" x2="142" y1="112.2969" y2="112.2969"/><text fill="#000000" font-family="sans-serif" font-size="14" lengthAdjust="spacing" textLength="9.6045" x="112.1978" y="103.9951">B</text></g><!--link *start* to A--><g class="link" data-entity-1="__e0__" data-entity-2="__e1__" data-link-type="dependency" id="__l0__"><path d="M32,26.26 C32,40.04 32,60.42 32,79.91" fill="none" id="*start*-to-A" style="stroke:#181818;stroke-width:1;"/><polygon fill="#181818" points="32,85.91,36,76.91,32,80.91,28,76.91,32,85.91" style="stroke:#181818;stroke-width:1;"/></g><!--link A to B--><g class="link" data-entity-1="__e1__" data-entity-2="__e2__" data-link-type="dependency" id="__l1__"><path d="M57.23,111 C68.75,111 74.27,111 85.79,111" fill="none" id="A-to-B" style="stroke:#181818;stroke-width:1;"/><polygon fill="#181818" points="91.79,111,82.79,107,86.79,111,82.79,115,91.79,111" style="stroke:#181818;stroke-width:1;"/></g></g></svg>