<svg xmlns="http://www.w3.org/2000/svg" viewBox="0 0 1400 130" width="1400" height="130" font-family="monospace" font-size="12">
<defs>
<marker id="gantt-arrow" viewBox="0 0 10 10" refX="10" refY="5" markerWidth="8" markerHeight="8" orient="auto-start-reverse"><path d="M 0 0 L 10 5 L 0 10 Z" fill="#555555" stroke="none"/></marker>
</defs>
<line x1="180.0" y1="20.0" x2="180.0" y2="130.0" stroke="#DDDDDD" stroke-width="0.5"/>
<line x1="460.0" y1="20.0" x2="460.0" y2="130.0" stroke="#DDDDDD" stroke-width="0.5"/>
<line x1="740.0" y1="20.0" x2="740.0" y2="130.0" stroke="#DDDDDD" stroke-width="0.5"/>
<line x1="1020.0" y1="20.0" x2="1020.0" y2="130.0" stroke="#DDDDDD" stroke-width="0.5"/>
<line x1="1300.0" y1="20.0" x2="1300.0" y2="130.0" stroke="#DDDDDD" stroke-width="0.5"/>
<text x="180.0" y="34.0" text-anchor="middle" font-size="11" fill="#333333">W1</text>
<text x="460.0" y="34.0" text-anchor="middle" font-size="11" fill="#333333">W2</text>
<text x="740.0" y="34.0" text-anchor="middle" font-size="11" fill="#333333">W3</text>
<text x="1020.0" y="34.0" text-anchor="middle" font-size="11" fill="#333333">W4</text>
<text x="1300.0" y="34.0" text-anchor="middle" font-size="11" fill="#333333">W5</text>
<rect x="180.0" y="50.0" width="1000.0" height="20.0" rx="3" ry="3" fill="Lavender" stroke="LightBlue" stroke-width="1"/>
<text x="172.0" y="64.2" text-anchor="end" fill="#000000">Prototype design</text>
<rect x="1180.0" y="80.0" width="200.0" height="20.0" rx="3" ry="3" fill="#A4C2F4" stroke="#3D85C6" stroke-width="1"/>
<text x="1172.0" y="94.2" text-anchor="end" fill="#000000">Testing</text>
<polyline points="1180.0,60.0 1180.0,60.0 1180.0,90.0 1180.0,90.0" fill="none" stroke="#555555" stroke-width="1" marker-end="url(#gantt-arrow)"/>
</svg>
