<svg xmlns="http://www.w3.org/2000/svg" viewBox="0 0 491.2 704.0" width="491.2" height="704.0" font-family="monospace" font-size="13">
<defs>
<marker id="seq-arrow-filled" viewBox="0 0 10 10" refX="10" refY="5" markerWidth="8" markerHeight="8" orient="auto-start-reverse"><path d="M 0 0 L 10 5 L 0 10 Z" fill="#A80036" stroke="none"/></marker>
<marker id="seq-arrow-open" viewBox="0 0 10 10" refX="10" refY="5" markerWidth="8" markerHeight="8" orient="auto-start-reverse"><path d="M 0 0 L 10 5 L 0 10" fill="none" stroke="#A80036" stroke-width="1.2"/></marker>
</defs>
<line x1="79.2" y1="56.0" x2="79.2" y2="608.0" stroke="#A80036" stroke-width="1" stroke-dasharray="5,5"/>
<line x1="179.2" y1="56.0" x2="179.2" y2="608.0" stroke="#A80036" stroke-width="1" stroke-dasharray="5,5"/>
<line x1="279.2" y1="56.0" x2="279.2" y2="608.0" stroke="#A80036" stroke-width="1" stroke-dasharray="5,5"/>
<line x1="379.2" y1="56.0" x2="379.2" y2="608.0" stroke="#A80036" stroke-width="1" stroke-dasharray="5,5"/>
<line x1="179.2" y1="76.0" x2="79.2" y2="76.0" stroke="#A80036" stroke-width="1" marker-start="url(#seq-arrow-filled)"/>
<text x="129.2" y="70.0" text-anchor="middle" fill="#000000">1st self message, no activation</text>
<line x1="179.2" y1="148.0" x2="279.2" y2="148.0" stroke="#A80036" stroke-width="1" marker-start="url(#seq-arrow-filled)"/>
<text x="229.2" y="142.0" text-anchor="middle" fill="#000000">2nd self message, starting activation</text>
<path d="M 179.2,188.0 C 209.2,188.0 209.2,212.0 179.2,212.0" fill="none" stroke="#A80036" stroke-width="1" marker-end="url(#seq-arrow-filled)"/>
<text x="213.2" y="204.6" fill="#000000">2.5th self message, no change</text>
<path d="M 179.2,284.0 C 209.2,284.0 209.2,308.0 179.2,308.0" fill="none" stroke="#A80036" stroke-width="1" marker-end="url(#seq-arrow-open)"/>
<text x="213.2" y="300.6" fill="#000000">4th self message, continuing in the current activation</text>
<line x1="179.2" y1="380.0" x2="379.2" y2="380.0" stroke="#A80036" stroke-width="1" marker-start="url(#seq-arrow-filled)"/>
<text x="279.2" y="374.0" text-anchor="middle" fill="#000000">5th self message, deactivating once</text>
<path d="M 179.2,420.0 C 209.2,420.0 209.2,444.0 179.2,444.0" fill="none" stroke="#A80036" stroke-width="1" marker-end="url(#seq-arrow-filled)"/>
<text x="213.2" y="436.6" fill="#000000">6th self message, continuing the activation</text>
<line x1="179.2" y1="484.0" x2="379.2" y2="484.0" stroke="#A80036" stroke-width="1" marker-start="url(#seq-arrow-filled)"/>
<text x="279.2" y="478.0" text-anchor="middle" fill="#000000">7th self message, exiting the activation</text>
<path d="M 179.2,524.0 C 209.2,524.0 209.2,548.0 179.2,548.0" fill="none" stroke="#A80036" stroke-width="1" marker-end="url(#seq-arrow-filled)"/>
<text x="213.2" y="540.5" fill="#000000">8th self message, no activation</text>
<rect x="49.2" y="116.0" width="120.0" height="32.0" fill="#FBFB77" stroke="#A80036" stroke-width="1"/>
<path d="M 161.2,116.0 L 161.2,124.0 L 169.2,116.0 Z" fill="#FBFB77" stroke="#A80036" stroke-width="1"/>
<text x="55.2" y="132.0" fill="#000000"></text>
<rect x="189.2" y="252.0" width="120.0" height="32.0" fill="#FBFB77" stroke="#A80036" stroke-width="1"/>
<path d="M 301.2,252.0 L 301.2,260.0 L 309.2,252.0 Z" fill="#FBFB77" stroke="#A80036" stroke-width="1"/>
<text x="195.2" y="268.0" fill="#000000"></text>
<rect x="49.2" y="348.0" width="120.0" height="32.0" fill="#FBFB77" stroke="#A80036" stroke-width="1"/>
<path d="M 161.2,348.0 L 161.2,356.0 L 169.2,348.0 Z" fill="#FBFB77" stroke="#A80036" stroke-width="1"/>
<text x="55.2" y="364.0" fill="#000000"></text>
<rect x="20.0" y="20.0" width="118.4" height="36.0" fill="#FEFECE" stroke="#A80036" stroke-width="1.5"/>
<text x="79.2" y="42.5" text-anchor="middle" font-weight="bold" fill="#000000">Testing #red</text>
<rect x="138.0" y="20.0" width="82.4" height="36.0" fill="#FEFECE" stroke="#A80036" stroke-width="1.5"/>
<text x="179.2" y="42.5" text-anchor="middle" font-weight="bold" fill="#000000">Testing</text>
<rect x="227.2" y="20.0" width="104.0" height="36.0" fill="#FEFECE" stroke="#A80036" stroke-width="1.5"/>
<text x="279.2" y="42.5" text-anchor="middle" font-weight="bold" fill="#000000">Testing ++</text>
<rect x="327.2" y="20.0" width="104.0" height="36.0" fill="#FEFECE" stroke="#A80036" stroke-width="1.5"/>
<text x="379.2" y="42.5" text-anchor="middle" font-weight="bold" fill="#000000">Testing --</text>
<rect x="20.0" y="608.0" width="118.4" height="36.0" fill="#FEFECE" stroke="#A80036" stroke-width="1.5"/>
<text x="79.2" y="630.5" text-anchor="middle" font-weight="bold" fill="#000000">Testing #red</text>
<rect x="138.0" y="608.0" width="82.4" height="36.0" fill="#FEFECE" stroke="#A80036" stroke-width="1.5"/>
<text x="179.2" y="630.5" text-anchor="middle" font-weight="bold" fill="#000000">Testing</text>
<rect x="227.2" y="608.0" width="104.0" height="36.0" fill="#FEFECE" stroke="#A80036" stroke-width="1.5"/>
<text x="279.2" y="630.5" text-anchor="middle" font-weight="bold" fill="#000000">Testing ++</text>
<rect x="327.2" y="608.0" width="104.0" height="36.0" fill="#FEFECE" stroke="#A80036" stroke-width="1.5"/>
<text x="379.2" y="630.5" text-anchor="middle" font-weight="bold" fill="#000000">Testing --</text>
</svg>
