<svg xmlns="http://www.w3.org/2000/svg" viewBox="0 0 640.4 588.0" width="640.4" height="588.0" font-family="monospace" font-size="13">
<defs>
<marker id="seq-arrow-filled" viewBox="0 0 10 10" refX="10" refY="5" markerWidth="8" markerHeight="8" orient="auto-start-reverse"><path d="M 0 0 L 10 5 L 0 10 Z" fill="#A80036" stroke="none"/></marker>
<marker id="seq-arrow-open" viewBox="0 0 10 10" refX="10" refY="5" markerWidth="8" markerHeight="8" orient="auto-start-reverse"><path d="M 0 0 L 10 5 L 0 10" fill="none" stroke="#A80036" stroke-width="1.2"/></marker>
</defs>
<line x1="50.0" y1="56.0" x2="50.0" y2="492.0" stroke="#A80036" stroke-width="1" stroke-dasharray="5,5"/>
<line x1="150.0" y1="56.0" x2="150.0" y2="492.0" stroke="#A80036" stroke-width="1" stroke-dasharray="5,5"/>
<line x1="250.0" y1="56.0" x2="250.0" y2="492.0" stroke="#A80036" stroke-width="1" stroke-dasharray="5,5"/>
<line x1="350.0" y1="56.0" x2="350.0" y2="492.0" stroke="#A80036" stroke-width="1" stroke-dasharray="5,5"/>
<line x1="450.0" y1="56.0" x2="450.0" y2="492.0" stroke="#A80036" stroke-width="1" stroke-dasharray="5,5"/>
<line x1="550.0" y1="56.0" x2="550.0" y2="492.0" stroke="#A80036" stroke-width="1" stroke-dasharray="5,5"/>
<rect x="10.0" y="200.5" width="580.4" height="5" fill="#888888" fill-opacity="0.2"/>
<line x1="10.0" y1="200.5" x2="590.4" y2="200.5" stroke="#888888" stroke-width="1"/>
<line x1="10.0" y1="205.5" x2="590.4" y2="205.5" stroke="#888888" stroke-width="1"/>
<rect x="10.0" y="342.5" width="580.4" height="5" fill="#888888" fill-opacity="0.2"/>
<line x1="10.0" y1="342.5" x2="590.4" y2="342.5" stroke="#888888" stroke-width="1"/>
<line x1="10.0" y1="347.5" x2="590.4" y2="347.5" stroke="#888888" stroke-width="1"/>
<line x1="50.0" y1="76.0" x2="150.0" y2="76.0" stroke="#A80036" stroke-width="1" marker-end="url(#seq-arrow-filled)"/>
<text x="100.0" y="70.0" text-anchor="middle" fill="#000000"><tspan x="100.0" dy="0.0">very long</tspan><tspan x="100.0" dy="16.0">multi-line</tspan></text>
<line x1="250.0" y1="116.0" x2="350.0" y2="116.0" stroke="#A80036" stroke-width="1" marker-end="url(#seq-arrow-filled)"/>
<text x="300.0" y="110.0" text-anchor="middle" fill="#000000">single</text>
<line x1="50.0" y1="218.0" x2="150.0" y2="218.0" stroke="#A80036" stroke-width="1" marker-end="url(#seq-arrow-filled)"/>
<text x="100.0" y="212.0" text-anchor="middle" fill="#000000"><tspan x="100.0" dy="0.0">very long</tspan><tspan x="100.0" dy="16.0">multi-line</tspan></text>
<line x1="250.0" y1="258.0" x2="450.0" y2="258.0" stroke="#A80036" stroke-width="1" marker-end="url(#seq-arrow-filled)"/>
<text x="350.0" y="252.0" text-anchor="middle" fill="#000000"><tspan x="350.0" dy="0.0">same</tspan><tspan x="350.0" dy="16.0">height</tspan></text>
<line x1="50.0" y1="360.0" x2="150.0" y2="360.0" stroke="#A80036" stroke-width="1" marker-end="url(#seq-arrow-filled)"/>
<text x="100.0" y="354.0" text-anchor="middle" fill="#000000">single</text>
<line x1="250.0" y1="400.0" x2="550.0" y2="400.0" stroke="#A80036" stroke-width="1" marker-end="url(#seq-arrow-filled)"/>
<text x="400.0" y="394.0" text-anchor="middle" fill="#000000"><tspan x="400.0" dy="0.0">very long</tspan><tspan x="400.0" dy="16.0">multi-line</tspan></text>
<rect x="-60.0" y="156.0" width="120.0" height="32.0" fill="#FBFB77" stroke="#A80036" stroke-width="1"/>
<path d="M 52.0,156.0 L 52.0,164.0 L 60.0,156.0 Z" fill="#FBFB77" stroke="#A80036" stroke-width="1"/>
<text x="-54.0" y="172.0" fill="#000000">got it</text>
<rect x="-60.0" y="298.0" width="120.0" height="32.0" fill="#FBFB77" stroke="#A80036" stroke-width="1"/>
<path d="M 52.0,298.0 L 52.0,306.0 L 60.0,298.0 Z" fill="#FBFB77" stroke="#A80036" stroke-width="1"/>
<text x="-54.0" y="314.0" fill="#000000">got it</text>
<rect x="-60.0" y="440.0" width="120.0" height="32.0" fill="#FBFB77" stroke="#A80036" stroke-width="1"/>
<path d="M 52.0,440.0 L 52.0,448.0 L 60.0,440.0 Z" fill="#FBFB77" stroke="#A80036" stroke-width="1"/>
<text x="-54.0" y="456.0" fill="#000000">got it</text>
<rect x="20.0" y="20.0" width="60.0" height="36.0" fill="#FEFECE" stroke="#A80036" stroke-width="1.5"/>
<text x="50.0" y="42.5" text-anchor="middle" font-weight="bold" fill="#000000">A</text>
<rect x="119.6" y="20.0" width="60.8" height="36.0" fill="#FEFECE" stroke="#A80036" stroke-width="1.5"/>
<text x="150.0" y="42.5" text-anchor="middle" font-weight="bold" fill="#000000">B --</text>
<rect x="220.0" y="20.0" width="60.0" height="36.0" fill="#FEFECE" stroke="#A80036" stroke-width="1.5"/>
<text x="250.0" y="42.5" text-anchor="middle" font-weight="bold" fill="#000000">&amp; B</text>
<rect x="301.6" y="20.0" width="96.8" height="36.0" fill="#FEFECE" stroke="#A80036" stroke-width="1.5"/>
<text x="350.0" y="42.5" text-anchor="middle" font-weight="bold" fill="#000000">C ++ #red</text>
<rect x="394.4" y="20.0" width="111.2" height="36.0" fill="#FEFECE" stroke="#A80036" stroke-width="1.5"/>
<text x="450.0" y="42.5" text-anchor="middle" font-weight="bold" fill="#000000">C ++ #green</text>
<rect x="519.6" y="20.0" width="60.8" height="36.0" fill="#FEFECE" stroke="#A80036" stroke-width="1.5"/>
<text x="550.0" y="42.5" text-anchor="middle" font-weight="bold" fill="#000000">C ++</text>
<rect x="20.0" y="492.0" width="60.0" height="36.0" fill="#FEFECE" stroke="#A80036" stroke-width="1.5"/>
<text x="50.0" y="514.5" text-anchor="middle" font-weight="bold" fill="#000000">A</text>
<rect x="119.6" y="492.0" width="60.8" height="36.0" fill="#FEFECE" stroke="#A80036" stroke-width="1.5"/>
<text x="150.0" y="514.5" text-anchor="middle" font-weight="bold" fill="#000000">B --</text>
<rect x="220.0" y="492.0" width="60.0" height="36.0" fill="#FEFECE" stroke="#A80036" stroke-width="1.5"/>
<text x="250.0" y="514.5" text-anchor="middle" font-weight="bold" fill="#000000">&amp; B</text>
<rect x="301.6" y="492.0" width="96.8" height="36.0" fill="#FEFECE" stroke="#A80036" stroke-width="1.5"/>
<text x="350.0" y="514.5" text-anchor="middle" font-weight="bold" fill="#000000">C ++ #red</text>
<rect x="394.4" y="492.0" width="111.2" height="36.0" fill="#FEFECE" stroke="#A80036" stroke-width="1.5"/>
<text x="450.0" y="514.5" text-anchor="middle" font-weight="bold" fill="#000000">C ++ #green</text>
<rect x="519.6" y="492.0" width="60.8" height="36.0" fill="#FEFECE" stroke="#A80036" stroke-width="1.5"/>
<text x="550.0" y="514.5" text-anchor="middle" font-weight="bold" fill="#000000">C ++</text>
</svg>
