<svg xmlns="http://www.w3.org/2000/svg" viewBox="0 0 562.0 352.0" width="562.0" height="352.0" font-family="monospace" font-size="13">
<defs>
<marker id="seq-arrow-filled" viewBox="0 0 10 10" refX="10" refY="5" markerWidth="8" markerHeight="8" orient="auto-start-reverse"><path d="M 0 0 L 10 5 L 0 10 Z" fill="#A80036" stroke="none"/></marker>
<marker id="seq-arrow-open" viewBox="0 0 10 10" refX="10" refY="5" markerWidth="8" markerHeight="8" orient="auto-start-reverse"><path d="M 0 0 L 10 5 L 0 10" fill="none" stroke="#A80036" stroke-width="1.2"/></marker>
</defs>
<line x1="50.0" y1="56.0" x2="50.0" y2="256.0" stroke="#A80036" stroke-width="1" stroke-dasharray="5,5"/>
<line x1="150.0" y1="56.0" x2="150.0" y2="256.0" stroke="#A80036" stroke-width="1" stroke-dasharray="5,5"/>
<line x1="250.0" y1="56.0" x2="250.0" y2="256.0" stroke="#A80036" stroke-width="1" stroke-dasharray="5,5"/>
<line x1="350.0" y1="56.0" x2="350.0" y2="256.0" stroke="#A80036" stroke-width="1" stroke-dasharray="5,5"/>
<line x1="450.0" y1="56.0" x2="450.0" y2="256.0" stroke="#A80036" stroke-width="1" stroke-dasharray="5,5"/>
<rect x="45.0" y="116.0" width="10.0" height="120.0" fill="#FEFECE" stroke="#A80036" stroke-width="1"/>
<rect x="45.0" y="196.0" width="10.0" height="40.0" fill="#FEFECE" stroke="#A80036" stroke-width="1"/>
<line x1="50.0" y1="76.0" x2="150.0" y2="76.0" stroke="#A80036" stroke-width="1" marker-end="url(#seq-arrow-filled)"/>
<text x="100.0" y="70.0" text-anchor="middle" fill="#000000">message</text>
<line x1="50.0" y1="116.0" x2="250.0" y2="116.0" stroke="#A80036" stroke-width="1" marker-end="url(#seq-arrow-filled)"/>
<text x="150.0" y="110.0" text-anchor="middle" fill="#000000">deactivate</text>
<line x1="50.0" y1="156.0" x2="350.0" y2="156.0" stroke="#A80036" stroke-width="1" marker-end="url(#seq-arrow-filled)"/>
<text x="200.0" y="150.0" text-anchor="middle" fill="#000000">activate</text>
<line x1="50.0" y1="196.0" x2="450.0" y2="196.0" stroke="#A80036" stroke-width="1" marker-end="url(#seq-arrow-filled)"/>
<text x="250.0" y="190.0" text-anchor="middle" fill="#000000">act+deact</text>
<rect x="20.0" y="20.0" width="60.0" height="36.0" fill="#FEFECE" stroke="#A80036" stroke-width="1.5"/>
<text x="50.0" y="42.5" text-anchor="middle" font-weight="bold" fill="#000000">Bob</text>
<rect x="116.0" y="20.0" width="68.0" height="36.0" fill="#FEFECE" stroke="#A80036" stroke-width="1.5"/>
<text x="150.0" y="42.5" text-anchor="middle" font-weight="bold" fill="#000000">Alice</text>
<rect x="205.2" y="20.0" width="89.6" height="36.0" fill="#FEFECE" stroke="#A80036" stroke-width="1.5"/>
<text x="250.0" y="42.5" text-anchor="middle" font-weight="bold" fill="#000000">Alice --</text>
<rect x="305.2" y="20.0" width="89.6" height="36.0" fill="#FEFECE" stroke="#A80036" stroke-width="1.5"/>
<text x="350.0" y="42.5" text-anchor="middle" font-weight="bold" fill="#000000">Alice ++</text>
<rect x="398.0" y="20.0" width="104.0" height="36.0" fill="#FEFECE" stroke="#A80036" stroke-width="1.5"/>
<text x="450.0" y="42.5" text-anchor="middle" font-weight="bold" fill="#000000">Alice --++</text>
<rect x="20.0" y="256.0" width="60.0" height="36.0" fill="#FEFECE" stroke="#A80036" stroke-width="1.5"/>
<text x="50.0" y="278.6" text-anchor="middle" font-weight="bold" fill="#000000">Bob</text>
<rect x="116.0" y="256.0" width="68.0" height="36.0" fill="#FEFECE" stroke="#A80036" stroke-width="1.5"/>
<text x="150.0" y="278.6" text-anchor="middle" font-weight="bold" fill="#000000">Alice</text>
<rect x="205.2" y="256.0" width="89.6" height="36.0" fill="#FEFECE" stroke="#A80036" stroke-width="1.5"/>
<text x="250.0" y="278.6" text-anchor="middle" font-weight="bold" fill="#000000">Alice --</text>
<rect x="305.2" y="256.0" width="89.6" height="36.0" fill="#FEFECE" stroke="#A80036" stroke-width="1.5"/>
<text x="350.0" y="278.6" text-anchor="middle" font-weight="bold" fill="#000000">Alice ++</text>
<rect x="398.0" y="256.0" width="104.0" height="36.0" fill="#FEFECE" stroke="#A80036" stroke-width="1.5"/>
<text x="450.0" y="278.6" text-anchor="middle" font-weight="bold" fill="#000000">Alice --++</text>
</svg>
