<svg xmlns="http://www.w3.org/2000/svg" xmlns:xlink="http://www.w3.org/1999/xlink" contentStyleType="text/css" data-diagram-type="SEQUENCE" height="165px" preserveAspectRatio="none" style="width:215px;height:165px;background:#FFFFFF;" version="1.1" viewBox="0 0 215 165" width="215px" zoomAndPan="magnify"><?plantuml 1.2026.3beta5?><defs/><g><g><title>A</title><rect fill="#000000" fill-opacity="0.00000" height="82.2656" width="8" x="18.2886" y="41.2969"/><line style="stroke:#181818;stroke-width:0.5;stroke-dasharray:5,5;" x1="21.7886" x2="21.7886" y1="41.2969" y2="123.5625"/></g><g><title>B</title><rect fill="#000000" fill-opacity="0.00000" height="82.2656" width="8" x="78.248" y="41.2969"/><line style="stroke:#181818;stroke-width:0.5;stroke-dasharray:5,5;" x1="81.748" x2="81.748" y1="41.2969" y2="123.5625"/></g><g><title>C</title><rect fill="#000000" fill-opacity="0.00000" height="82.2656" width="8" x="138.2075" y="41.2969"/><line style="stroke:#181818;stroke-width:0.5;stroke-dasharray:5,5;" x1="141.7075" x2="141.7075" y1="41.2969" y2="123.5625"/></g><rect fill="#E2E2F0" height="30.2969" rx="2.5" ry="2.5" style="stroke:#181818;stroke-width:0.5;" width="23.5771" x="10" y="10"/><text fill="#000000" font-family="sans-serif" font-size="14" lengthAdjust="spacing" textLength="9.5771" x="17" y="29.9951">A</text><rect fill="#E2E2F0" height="30.2969" rx="2.5" ry="2.5" style="stroke:#181818;stroke-width:0.5;" width="23.6045" x="69.9458" y="10"/><text fill="#000000" font-family="sans-serif" font-size="14" lengthAdjust="spacing" textLength="9.6045" x="76.9458" y="29.9951">B</text><rect fill="#E2E2F0" height="30.2969" rx="2.5" ry="2.5" style="stroke:#181818;stroke-width:0.5;" width="23.7754" x="129.8198" y="10"/><text fill="#000000" font-family="sans-serif" font-size="14" lengthAdjust="spacing" textLength="9.7754" x="136.8198" y="29.9951">C</text><rect fill="#E2E2F0" height="30.2969" rx="2.5" ry="2.5" style="stroke:#181818;stroke-width:0.5;" width="23.5771" x="10" y="123.5625"/><text fill="#000000" font-family="sans-serif" font-size="14" lengthAdjust="spacing" textLength="9.5771" x="17" y="143.5576">A</text><rect fill="#E2E2F0" height="30.2969" rx="2.5" ry="2.5" style="stroke:#181818;stroke-width:0.5;" width="23.6045" x="69.9458" y="123.5625"/><text fill="#000000" font-family="sans-serif" font-size="14" lengthAdjust="spacing" textLength="9.6045" x="76.9458" y="143.5576">B</text><rect fill="#E2E2F0" height="30.2969" rx="2.5" ry="2.5" style="stroke:#181818;stroke-width:0.5;" width="23.7754" x="129.8198" y="123.5625"/><text fill="#000000" font-family="sans-serif" font-size="14" lengthAdjust="spacing" textLength="9.7754" x="136.8198" y="143.5576">C</text><polygon fill="#181818" points="69.748,66.4297,79.748,70.4297,69.748,74.4297,73.748,70.4297" style="stroke:#181818;stroke-width:1;"/><line style="stroke:#181818;stroke-width:1;" x1="21.7886" x2="75.748" y1="70.4297" y2="70.4297"/><text fill="#000000" font-family="sans-serif" font-size="13" lengthAdjust="spacing" textLength="35.9595" x="28.7886" y="65.3638">msg1</text><path d="M146.7075,54.2969 L146.7075,79.2969 L198.7075,79.2969 L198.7075,64.2969 L188.7075,54.2969 L146.7075,54.2969" fill="#FEFFDD" style="stroke:#181818;stroke-width:0.5;"/><path d="M188.7075,54.2969 L188.7075,64.2969 L198.7075,64.2969 L188.7075,54.2969" fill="#FEFFDD" style="stroke:#181818;stroke-width:0.5;"/><text fill="#000000" font-family="sans-serif" font-size="13" lengthAdjust="spacing" textLength="31.4146" x="152.7075" y="71.3638">hello</text><polygon fill="#181818" points="129.7075,66.4297,139.7075,70.4297,129.7075,74.4297,133.7075,70.4297" style="stroke:#181818;stroke-width:1;"/><line style="stroke:#181818;stroke-width:1;" x1="81.748" x2="135.7075" y1="70.4297" y2="70.4297"/><text fill="#000000" font-family="sans-serif" font-size="13" lengthAdjust="spacing" textLength="35.9595" x="88.748" y="65.3638">msg2</text><polygon fill="#181818" points="69.748,101.5625,79.748,105.5625,69.748,109.5625,73.748,105.5625" style="stroke:#181818;stroke-width:1;"/><line style="stroke:#181818;stroke-width:1;" x1="21.7886" x2="75.748" y1="105.5625" y2="105.5625"/><text fill="#000000" font-family="sans-serif" font-size="13" lengthAdjust="spacing" textLength="35.9595" x="28.7886" y="100.4966">msg3</text><?plantuml-src JSeX3e0m30LGtrDy30u1k0aInaaccevaewGKm-a9gCcNlEwq93N1MH-utKmhXWKne5uoKe_uSVivqQ7Ei5so1sGkHTizlm00?></g></svg>