<svg xmlns="http://www.w3.org/2000/svg" xmlns:xlink="http://www.w3.org/1999/xlink" contentStyleType="text/css" data-diagram-type="DESCRIPTION" height="294px" preserveAspectRatio="none" style="width:264px;height:294px;background:#FFFFFF;" version="1.1" viewBox="0 0 264 294" width="264px" zoomAndPan="magnify"><?plantuml 1.2026.3beta4?><defs/><g><!--cluster c1--><g class="cluster" id="c1"><rect fill="none" height="70" rx="2.5" ry="2.5" style="stroke:#181818;stroke-width:1;" width="100" x="7" y="7"/><text fill="#000000" font-family="sans-serif" font-size="14" font-weight="bold" lengthAdjust="spacing" textLength="18.04" x="47.98" y="22.9951">c1</text></g><!--cluster c2--><g class="cluster" id="c2"><rect fill="none" height="70" rx="2.5" ry="2.5" style="stroke:#181818;stroke-width:1;" width="100" x="7" y="127"/><text fill="#000000" font-family="sans-serif" font-size="14" font-weight="bold" lengthAdjust="spacing" textLength="18.04" x="47.98" y="142.9951">c2</text></g><!--entity p1--><g class="entity" id="p1"><rect fill="#F1F1F1" height="40" rx="2.5" ry="2.5" style="stroke:#181818;stroke-width:0.5;" width="100" x="7" y="247"/><rect fill="#F1F1F1" height="10" style="stroke:#181818;stroke-width:0.5;" width="15" x="102" y="252"/><rect fill="#F1F1F1" height="2" style="stroke:#181818;stroke-width:0.5;" width="4" x="100" y="254"/><rect fill="#F1F1F1" height="2" style="stroke:#181818;stroke-width:0.5;" width="4" x="100" y="258"/><text fill="#000000" font-family="sans-serif" font-size="14" font-weight="bold" lengthAdjust="spacing" text-anchor="middle" textLength="19.7627" x="57" y="271.2">p1</text></g><!--entity p2--><g class="entity" id="p2"><rect fill="#F1F1F1" height="40" rx="2.5" ry="2.5" style="stroke:#181818;stroke-width:0.5;" width="100" x="157" y="247"/><rect fill="#F1F1F1" height="10" style="stroke:#181818;stroke-width:0.5;" width="15" x="252" y="252"/><rect fill="#F1F1F1" height="2" style="stroke:#181818;stroke-width:0.5;" width="4" x="250" y="254"/><rect fill="#F1F1F1" height="2" style="stroke:#181818;stroke-width:0.5;" width="4" x="250" y="258"/><text fill="#000000" font-family="sans-serif" font-size="14" font-weight="bold" lengthAdjust="spacing" text-anchor="middle" textLength="19.7627" x="207" y="271.2">p2</text></g><!--link p1 to p2--><g class="link" id="p1-to-p2"><path d="M107,267 C157,267 157,267 157,267 " fill="none" id="p1-to-p2" style="stroke:#181818;stroke-width:1;"/><polygon fill="#181818" points="148,271,157,267,148,263,148,271" style="stroke:#181818;stroke-width:1;"/></g><?plantuml-src LSan3e0W30NGdLDy3y001_0kX3I4WRQfXSLuTtKnSNnvcrffe-1OhREJbUfz4TmcXL1bg32neoQS0L0nb-dG5AvVvwyxG_ExcX3Z_k06?></g></svg>