<svg xmlns="http://www.w3.org/2000/svg" xmlns:xlink="http://www.w3.org/1999/xlink" contentStyleType="text/css" data-diagram-type="SEQUENCE" height="416px" preserveAspectRatio="none" style="width:248px;height:416px;background:#FFFFFF;" version="1.1" viewBox="0 0 248 416" width="248px" zoomAndPan="magnify"><?plantuml 1.2026.3beta4?><defs/><g><g><title>C</title><rect fill="#FFFFFF" height="246.9297" style="stroke:#181818;stroke-width:1;" width="10" x="210.3325" y="114.6953"/></g><g class="participant-lifeline" data-entity-uid="part1" data-qualified-name="A" id="part1-lifeline"><g><title>A</title><rect fill="#000000" fill-opacity="0.00000" height="343.3281" width="8" x="12.7886" y="36.2969"/><line style="stroke:#181818;stroke-width:0.5;stroke-dasharray:5,5;" x1="16" x2="16" y1="36.2969" y2="379.625"/></g></g><g class="participant-lifeline" data-entity-uid="part2" data-qualified-name="B" id="part2-lifeline"><g><title>B</title><rect fill="#000000" fill-opacity="0.00000" height="343.3281" width="8" x="98.1641" y="36.2969"/><line style="stroke:#181818;stroke-width:0.5;stroke-dasharray:5,5;" x1="101.3618" x2="101.3618" y1="36.2969" y2="379.625"/></g></g><g class="participant-lifeline" data-entity-uid="part3" data-qualified-name="C ++" id="part3-lifeline"><g><title>C ++</title><rect fill="#000000" fill-opacity="0.00000" height="343.3281" width="8" x="163.6016" y="36.2969"/><line style="stroke:#181818;stroke-width:0.5;stroke-dasharray:5,5;" x1="166.7583" x2="166.7583" y1="36.2969" y2="379.625"/></g></g><g class="participant-lifeline" data-entity-uid="part4" data-qualified-name="C" id="part4-lifeline"><g><title>C</title><rect fill="#000000" fill-opacity="0.00000" height="343.3281" width="8" x="211.3325" y="36.2969"/><line style="stroke:#181818;stroke-width:0.5;stroke-dasharray:5,5;" x1="214.4448" x2="214.4448" y1="36.2969" y2="379.625"/></g></g><rect fill="#888888" fill-opacity="0.20000" height="5" width="242.2202" x="-5" y="156.3281"/>
<line style="stroke:#888888;stroke-width:1;" x1="-5" x2="237.2202" y1="156.3281" y2="156.3281"/>
<line style="stroke:#888888;stroke-width:1;" x1="-5" x2="237.2202" y1="161.3281" y2="161.3281"/>
<rect fill="#888888" fill-opacity="0.20000" height="5" width="242.2202" x="-5" y="299.8594"/>
<line style="stroke:#888888;stroke-width:1;" x1="-5" x2="237.2202" y1="299.8594" y2="299.8594"/>
<line style="stroke:#888888;stroke-width:1;" x1="-5" x2="237.2202" y1="304.8594" y2="304.8594"/>
<g class="participant participant-head" data-entity-uid="part1" data-qualified-name="A" id="part1-head"><rect fill="#E2E2F0" height="30.2969" rx="2.5" ry="2.5" style="stroke:#181818;stroke-width:0.5;" width="23.5771" x="5" y="5"/><text fill="#000000" font-family="sans-serif" font-size="14" lengthAdjust="spacing" textLength="9.5771" x="12" y="24.9951">A</text></g><g class="participant participant-tail" data-entity-uid="part1" data-qualified-name="A" id="part1-tail"><rect fill="#E2E2F0" height="30.2969" rx="2.5" ry="2.5" style="stroke:#181818;stroke-width:0.5;" width="23.5771" x="5" y="378.625"/><text fill="#000000" font-family="sans-serif" font-size="14" lengthAdjust="spacing" textLength="9.5771" x="12" y="398.6201">A</text></g><g class="participant participant-head" data-entity-uid="part2" data-qualified-name="B" id="part2-head"><rect fill="#E2E2F0" height="30.2969" rx="2.5" ry="2.5" style="stroke:#181818;stroke-width:0.5;" width="23.6045" x="90.3618" y="5"/><text fill="#000000" font-family="sans-serif" font-size="14" lengthAdjust="spacing" textLength="9.6045" x="97.3618" y="24.9951">B</text></g><g class="participant participant-tail" data-entity-uid="part2" data-qualified-name="B" id="part2-tail"><rect fill="#E2E2F0" height="30.2969" rx="2.5" ry="2.5" style="stroke:#181818;stroke-width:0.5;" width="23.6045" x="90.3618" y="378.625"/><text fill="#000000" font-family="sans-serif" font-size="14" lengthAdjust="spacing" textLength="9.6045" x="97.3618" y="398.6201">B</text></g><g class="participant participant-head" data-entity-uid="part3" data-qualified-name="C ++" id="part3-head"><rect fill="#E2E2F0" height="30.2969" rx="2.5" ry="2.5" style="stroke:#181818;stroke-width:0.5;" width="51.6865" x="141.7583" y="5"/><text fill="#000000" font-family="sans-serif" font-size="14" lengthAdjust="spacing" textLength="37.6865" x="148.7583" y="24.9951">C ++</text></g><g class="participant participant-tail" data-entity-uid="part3" data-qualified-name="C ++" id="part3-tail"><rect fill="#E2E2F0" height="30.2969" rx="2.5" ry="2.5" style="stroke:#181818;stroke-width:0.5;" width="51.6865" x="141.7583" y="378.625"/><text fill="#000000" font-family="sans-serif" font-size="14" lengthAdjust="spacing" textLength="37.6865" x="148.7583" y="398.6201">C ++</text></g><g class="participant participant-head" data-entity-uid="part4" data-qualified-name="C" id="part4-head"><rect fill="#E2E2F0" height="30.2969" rx="2.5" ry="2.5" style="stroke:#181818;stroke-width:0.5;" width="23.7754" x="203.4448" y="5"/><text fill="#000000" font-family="sans-serif" font-size="14" lengthAdjust="spacing" textLength="9.7754" x="210.4448" y="24.9951">C</text></g><g class="participant participant-tail" data-entity-uid="part4" data-qualified-name="C" id="part4-tail"><rect fill="#E2E2F0" height="30.2969" rx="2.5" ry="2.5" style="stroke:#181818;stroke-width:0.5;" width="23.7754" x="203.4448" y="378.625"/><text fill="#000000" font-family="sans-serif" font-size="14" lengthAdjust="spacing" textLength="9.7754" x="210.4448" y="398.6201">C</text></g><g><title>C</title><rect fill="#FFFFFF" height="246.9297" style="stroke:#181818;stroke-width:1;" width="10" x="210.3325" y="114.6953"/></g><g class="message" data-entity-1="part1" data-entity-2="part2" id="msg1"><polygon fill="#181818" points="90.1641,81.5625,100.1641,85.5625,90.1641,89.5625,94.1641,85.5625" style="stroke:#181818;stroke-width:1;"/><line style="stroke:#181818;stroke-width:1;" x1="16.7886" x2="96.1641" y1="85.5625" y2="85.5625"/><text fill="#000000" font-family="sans-serif" font-size="13" lengthAdjust="spacing" textLength="60.9185" x="23.7886" y="65.3638">very long</text><text fill="#000000" font-family="sans-serif" font-size="13" lengthAdjust="spacing" textLength="61.3755" x="23.7886" y="80.4966">multi-line</text></g><path d="M187.7605,95.5625 L187.7605,120.5625 L242.9045,120.5625 L242.9045,105.5625 L232.9045,95.5625 L187.7605,95.5625" fill="#FEFFDD" style="stroke:#181818;stroke-width:0.5;"/>
<path d="M232.9045,95.5625 L232.9045,105.5625 L242.9045,105.5625 L232.9045,95.5625" fill="#FEFFDD" style="stroke:#181818;stroke-width:0.5;"/>
<text fill="#000000" font-family="sans-serif" font-size="13" lengthAdjust="spacing" textLength="34.144" x="193.7605" y="111.5625">got it</text><g class="message" data-entity-1="part2" data-entity-2="part3" id="msg2"><polygon fill="#181818" points="155.6016,110.6953,165.6016,114.6953,155.6016,118.6953,159.6016,114.6953" style="stroke:#181818;stroke-width:1;"/><line style="stroke:#181818;stroke-width:1;" x1="102.1641" x2="161.6016" y1="114.6953" y2="114.6953"/><text fill="#000000" font-family="sans-serif" font-size="13" lengthAdjust="spacing" textLength="38.4858" x="109.1641" y="109.6294">single</text></g><path d="M187.7605,95.5625 L187.7605,120.5625 L242.9045,120.5625 L242.9045,105.5625 L232.9045,95.5625 L187.7605,95.5625" fill="#FEFFDD" style="stroke:#181818;stroke-width:0.5;"/>
<path d="M232.9045,95.5625 L232.9045,105.5625 L242.9045,105.5625 L232.9045,95.5625" fill="#FEFFDD" style="stroke:#181818;stroke-width:0.5;"/>
<text fill="#000000" font-family="sans-serif" font-size="13" lengthAdjust="spacing" textLength="34.144" x="193.7605" y="111.5625">got it</text><g class="message" data-entity-1="part1" data-entity-2="part2" id="msg3"><polygon fill="#181818" points="90.1641,184.9609,100.1641,188.9609,90.1641,192.9609,94.1641,188.9609" style="stroke:#181818;stroke-width:1;"/><line style="stroke:#181818;stroke-width:1;" x1="16.7886" x2="96.1641" y1="188.9609" y2="188.9609"/><text fill="#000000" font-family="sans-serif" font-size="13" lengthAdjust="spacing" textLength="60.9185" x="23.7886" y="168.7622">very long</text><text fill="#000000" font-family="sans-serif" font-size="13" lengthAdjust="spacing" textLength="61.3755" x="23.7886" y="183.895">multi-line</text></g><g class="message" data-entity-1="part2" data-entity-2="part3" id="msg4"><polygon fill="#181818" points="155.6016,229.2266,165.6016,233.2266,155.6016,237.2266,159.6016,233.2266" style="stroke:#181818;stroke-width:1;"/><line style="stroke:#181818;stroke-width:1;" x1="102.1641" x2="161.6016" y1="233.2266" y2="233.2266"/><text fill="#000000" font-family="sans-serif" font-size="13" lengthAdjust="spacing" textLength="35.4009" x="109.1641" y="213.0278">same</text><text fill="#000000" font-family="sans-serif" font-size="13" lengthAdjust="spacing" textLength="41.4375" x="109.1641" y="228.1606">height</text></g><path d="M187.7605,262.3594 L187.7605,287.3594 L242.9045,287.3594 L242.9045,272.3594 L232.9045,262.3594 L187.7605,262.3594" fill="#FEFFDD" style="stroke:#181818;stroke-width:0.5;"/>
<path d="M232.9045,262.3594 L232.9045,272.3594 L242.9045,272.3594 L232.9045,262.3594" fill="#FEFFDD" style="stroke:#181818;stroke-width:0.5;"/>
<text fill="#000000" font-family="sans-serif" font-size="13" lengthAdjust="spacing" textLength="34.144" x="193.7605" y="278.3594">got it</text><g class="message" data-entity-1="part1" data-entity-2="part2" id="msg5"><polygon fill="#181818" points="90.1641,313.3594,100.1641,317.3594,90.1641,321.3594,94.1641,317.3594" style="stroke:#181818;stroke-width:1;"/><line style="stroke:#181818;stroke-width:1;" x1="16.7886" x2="96.1641" y1="317.3594" y2="317.3594"/><text fill="#000000" font-family="sans-serif" font-size="13" lengthAdjust="spacing" textLength="38.4858" x="23.7886" y="312.2935">single</text></g><g class="message" data-entity-1="part2" data-entity-2="part4" id="msg6"><polygon fill="#181818" points="198.3325,357.625,208.3325,361.625,198.3325,365.625,202.3325,361.625" style="stroke:#181818;stroke-width:1;"/><line style="stroke:#181818;stroke-width:1;" x1="102.1641" x2="204.3325" y1="361.625" y2="361.625"/><text fill="#000000" font-family="sans-serif" font-size="13" lengthAdjust="spacing" textLength="60.9185" x="109.1641" y="341.4263">very long</text><text fill="#000000" font-family="sans-serif" font-size="13" lengthAdjust="spacing" textLength="61.3755" x="109.1641" y="356.5591">multi-line</text></g><path d="M187.7605,393.7578 L187.7605,418.7578 L242.9045,418.7578 L242.9045,403.7578 L232.9045,393.7578 L187.7605,393.7578" fill="#FEFFDD" style="stroke:#181818;stroke-width:0.5;"/>
<path d="M232.9045,393.7578 L232.9045,403.7578 L242.9045,403.7578 L232.9045,393.7578" fill="#FEFFDD" style="stroke:#181818;stroke-width:0.5;"/>
<text fill="#000000" font-family="sans-serif" font-size="13" lengthAdjust="spacing" textLength="34.144" x="193.7605" y="409.7578">got it</text><?plantuml-src dOzD2i8m48NtESMJWbsKW2vRj5BhnZDO5q67DD0cagG5FRrfAoA2YCxo_V2zcLsiaAs09tE3jnsnUEzSHrWkqfG11LQ7oDBvoCq6IJ8gFCSMd2D3J_QAncXPwRPhlEADqiJcWvsZ37aCtGnEQTaGqyOJJ2YXp22DX_9iH-BaLI-2Kx9rk0awuH19IwH_fuwr47MYfKhNf6Jj_y67zK68dvdYRShZiLVsfttVw7S0?></g></svg>