<svg xmlns="http://www.w3.org/2000/svg" xmlns:xlink="http://www.w3.org/1999/xlink" contentStyleType="text/css" data-diagram-type="STATE" height="366px" preserveAspectRatio="none" style="width:135px;height:366px;background:#FFFFFF;" version="1.1" viewBox="0 0 135 366" width="135px" zoomAndPan="magnify"><?plantuml 1.2026.3beta5?><defs/><g><path d="M19.5,86 L108.4961,86 A12.5,12.5 0 0 1 120.9961,98.5 L120.9961,112.2969 L7,112.2969 L7,98.5 A12.5,12.5 0 0 1 19.5,86" fill="#F1F1F1"/><rect fill="none" height="156.2969" rx="12.5" ry="12.5" style="stroke:#181818;stroke-width:0.5;" width="113.9961" x="7" y="86"/><line style="stroke:#181818;stroke-width:0.5;" x1="7" x2="120.9961" y1="112.2969" y2="112.2969"/><text fill="#000000" font-family="sans-serif" font-size="14" lengthAdjust="spacing" textLength="43.5518" x="42.2222" y="103.9951">Active</text><g class="start_entity" data-qualified-name="Active..start.Active" data-source-line="3" id="ent0004"><ellipse cx="58" cy="133.2969" fill="#222222" rx="10" ry="10" style="stroke:#222222;stroke-width:1;"/></g><g class="entity" data-qualified-name="Active.Running" id="ent0005"><rect fill="#F1F1F1" height="50" rx="12.5" ry="12.5" style="stroke:#181818;stroke-width:0.5;" width="77.9961" x="19" y="179.2969"/><line style="stroke:#181818;stroke-width:0.5;" x1="19" x2="96.9961" y1="205.5938" y2="205.5938"/><text fill="#000000" font-family="sans-serif" font-size="14" lengthAdjust="spacing" textLength="57.9961" x="29" y="197.292">Running</text></g><!--link *start*Active to Running--><g class="link" data-entity-1="ent0004" data-entity-2="ent0005" data-link-type="dependency" data-source-line="3" id="lnk6"><path d="M58,143.3169 C58,152.3769 58,160.7369 58,173.1269" fill="none" id="*start*Active-to-Running" style="stroke:#181818;stroke-width:1;"/><polygon fill="#181818" points="58,179.1269,62,170.1269,58,174.1269,54,170.1269,58,179.1269" style="stroke:#181818;stroke-width:1;"/></g><g class="start_entity" data-qualified-name=".start." data-source-line="1" id="ent0002"><ellipse cx="64" cy="16" fill="#222222" rx="10" ry="10" style="stroke:#222222;stroke-width:1;"/></g><g class="entity" data-qualified-name="Inactive" id="ent0007"><rect fill="#F1F1F1" height="50" rx="12.5" ry="12.5" style="stroke:#181818;stroke-width:0.5;" width="75.5557" x="26" y="302"/><line style="stroke:#181818;stroke-width:0.5;" x1="26" x2="101.5557" y1="328.2969" y2="328.2969"/><text fill="#000000" font-family="sans-serif" font-size="14" lengthAdjust="spacing" textLength="55.5557" x="36" y="319.9951">Inactive</text></g><!--link *start* to Active--><g class="link" data-entity-1="ent0002" data-entity-2="ent0002" data-link-type="dependency" data-source-line="1" id="lnk3"><path d="M64,26.13 C64,38.49 64,55.76 64,79.65" fill="none" id="*start*-to-Active" style="stroke:#181818;stroke-width:1;"/><polygon fill="#181818" points="64,85.65,68,76.65,64,80.65,60,76.65,64,85.65" style="stroke:#181818;stroke-width:1;"/></g><!--link Active to Inactive--><g class="link" data-entity-1="ent0002" data-entity-2="ent0007" data-link-type="dependency" data-source-line="5" id="lnk8"><path d="M64,242.2 C64,263.83 64,279.77 64,295.78" fill="none" id="Active-to-Inactive" style="stroke:#181818;stroke-width:1;"/><polygon fill="#181818" points="64,301.78,68,292.78,64,296.78,60,292.78,64,301.78" style="stroke:#181818;stroke-width:1;"/></g><?plantuml-src YzQALT3LjLDmJ2x9B4lbAYv9B4c5SXIgkHGKeg7oGQLvUPbvwLorN519aA1dNYAO0m00?></g></svg>