<svg xmlns="http://www.w3.org/2000/svg" xmlns:xlink="http://www.w3.org/1999/xlink" contentStyleType="text/css" data-diagram-type="JSON" height="264px" preserveAspectRatio="none" style="width:303px;height:264px;background:#FFFFFF;" version="1.1" viewBox="0 0 303 264" width="303px" zoomAndPan="magnify"><?plantuml 1.2026.3beta5?><defs/><g><rect fill="#F1F1F1" height="203.2656" rx="5" ry="5" style="stroke:#F1F1F1;stroke-width:1.5;" width="152.5898" x="10" y="10"/><text fill="#000000" font-family="sans-serif" font-size="14" font-weight="700" lengthAdjust="spacing" textLength="9.4473" x="15" y="24.9951">a</text><text fill="#000000" font-family="sans-serif" font-size="14" lengthAdjust="spacing" textLength="45.7324" x="107.2842" y="24.9951">&#9745; true</text><line style="stroke:#000000;stroke-width:1;" x1="102.2842" x2="102.2842" y1="10" y2="30.2969"/><line style="stroke:#000000;stroke-width:1;" x1="10" x2="162.5898" y1="30.2969" y2="30.2969"/><text fill="#000000" font-family="sans-serif" font-size="14" font-weight="700" lengthAdjust="spacing" textLength="36.1484" x="15" y="45.292">desc</text><text fill="#000000" font-family="sans-serif" font-size="14" lengthAdjust="spacing" textLength="8.5791" x="107.2842" y="45.292">a</text><text fill="#000000" font-family="sans-serif" font-size="14" lengthAdjust="spacing" textLength="8.8867" x="107.2842" y="61.5889">b</text><text fill="#000000" font-family="sans-serif" font-size="14" lengthAdjust="spacing" textLength="7.6973" x="107.2842" y="77.8857">c</text><text fill="#000000" font-family="sans-serif" font-size="14" lengthAdjust="spacing" textLength="8.8867" x="107.2842" y="94.1826">d</text><text fill="#000000" font-family="sans-serif" font-size="14" lengthAdjust="spacing" textLength="8.6133" x="107.2842" y="110.4795">e</text><text fill="#000000" font-family="sans-serif" font-size="14" lengthAdjust="spacing" textLength="4.9287" x="107.2842" y="126.7764">f</text><line style="stroke:#000000;stroke-width:1;" x1="102.2842" x2="102.2842" y1="30.2969" y2="132.0781"/><line style="stroke:#000000;stroke-width:1;" x1="10" x2="162.5898" y1="132.0781" y2="132.0781"/><text fill="#000000" font-family="sans-serif" font-size="14" font-weight="700" lengthAdjust="spacing" textLength="67.6074" x="15" y="147.0732">required</text><text fill="#000000" font-family="sans-serif" font-size="14" lengthAdjust="spacing" textLength="13.3506" x="107.2842" y="147.0732">&#160;&#160;&#160;</text><line style="stroke:#000000;stroke-width:1;" x1="102.2842" x2="102.2842" y1="132.0781" y2="152.375"/><ellipse cx="102.2842" cy="147.0732" fill="#000000" rx="3" ry="3" style="stroke:#000000;stroke-width:1;"/><line style="stroke:#000000;stroke-width:1;" x1="10" x2="162.5898" y1="152.375" y2="152.375"/><text fill="#000000" font-family="sans-serif" font-size="14" font-weight="700" lengthAdjust="spacing" textLength="39.751" x="15" y="167.3701">addP</text><text fill="#000000" font-family="sans-serif" font-size="14" lengthAdjust="spacing" textLength="50.3057" x="107.2842" y="167.3701">&#9744; false</text><line style="stroke:#000000;stroke-width:1;" x1="102.2842" x2="102.2842" y1="152.375" y2="172.6719"/><line style="stroke:#000000;stroke-width:1;" x1="10" x2="162.5898" y1="172.6719" y2="172.6719"/><text fill="#000000" font-family="sans-serif" font-size="14" font-weight="700" lengthAdjust="spacing" textLength="82.2842" x="15" y="187.667">properties</text><text fill="#000000" font-family="sans-serif" font-size="14" lengthAdjust="spacing" textLength="13.3506" x="107.2842" y="187.667">&#160;&#160;&#160;</text><line style="stroke:#000000;stroke-width:1;" x1="102.2842" x2="102.2842" y1="172.6719" y2="192.9688"/><ellipse cx="102.2842" cy="187.667" fill="#000000" rx="3" ry="3" style="stroke:#000000;stroke-width:1;"/><line style="stroke:#000000;stroke-width:1;" x1="10" x2="162.5898" y1="192.9688" y2="192.9688"/><text fill="#000000" font-family="sans-serif" font-size="14" font-weight="700" lengthAdjust="spacing" textLength="37.0371" x="15" y="207.9639">allOf</text><text fill="#000000" font-family="sans-serif" font-size="14" lengthAdjust="spacing" textLength="13.3506" x="107.2842" y="207.9639">&#160;&#160;&#160;</text><line style="stroke:#000000;stroke-width:1;" x1="102.2842" x2="102.2842" y1="192.9688" y2="213.2656"/><ellipse cx="102.2842" cy="207.9639" fill="#000000" rx="3" ry="3" style="stroke:#000000;stroke-width:1;"/><rect fill="none" height="203.2656" rx="5" ry="5" style="stroke:#000000;stroke-width:1.5;" width="152.5898" x="10" y="10"/><rect fill="#F1F1F1" height="60.8906" rx="5" ry="5" style="stroke:#F1F1F1;stroke-width:1.5;" width="24.6631" x="222.5898" y="132.0781"/><text fill="#000000" font-family="sans-serif" font-size="14" lengthAdjust="spacing" textLength="14.6631" x="227.5898" y="147.0732">r1</text><line style="stroke:#000000;stroke-width:1;" x1="222.5898" x2="247.2529" y1="152.375" y2="152.375"/><text fill="#000000" font-family="sans-serif" font-size="14" lengthAdjust="spacing" textLength="14.6631" x="227.5898" y="167.3701">r2</text><line style="stroke:#000000;stroke-width:1;" x1="222.5898" x2="247.2529" y1="172.6719" y2="172.6719"/><text fill="#000000" font-family="sans-serif" font-size="14" lengthAdjust="spacing" textLength="14.6631" x="227.5898" y="187.667">r3</text><rect fill="none" height="60.8906" rx="5" ry="5" style="stroke:#000000;stroke-width:1.5;" width="24.6631" x="222.5898" y="132.0781"/><rect fill="#F1F1F1" height="20.2969" rx="5" ry="5" style="stroke:#F1F1F1;stroke-width:1.5;" width="70.3262" x="222.5898" y="172.6719"/><text fill="#000000" font-family="sans-serif" font-size="14" font-weight="700" lengthAdjust="spacing" textLength="10.2607" x="227.5898" y="187.667">P</text><text fill="#000000" font-family="sans-serif" font-size="14" lengthAdjust="spacing" textLength="40.0654" x="247.8506" y="187.667">{ ... }</text><line style="stroke:#000000;stroke-width:1;" x1="242.8506" x2="242.8506" y1="172.6719" y2="192.9688"/><rect fill="none" height="20.2969" rx="5" ry="5" style="stroke:#000000;stroke-width:1.5;" width="70.3262" x="222.5898" y="172.6719"/><rect fill="#F1F1F1" height="60.8906" rx="5" ry="5" style="stroke:#F1F1F1;stroke-width:1.5;" width="50.0654" x="222.5898" y="192.9688"/><text fill="#000000" font-family="sans-serif" font-size="14" lengthAdjust="spacing" textLength="40.0654" x="227.5898" y="207.9639">{ ... }</text><line style="stroke:#000000;stroke-width:1;" x1="222.5898" x2="272.6553" y1="213.2656" y2="213.2656"/><text fill="#000000" font-family="sans-serif" font-size="14" lengthAdjust="spacing" textLength="40.0654" x="227.5898" y="228.2607">{ ... }</text><line style="stroke:#000000;stroke-width:1;" x1="222.5898" x2="272.6553" y1="233.5625" y2="233.5625"/><text fill="#000000" font-family="sans-serif" font-size="14" lengthAdjust="spacing" textLength="40.0654" x="227.5898" y="248.5576">{ ... }</text><rect fill="none" height="60.8906" rx="5" ry="5" style="stroke:#000000;stroke-width:1.5;" width="50.0654" x="222.5898" y="192.9688"/><path d="M162.5898,142.2266 L175.5898,142.2266 C192.5898,142.2266 192.5898,162.5234 215.5898,162.5234" fill="none" style="stroke:#000000;stroke-width:1;stroke-dasharray:3,3;"/><path d="M215.5898,165.6307 L217.5898,162.5234 L215.5898,159.4161 L222.5898,162.5234 L215.5898,165.6307" fill="#000000"/><path d="M162.5898,182.8203 L175.5898,182.8203 C192.5898,182.8203 192.5898,182.8203 215.5898,182.8203" fill="none" style="stroke:#000000;stroke-width:1;stroke-dasharray:3,3;"/><path d="M215.5898,185.9276 L217.5898,182.8203 L215.5898,179.713 L222.5898,182.8203 L215.5898,185.9276" fill="#000000"/><path d="M162.5898,203.1172 L175.5898,203.1172 C192.5898,203.1172 192.5898,223.4141 215.5898,223.4141" fill="none" style="stroke:#000000;stroke-width:1;stroke-dasharray:3,3;"/><path d="M215.5898,226.5214 L217.5898,223.4141 L215.5898,220.3068 L222.5898,223.4141 L215.5898,226.5214" fill="#000000"/><?plantuml-src ZL0n3iCW3Dnv1MAEaDfkdVA3TcywqDX8gH193PaGVwyJG5MsMhhXpkUpvJv4G_4TPY-Ia5pAgAkCj69NA60OML5c6FoBCJA0WGohgedmiqw4mCR7hXJrLFk5dG_iedRoh0a6uCxJrhZGDYyqBqXnmi2Dz1lTV2f9hRNC9IIt4ETkzdX3ytL_IUKaaKMF7hQdV040?></g></svg>