<svg xmlns="http://www.w3.org/2000/svg" xmlns:xlink="http://www.w3.org/1999/xlink" contentStyleType="text/css" data-diagram-type="DESCRIPTION" height="564px" preserveAspectRatio="none" style="width:427px;height:564px;background:#FFFFFF;" version="1.1" viewBox="0 0 427 564" width="427px" zoomAndPan="magnify"><?plantuml 1.2026.3beta4?><defs/><g><!--cluster web--><g class="cluster" id="web"><polygon fill="none" points="7,17,17,7,152.5381,7,152.5381,17,142.5381,97,7,97" style="stroke:#181818;stroke-width:1;"/><line style="stroke:#181818;stroke-width:1;" x1="142.5381" x2="152.5381" y1="17" y2="7"/><line style="stroke:#181818;stroke-width:1;" x1="7" x2="142.5381" y1="17" y2="17"/><line style="stroke:#181818;stroke-width:1;" x1="142.5381" x2="142.5381" y1="17" y2="97"/><text fill="#000000" font-family="sans-serif" font-size="14" font-weight="bold" lengthAdjust="spacing" textLength="91.8408" x="28.8486" y="32.9951">Web Server</text></g><!--cluster app--><g class="cluster" id="app"><polygon fill="none" points="7,157,17,147,297,147,297,157,287,237,7,237" style="stroke:#181818;stroke-width:1;"/><line style="stroke:#181818;stroke-width:1;" x1="287" x2="297" y1="157" y2="147"/><line style="stroke:#181818;stroke-width:1;" x1="7" x2="287" y1="157" y2="157"/><line style="stroke:#181818;stroke-width:1;" x1="287" x2="287" y1="157" y2="237"/><text fill="#000000" font-family="sans-serif" font-size="14" font-weight="bold" lengthAdjust="spacing" textLength="87.7598" x="103.1201" y="172.9951">App Server</text></g><!--cluster DMZ--><g class="cluster" id="DMZ"><rect fill="none" height="90" rx="2.5" ry="2.5" style="stroke:#181818;stroke-width:1;" width="140" x="7" y="287"/><path d="M52.4082,287 L52.4082,296.2969 L42.4082,306.2969 L7,306.2969 " fill="none" style="stroke:#181818;stroke-width:1;"/><text fill="#000000" font-family="sans-serif" font-size="14" font-weight="bold" lengthAdjust="spacing" textLength="35.7041" x="10" y="300.9951">DMZ</text></g><!--entity war--><g class="entity" id="war"><rect fill="#F1F1F1" height="40" rx="2.5" ry="2.5" style="stroke:#181818;stroke-width:0.5;" width="105.5381" x="27" y="37"/><polygon fill="#F1F1F1" points="115.5381,42,115.5381,56,127.5381,56,127.5381,48,121.5381,42" style="stroke:#181818;stroke-width:0.5;"/><line style="stroke:#181818;stroke-width:0.5;" x1="121.5381" x2="121.5381" y1="42" y2="48"/><line style="stroke:#181818;stroke-width:0.5;" x1="127.5381" x2="121.5381" y1="48" y2="48"/><text fill="#000000" font-family="sans-serif" font-size="14" font-weight="bold" lengthAdjust="spacing" text-anchor="middle" textLength="96.5439" x="79.769" y="61.2">webapp.war</text></g><!--entity jar--><g class="entity" id="jar"><rect fill="#F1F1F1" height="40" rx="2.5" ry="2.5" style="stroke:#181818;stroke-width:0.5;" width="100" x="27" y="177"/><polygon fill="#F1F1F1" points="110,182,110,196,122,196,122,188,116,182" style="stroke:#181818;stroke-width:0.5;"/><line style="stroke:#181818;stroke-width:0.5;" x1="116" x2="116" y1="182" y2="188"/><line style="stroke:#181818;stroke-width:0.5;" x1="122" x2="116" y1="188" y2="188"/><text fill="#000000" font-family="sans-serif" font-size="14" font-weight="bold" lengthAdjust="spacing" text-anchor="middle" textLength="55.959" x="77" y="201.2">app.jar</text></g><!--entity mon--><g class="entity" id="mon"><rect fill="#F1F1F1" height="40" rx="2.5" ry="2.5" style="stroke:#181818;stroke-width:0.5;" width="100" x="177" y="177"/><text fill="#000000" font-family="sans-serif" font-size="14" font-weight="bold" lengthAdjust="spacing" text-anchor="middle" textLength="86.3174" x="227" y="201.2">Monitoring</text></g><!--entity proxy--><g class="entity" id="proxy"><rect fill="#F1F1F1" height="40" rx="2.5" ry="2.5" style="stroke:#181818;stroke-width:0.5;" width="100" x="27" y="317"/><rect fill="#F1F1F1" height="10" style="stroke:#181818;stroke-width:0.5;" width="15" x="122" y="322"/><rect fill="#F1F1F1" height="2" style="stroke:#181818;stroke-width:0.5;" width="4" x="120" y="324"/><rect fill="#F1F1F1" height="2" style="stroke:#181818;stroke-width:0.5;" width="4" x="120" y="328"/><text fill="#000000" font-family="sans-serif" font-size="14" font-weight="bold" lengthAdjust="spacing" text-anchor="middle" textLength="44.7002" x="77" y="341.2">proxy</text></g><!--entity db--><g class="entity" id="db"><path d="M7,437 C7,427 57,427 57,427 C57,427 107,427 107,437 L107,457 C107,467 57,467 57,467 C57,467 7,467 7,457 L7,437 " fill="#F1F1F1" style="stroke:#181818;stroke-width:0.5;"/><path d="M7,437 C7,447 57,447 57,447 C57,447 107,447 107,437 " fill="none" style="stroke:#181818;stroke-width:0.5;"/><text fill="#000000" font-family="sans-serif" font-size="14" font-weight="bold" lengthAdjust="spacing" text-anchor="middle" textLength="53.9629" x="57" y="451.2">MySQL</text></g><!--entity fs--><g class="entity" id="fs"><rect fill="#F1F1F1" height="40" rx="25.918" ry="25.918" style="stroke:#181818;stroke-width:0.5;" width="103.6719" x="157" y="427"/><text fill="#000000" font-family="sans-serif" font-size="14" font-weight="bold" lengthAdjust="spacing" text-anchor="middle" textLength="95.792" x="208.8359" y="451.2">File Storage</text></g><!--entity docs--><g class="entity" id="docs"><path d="M313.1719,427 L351.6719,427 A2.5,2.5 0 0 1 354.1719,429.5 L361.1719,448 L416.5537,448 A2.5,2.5 0 0 1 419.0537,450.5 L419.0537,464.5 A2.5,2.5 0 0 1 416.5537,467 L313.1719,467 A2.5,2.5 0 0 1 310.6719,464.5 L310.6719,429.5 " fill="#F1F1F1" style="stroke:#181818;stroke-width:0.5;"/><line style="stroke:#181818;stroke-width:0.5;" x1="310.6719" x2="419.0537" y1="448" y2="448"/><text fill="#000000" font-family="sans-serif" font-size="14" font-weight="bold" lengthAdjust="spacing" text-anchor="middle" textLength="98.6631" x="364.8628" y="451.2">Shared Docs</text></g><!--entity mq--><g class="entity" id="mq"><path d="M12,517 C17,517 17,537 17,537 C17,537 17,557 12,557 " fill="#F1F1F1" style="stroke:#181818;stroke-width:0.5;"/><path d="M133.8018,517 C128.8018,517 128.8018,537 128.8018,537 C128.8018,537 128.8018,557 133.8018,557 " fill="none" style="stroke:#181818;stroke-width:0.5;"/><text fill="#000000" font-family="sans-serif" font-size="14" font-weight="bold" lengthAdjust="spacing" text-anchor="middle" textLength="124.7559" x="72.9009" y="541.2">Message Queue</text></g><!--entity docker--><g class="entity" id="docker"><rect fill="#F1F1F1" height="40" rx="2.5" ry="2.5" style="stroke:none;stroke-width:0.5;" width="100" x="188.8018" y="517"/><path d="M173.8018,517 L186.3018,517 A2.5,2.5 0 0 1 188.8018,519.5 L188.8018,554.5 A2.5,2.5 0 0 0 191.3018,557 L286.3018,557 A2.5,2.5 0 0 0 288.8018,554.5 L288.8018,519.5 A2.5,2.5 0 0 1 291.3018,517 L303.8018,517 " fill="none" style="stroke:#181818;stroke-width:0.5;"/><text fill="#000000" font-family="sans-serif" font-size="14" font-weight="bold" lengthAdjust="spacing" text-anchor="middle" textLength="55.248" x="238.8018" y="541.2">Docker</text></g><!--link web to app--><g class="link" id="web-to-app"><path d="M79.769,97 C152,147 152,147 152,147 " fill="none" id="web-to-app" style="stroke:#181818;stroke-width:1;"/><polygon fill="#181818" points="142.3233,145.1664,152,147,146.8766,138.5886,142.3233,145.1664" style="stroke:#181818;stroke-width:1;"/></g><!--link app to db--><g class="link" id="app-to-db"><path d="M152,237 C57,427 57,427 57,427 " fill="none" id="app-to-db" style="stroke:#181818;stroke-width:1;"/><polygon fill="#181818" points="57.4472,417.1613,57,427,64.6026,420.739,57.4472,417.1613" style="stroke:#181818;stroke-width:1;"/></g><!--link app to fs--><g class="link" id="app-to-fs"><path d="M152,237 C208.8359,427 208.8359,427 208.8359,427 " fill="none" id="app-to-fs" style="stroke:#181818;stroke-width:1;"/><polygon fill="#181818" points="202.4244,419.5239,208.8359,427,210.0889,417.2312,202.4244,419.5239" style="stroke:#181818;stroke-width:1;"/></g><!--link app to mq--><g class="link" id="app-to-mq"><path d="M152,237 C72.9009,517 72.9009,517 72.9009,517 " fill="none" id="app-to-mq" style="stroke:#181818;stroke-width:1;"/><polygon fill="#181818" points="71.4982,507.2515,72.9009,517,79.1969,509.4264,71.4982,507.2515" style="stroke:#181818;stroke-width:1;"/></g><!--link mq to docker--><g class="link" id="mq-to-docker"><path d="M138.8018,537 C188.8018,537 188.8018,537 188.8018,537 " fill="none" id="mq-to-docker" style="stroke:#181818;stroke-width:1;"/><polygon fill="#181818" points="179.8018,541,188.8018,537,179.8018,533,179.8018,541" style="stroke:#181818;stroke-width:1;"/></g><?plantuml-src NP0nRiCm34LtdOBGdXwXG86WKpq47WfqeoKwTHEBCkKq3OhSFQJi044cV_hpaPzA70dy9tNGaloIUC02Pot_7G3AFFGOPl3w1tD-EUFQWEAkBbNsBUT7LjkUM0D_Lb2_vkqfgT5m6cQM8UshDtBIeH5dxB3euERIxZwg4pjNj54nyE_3aQ1TgchsnVLyZ2JWssyKYh3bK1PEXUi5H-MspPUlmGAFcPC5oC9_5rqvdUXa-wWKMx6pSaaqwLuC1wKv7DO3OvNEsIDjDgzsiBEZJMlGkzHOTwbZncdnAti3?></g></svg>