<svg xmlns="http://www.w3.org/2000/svg" xmlns:xlink="http://www.w3.org/1999/xlink" contentStyleType="text/css" data-diagram-type="ACTIVITY" height="273px" preserveAspectRatio="none" style="width:158px;height:273px;background:#FFFFFF;" version="1.1" viewBox="0 0 158 273" width="158px" zoomAndPan="magnify"><?plantuml 1.2026.3beta5?><defs/><g><rect fill="#F1F1F1" height="65.9063" rx="12.5" ry="12.5" style="stroke:#181818;stroke-width:0.5;" width="122.2754" x="16" y="16"/><text fill="#000000" font-family="sans-serif" font-size="12" lengthAdjust="spacing" textLength="79.4004" x="29.8145" y="39.1387">Creole Table </text><text fill="#000000" font-family="sans-serif" font-size="12" lengthAdjust="spacing" textLength="68.1035" x="29.8145" y="53.1074"> multi-line1</text><text fill="#000000" font-family="sans-serif" font-size="12" lengthAdjust="spacing" textLength="7.3535" x="116.8438" y="39.1387">a</text><text fill="#000000" font-family="sans-serif" font-size="12" lengthAdjust="spacing" textLength="32.6426" x="29.8145" y="67.0762">Line2</text><text fill="#000000" font-family="sans-serif" font-size="12" lengthAdjust="spacing" textLength="7.6172" x="116.8438" y="67.0762">b</text><line style="stroke:#000000;stroke-width:0.5;" x1="26" x2="128.2754" y1="28" y2="28"/><line style="stroke:#000000;stroke-width:0.5;" x1="26" x2="128.2754" y1="55.9375" y2="55.9375"/><line style="stroke:#000000;stroke-width:0.5;" x1="26" x2="128.2754" y1="69.9063" y2="69.9063"/><line style="stroke:#000000;stroke-width:0.5;" x1="26" x2="26" y1="28" y2="69.9063"/><line style="stroke:#000000;stroke-width:0.5;" x1="113.0293" x2="113.0293" y1="28" y2="69.9063"/><line style="stroke:#000000;stroke-width:0.5;" x1="128.2754" x2="128.2754" y1="28" y2="69.9063"/><rect fill="#F1F1F1" height="65.9063" rx="12.5" ry="12.5" style="stroke:#181818;stroke-width:0.5;" width="122.2754" x="16" y="101.9063"/><text fill="#000000" font-family="sans-serif" font-size="12" lengthAdjust="spacing" textLength="79.4004" x="29.8145" y="125.0449">Creole Table </text><text fill="#000000" font-family="sans-serif" font-size="12" lengthAdjust="spacing" textLength="68.1035" x="29.8145" y="139.0137"> multi-line1</text><text fill="#000000" font-family="sans-serif" font-size="12" lengthAdjust="spacing" textLength="7.3535" x="116.8438" y="125.0449">a</text><text fill="#000000" font-family="sans-serif" font-size="12" lengthAdjust="spacing" textLength="32.6426" x="29.8145" y="152.9824">Line2</text><text fill="#000000" font-family="sans-serif" font-size="12" lengthAdjust="spacing" textLength="7.6172" x="116.8438" y="152.9824">b</text><line style="stroke:#000000;stroke-width:0.5;" x1="26" x2="128.2754" y1="113.9063" y2="113.9063"/><line style="stroke:#000000;stroke-width:0.5;" x1="26" x2="128.2754" y1="141.8438" y2="141.8438"/><line style="stroke:#000000;stroke-width:0.5;" x1="26" x2="128.2754" y1="155.8125" y2="155.8125"/><line style="stroke:#000000;stroke-width:0.5;" x1="26" x2="26" y1="113.9063" y2="155.8125"/><line style="stroke:#000000;stroke-width:0.5;" x1="113.0293" x2="113.0293" y1="113.9063" y2="155.8125"/><line style="stroke:#000000;stroke-width:0.5;" x1="128.2754" x2="128.2754" y1="113.9063" y2="155.8125"/><rect fill="#F1F1F1" height="65.9063" rx="12.5" ry="12.5" style="stroke:#181818;stroke-width:0.5;" width="111.1719" x="21.5518" y="187.8125"/><text fill="#000000" font-family="sans-serif" font-size="12" lengthAdjust="spacing" textLength="75.5859" x="31.5518" y="208.9512">Creole Table</text><text fill="#000000" font-family="sans-serif" font-size="12" lengthAdjust="spacing" textLength="91.1719" x="31.5518" y="222.9199"> multi-line1| a |</text><text fill="#000000" font-family="sans-serif" font-size="12" lengthAdjust="spacing" textLength="32.6426" x="35.3662" y="238.8887">Line2</text><text fill="#000000" font-family="sans-serif" font-size="12" lengthAdjust="spacing" textLength="7.6172" x="75.6377" y="238.8887">b</text><line style="stroke:#000000;stroke-width:0.5;" x1="31.5518" x2="87.0693" y1="227.75" y2="227.75"/><line style="stroke:#000000;stroke-width:0.5;" x1="31.5518" x2="87.0693" y1="241.7188" y2="241.7188"/><line style="stroke:#000000;stroke-width:0.5;" x1="31.5518" x2="31.5518" y1="227.75" y2="241.7188"/><line style="stroke:#000000;stroke-width:0.5;" x1="71.8232" x2="71.8232" y1="227.75" y2="241.7188"/><line style="stroke:#000000;stroke-width:0.5;" x1="87.0693" x2="87.0693" y1="227.75" y2="241.7188"/><line style="stroke:#181818;stroke-width:1;" x1="77.1377" x2="77.1377" y1="81.9063" y2="101.9063"/><polygon fill="#181818" points="73.1377,91.9063,77.1377,101.9063,81.1377,91.9063,77.1377,95.9063" style="stroke:#181818;stroke-width:1;"/><line style="stroke:#181818;stroke-width:1;" x1="77.1377" x2="77.1377" y1="167.8125" y2="187.8125"/><polygon fill="#181818" points="73.1377,177.8125,77.1377,187.8125,81.1377,177.8125,77.1377,181.8125" style="stroke:#181818;stroke-width:1;"/><?plantuml-src XSon2i8m58NXFKzn5r6761j1f4xYwkZO9MrlDPZSbEHM4VBmMXT1Xuu7plVFuT2Qdh65BWOFL-O-bKfr8Gv-rJj3F7Yt8cHLx0gzLNvmRAMpXBA961nADhN39EiORaZID6plbf-ojUOIZKyoMMfGwhNUY3B3yOFWF2AeAe9liCXW85UKuVHUEaCDUIzAyOl-ZPWWCyB7-5ui9-WB?></g></svg>