<svg xmlns="http://www.w3.org/2000/svg" xmlns:xlink="http://www.w3.org/1999/xlink" contentStyleType="text/css" data-diagram-type="STATE" height="287px" preserveAspectRatio="none" style="width:274px;height:287px;background:#FFFFFF;" version="1.1" viewBox="0 0 274 287" width="274px" zoomAndPan="magnify"><?plantuml 1.2026.3beta5?><defs/><g><g class="entity" data-qualified-name="State1" id="ent0002"><rect fill="#F1F1F1" height="106.1406" rx="12.5" ry="12.5" style="stroke:#181818;stroke-width:0.5;" width="151.7656" x="7" y="86"/><line style="stroke:#181818;stroke-width:0.5;" x1="7" x2="158.7656" y1="112.2969" y2="112.2969"/><text fill="#000000" font-family="sans-serif" font-size="14" lengthAdjust="spacing" textLength="45.9648" x="59.9004" y="103.9951">State1</text><text fill="#000000" font-family="sans-serif" font-size="12" lengthAdjust="spacing" textLength="84.7266" x="12" y="128.4355">this is a string</text><text fill="#000000" font-family="sans-serif" font-size="12" lengthAdjust="spacing" textLength="41.1445" x="12" y="142.4043">adding</text><text fill="#000000" font-family="sans-serif" font-size="12" font-weight="700" lengthAdjust="spacing" textLength="72.293" x="56.959" y="142.4043">some code</text><text fill="#000000" font-family="sans-serif" font-size="12" lengthAdjust="spacing" textLength="4.043" x="129.252" y="142.4043">:</text><text fill="#000000" font-family="sans-serif" font-size="12" lengthAdjust="spacing" textLength="50.7949" x="12" y="156.373">main() {</text><text fill="#000000" font-family="sans-serif" font-size="12" lengthAdjust="spacing" textLength="124.1367" x="19.6289" y="170.3418">printf("Hello world");</text><text fill="#000000" font-family="sans-serif" font-size="12" lengthAdjust="spacing" textLength="7.6348" x="12" y="184.3105">}</text></g><g class="entity" data-qualified-name="State2" id="ent0003"><rect fill="#F1F1F1" height="50" rx="12.5" ry="12.5" style="stroke:#181818;stroke-width:0.5;" width="65.9648" x="194" y="114"/><line style="stroke:#181818;stroke-width:0.5;" x1="194" x2="259.9648" y1="140.2969" y2="140.2969"/><text fill="#000000" font-family="sans-serif" font-size="14" lengthAdjust="spacing" textLength="45.9648" x="204" y="131.9951">State2</text></g><g class="start_entity" data-qualified-name=".start." data-source-line="1" id="ent0002"><ellipse cx="83" cy="16" fill="#222222" rx="10" ry="10" style="stroke:#222222;stroke-width:1;"/></g><g class="end_entity" data-qualified-name=".end." data-source-line="2" id="ent0004"><ellipse cx="155" cy="262" fill="none" rx="11" ry="11" style="stroke:#222222;stroke-width:1;"/><ellipse cx="155" cy="262" fill="#222222" rx="6" ry="6" style="stroke:#222222;stroke-width:1;"/></g><!--link *start* to State1--><g class="link" data-entity-1="ent0002" data-entity-2="ent0002" data-link-type="dependency" data-source-line="1" id="lnk3"><path d="M83,26.09 C83,38.9 83,57.23 83,79.93" fill="none" id="*start*-to-State1" style="stroke:#181818;stroke-width:1;"/><polygon fill="#181818" points="83,85.93,87,76.93,83,80.93,79,76.93,83,85.93" style="stroke:#181818;stroke-width:1;"/></g><!--link State1 to *end*--><g class="link" data-entity-1="ent0002" data-entity-2="ent0004" data-link-type="dependency" data-source-line="2" id="lnk4"><path d="M113.95,192.02 C127.83,215.33 139.6518,235.2038 147.1018,247.7238" fill="none" id="State1-to-*end*" style="stroke:#181818;stroke-width:1;"/><polygon fill="#181818" points="150.17,252.88,149.0052,243.1003,147.6132,248.5832,142.1303,247.1912,150.17,252.88" style="stroke:#181818;stroke-width:1;"/></g><!--link State1 to State2--><g class="link" data-entity-1="ent0002" data-entity-2="ent0003" data-link-type="dependency" data-source-line="6" id="lnk5"><path d="M159.22,139 C170.78,139 176.34,139 187.9,139" fill="none" id="State1-to-State2" style="stroke:#181818;stroke-width:1;"/><polygon fill="#181818" points="193.9,139,184.9,135,188.9,139,184.9,143,193.9,139" style="stroke:#181818;stroke-width:1;"/></g><!--link State2 to *end*--><g class="link" data-entity-1="ent0003" data-entity-2="ent0004" data-link-type="dependency" data-source-line="7" id="lnk6"><path d="M212.6,164.2 C196.19,191.78 173.3269,230.193 162.7769,247.933" fill="none" id="State2-to-*end*" style="stroke:#181818;stroke-width:1;"/><polygon fill="#181818" points="159.71,253.09,167.7483,247.3991,162.2657,248.7925,160.8723,243.31,159.71,253.09" style="stroke:#181818;stroke-width:1;"/></g><?plantuml-src HKwx2eGm4Epp5OELBbYSfGTNNt-bMeHBxWp4HCo2XVZlnZSix3mOPYfgaESlV5YoVeZzRKf5pKbBS6i2uaa47epxtuvKAd8G1TzfVBtIH6NjQj59uz8Cqug1FgRuboPlRQt7w0UhakovUhEuMeyPnIuKvum5?></g></svg>