<svg xmlns="http://www.w3.org/2000/svg" xmlns:xlink="http://www.w3.org/1999/xlink" contentStyleType="text/css" data-diagram-type="STATE" height="404px" preserveAspectRatio="none" style="width:210px;height:404px;background:#FFFFFF;" version="1.1" viewBox="0 0 210 404" width="210px" zoomAndPan="magnify"><?plantuml 1.2026.3beta5?><defs/><g><!--cluster Active--><g class="cluster" data-qualified-name="Active" id="__e0__"><path d="M55.5,81 L182.5,81 A12.5,12.5 0 0 1 195,93.5 L195,102.2969 L43,102.2969 L43,93.5 A12.5,12.5 0 0 1 55.5,81" fill="#F1F1F1"/><rect fill="none" height="309" rx="12.5" ry="12.5" style="stroke:#181818;stroke-width:0.5;" width="152" x="43" y="81"/><line style="stroke:#181818;stroke-width:0.5;" x1="43" x2="195" y1="102.2969" y2="102.2969"/><text fill="#000000" font-family="sans-serif" font-size="14" lengthAdjust="spacing" textLength="43.5518" x="97.2241" y="97.9951">Active</text></g><g class="start_entity" data-qualified-name="Active..start.Active" id="__e1__"><ellipse cx="153" cy="135" fill="#222222" rx="10" ry="10" style="stroke:#222222;stroke-width:1;"/></g><g class="entity" data-qualified-name="Active.Idle" id="__e2__"><rect fill="#F1F1F1" height="50" rx="12.5" ry="12.5" style="stroke:#181818;stroke-width:0.5;" width="50" x="109" y="206"/><line style="stroke:#181818;stroke-width:0.5;" x1="109" x2="159" y1="232.2969" y2="232.2969"/><text fill="#000000" font-family="sans-serif" font-size="14" lengthAdjust="spacing" textLength="25.5186" x="121.2407" y="223.9951">Idle</text></g><g class="entity" data-qualified-name="Active.Processing" id="__e3__"><rect fill="#F1F1F1" height="50" rx="12.5" ry="12.5" style="stroke:#181818;stroke-width:0.5;" width="95.3115" x="75.5" y="316"/><line style="stroke:#181818;stroke-width:0.5;" x1="75.5" x2="170.8115" y1="342.2969" y2="342.2969"/><text fill="#000000" font-family="sans-serif" font-size="14" lengthAdjust="spacing" textLength="75.3115" x="85.5" y="333.9951">Processing</text></g><ellipse cx="97" cy="135" fill="#F1F1F1" rx="11" ry="11" style="stroke:#181818;stroke-width:0.5;"/><text fill="#000000" font-family="sans-serif" font-size="14" lengthAdjust="spacing" textLength="10.5273" x="91.7363" y="139.8467">H</text><g class="start_entity" data-qualified-name=".start." id="__e0__"><ellipse cx="16" cy="32" fill="#222222" rx="10" ry="10" style="stroke:#222222;stroke-width:1;"/></g><g class="entity" data-qualified-name="Paused" id="__e4__"><rect fill="#F1F1F1" height="50" rx="12.5" ry="12.5" style="stroke:#181818;stroke-width:0.5;" width="70.6885" x="61.5" y="7"/><line style="stroke:#181818;stroke-width:0.5;" x1="61.5" x2="132.1885" y1="33.2969" y2="33.2969"/><text fill="#000000" font-family="sans-serif" font-size="14" lengthAdjust="spacing" textLength="50.6885" x="71.5" y="24.9951">Paused</text></g><!--link *start* to Active--><g class="link" data-entity-1="__e0__" data-entity-2="__e0__" data-link-type="dependency" id="__l0__"><path d="M18.98,41.61 C23.15,53.63 30.9725,76.2 37.8413,96.0225 C39.5584,100.9781 41.216,105.762 42.742,110.1664 C42.7897,110.3041 40.873,104.772 40.9204,104.9089" fill="none" id="*start*-to-Active" style="stroke:#181818;stroke-width:1;"/><polygon fill="#181818" points="42.8847,110.5782,43.7179,100.7647,41.2478,105.8538,36.1587,103.3837,42.8847,110.5782" style="stroke:#181818;stroke-width:1;"/></g><!--link *start*Active to Idle--><g class="link" data-entity-1="__e1__" data-entity-2="__e2__" data-link-type="dependency" id="__l1__"><path d="M151.18,145.01 C148.37,158.89 144.0898,180.0891 140.0698,199.9591" fill="none" id="*start*Active-to-Idle" style="stroke:#181818;stroke-width:1;"/><polygon fill="#181818" points="138.88,205.84,144.5852,197.8119,139.8715,200.9393,136.7441,196.2255,138.88,205.84" style="stroke:#181818;stroke-width:1;"/></g><!--link Idle to Processing--><g class="link" data-entity-1="__e2__" data-entity-2="__e3__" data-link-type="dependency" id="__l2__"><path d="M131.53,256.24 C129.72,274.02 127.8783,292.1109 126.0683,309.8709" fill="none" id="Idle-to-Processing" style="stroke:#181818;stroke-width:1;"/><polygon fill="#181818" points="125.46,315.84,130.3519,307.2919,125.9669,310.8658,122.3931,306.4808,125.46,315.84" style="stroke:#181818;stroke-width:1;"/></g><!--link Active to Paused--><g class="link" data-entity-1="__e0__" data-entity-2="__e4__" data-link-type="dependency" id="__l3__"><path d="M52.97,80.9251 C53.4436,79.07 53.9764,77.231 54.5747,75.4204 C55.7714,71.7994 57.23,68.2925 59,65 C60.47,62.27 58.4631,64.2994 60.4831,61.8494" fill="none" id="Active-to-Paused" style="stroke:#181818;stroke-width:1;"/><polygon fill="#181818" points="64.3,57.22,55.4884,61.6195,61.1193,61.0778,61.6609,66.7087,64.3,57.22" style="stroke:#181818;stroke-width:1;"/></g><!--link Paused to *historical*Active--><g class="link" data-entity-1="__e4__" data-entity-2="ent0011" data-link-type="dependency" id="__l4__"><path d="M97,57.19 C97,78.43 97,102.29 97,117.78" fill="none" id="Paused-to-*historical*Active" style="stroke:#181818;stroke-width:1;"/><polygon fill="#181818" points="97,123.78,101,114.78,97,118.78,93,114.78,97,123.78" style="stroke:#181818;stroke-width:1;"/></g></g></svg>