<svg xmlns="http://www.w3.org/2000/svg" xmlns:xlink="http://www.w3.org/1999/xlink" contentStyleType="text/css" data-diagram-type="STATE" height="454px" preserveAspectRatio="none" style="width:214px;height:454px;background:#FFFFFF;" version="1.1" viewBox="0 0 214 454" width="214px" zoomAndPan="magnify"><?plantuml 1.2026.3beta5?><defs/><g><!--cluster Active--><g class="cluster" data-qualified-name="Active" id="__e0__"><path d="M93,86 L200.5,86 A12.5,12.5 0 0 1 213,98.5 L213,112.2969 L80.5,112.2969 L80.5,98.5 A12.5,12.5 0 0 1 93,86" fill="#F1F1F1"/><rect fill="none" height="244.2969" rx="12.5" ry="12.5" style="stroke:#181818;stroke-width:0.5;" width="132.5" x="80.5" y="86"/><line style="stroke:#181818;stroke-width:0.5;" x1="80.5" x2="213" y1="112.2969" y2="112.2969"/><text fill="#000000" font-family="sans-serif" font-size="14" lengthAdjust="spacing" textLength="43.5518" x="124.9741" y="103.9951">Active</text></g><g class="start_entity" data-qualified-name="Active..start.Active" id="__e1__"><ellipse cx="140" cy="134.2969" fill="#222222" rx="10" ry="10" style="stroke:#222222;stroke-width:1;"/></g><g class="entity" data-qualified-name="Active.Idle" id="__e2__"><rect fill="#F1F1F1" height="50" rx="12.5" ry="12.5" style="stroke:#181818;stroke-width:0.5;" width="50" x="115" y="181.2969"/><line style="stroke:#181818;stroke-width:0.5;" x1="115" x2="165" y1="207.5938" y2="207.5938"/><text fill="#000000" font-family="sans-serif" font-size="14" lengthAdjust="spacing" textLength="25.5186" x="127.2407" y="199.292">Idle</text></g><g class="entity" data-qualified-name="Active.Processing" id="__e3__"><rect fill="#F1F1F1" height="50" rx="12.5" ry="12.5" style="stroke:#181818;stroke-width:0.5;" width="95.3115" x="92.5" y="267.2969"/><line style="stroke:#181818;stroke-width:0.5;" x1="92.5" x2="187.8115" y1="293.5938" y2="293.5938"/><text fill="#000000" font-family="sans-serif" font-size="14" lengthAdjust="spacing" textLength="75.3115" x="102.5" y="285.292">Processing</text></g><ellipse cx="179" cy="134.2969" fill="#F1F1F1" rx="11" ry="11" style="stroke:#181818;stroke-width:0.5;"/><text fill="#000000" font-family="sans-serif" font-size="14" lengthAdjust="spacing" textLength="10.5273" x="173.7363" y="139.1437">H</text><!--link *start*Active to Idle--><g class="link" data-entity-1="__e1__" data-entity-2="__e2__" data-link-type="dependency" id="__l0__"><path d="M140,144.4469 C140,153.7169 140,162.4369 140,175.0769" fill="none" id="*start*Active-to-Idle" style="stroke:#181818;stroke-width:1;"/><polygon fill="#181818" points="140,181.0769,144,172.0769,140,176.0769,136,172.0769,140,181.0769" style="stroke:#181818;stroke-width:1;"/></g><!--link Idle to Processing--><g class="link" data-entity-1="__e2__" data-entity-2="__e3__" data-link-type="dependency" id="__l1__"><path d="M140,231.5969 C140,242.7369 140,249.9169 140,261.0569" fill="none" id="Idle-to-Processing" style="stroke:#181818;stroke-width:1;"/><polygon fill="#181818" points="140,267.0569,144,258.0569,140,262.0569,136,258.0569,140,267.0569" style="stroke:#181818;stroke-width:1;"/></g><g class="start_entity" data-qualified-name=".start." id="__e0__"><ellipse cx="147" cy="16" fill="#222222" rx="10" ry="10" style="stroke:#222222;stroke-width:1;"/></g><g class="entity" data-qualified-name="Paused" id="__e4__"><rect fill="#F1F1F1" height="50" rx="12.5" ry="12.5" style="stroke:#181818;stroke-width:0.5;" width="70.6885" x="111.5" y="390"/><line style="stroke:#181818;stroke-width:0.5;" x1="111.5" x2="182.1885" y1="416.2969" y2="416.2969"/><text fill="#000000" font-family="sans-serif" font-size="14" lengthAdjust="spacing" textLength="50.6885" x="121.5" y="407.9951">Paused</text></g><!--link *start* to Active--><g class="link" data-entity-1="__e0__" data-entity-2="__e0__" data-link-type="dependency" id="__l2__"><path d="M147,26.16 C147,38.17 147,54.69 147,79.85" fill="none" id="*start*-to-Active" style="stroke:#181818;stroke-width:1;"/><polygon fill="#181818" points="147,85.85,151,76.85,147,80.85,143,76.85,147,85.85" style="stroke:#181818;stroke-width:1;"/></g><!--link Active to Paused--><g class="link" data-entity-1="__e0__" data-entity-2="__e4__" data-link-type="dependency" id="__l3__"><path d="M147,330.03 C147,352.74 147,368.2 147,383.73" fill="none" id="Active-to-Paused" style="stroke:#181818;stroke-width:1;"/><polygon fill="#181818" points="147,389.73,151,380.73,147,384.73,143,380.73,147,389.73" style="stroke:#181818;stroke-width:1;"/></g><!--link Paused to *historical*Active--><g class="link" data-entity-1="__e4__" data-entity-2="ent0011" data-link-type="dependency" id="__l4__"><path d="M111.38,396.73 C94.18,386.61 74.77,372.21 63,354 C34.56,310.02 32.898,250.0585 33.448,225.0685" fill="none" id="Paused-to-*historical*Active" style="stroke:#181818;stroke-width:1;"/><polygon fill="#181818" points="33.58,219.07,29.3829,227.9798,33.47,224.0688,37.381,228.1558,33.58,219.07" style="stroke:#181818;stroke-width:1;"/></g></g></svg>