<svg xmlns="http://www.w3.org/2000/svg" xmlns:xlink="http://www.w3.org/1999/xlink" contentStyleType="text/css" data-diagram-type="CLASS" height="374px" preserveAspectRatio="none" style="width:663px;height:374px;background:#FFFFFF;" version="1.1" viewBox="0 0 663 374" width="663px" zoomAndPan="magnify"><?plantuml 1.2026.3beta5?><defs/><g><!--class HashMap--><g class="entity" data-qualified-name="HashMap" data-source-line="1" id="ent0002"><rect fill="#F1F1F1" height="48" rx="2.5" ry="2.5" style="stroke:#181818;stroke-width:0.5;" width="120.7109" x="141" y="162"/><ellipse cx="156" cy="178" fill="#ADD1B2" rx="11" ry="11" style="stroke:#181818;stroke-width:1;"/><path d="M158.9688,183.6406 Q158.3906,183.9375 157.75,184.0781 Q157.1094,184.2344 156.4063,184.2344 Q153.9063,184.2344 152.5781,182.5938 Q151.2656,180.9375 151.2656,177.8125 Q151.2656,174.6875 152.5781,173.0313 Q153.9063,171.375 156.4063,171.375 Q157.1094,171.375 157.75,171.5313 Q158.4063,171.6875 158.9688,171.9844 L158.9688,174.7031 Q158.3438,174.125 157.75,173.8594 Q157.1563,173.5781 156.5313,173.5781 Q155.1875,173.5781 154.5,174.6563 Q153.8125,175.7188 153.8125,177.8125 Q153.8125,179.9063 154.5,180.9844 Q155.1875,182.0469 156.5313,182.0469 Q157.1563,182.0469 157.75,181.7813 Q158.3438,181.5 158.9688,180.9219 L158.9688,183.6406 Z " fill="#000000"/><text fill="#000000" font-family="sans-serif" font-size="14" lengthAdjust="spacing" textLength="64.8184" x="170" y="182.8467">HashMap</text><rect fill="#FFFFFF" height="15.9688" style="stroke:#181818;stroke-width:1;stroke-dasharray:2,2;" width="21.8926" x="242.8184" y="159"/><text fill="#000000" font-family="sans-serif" font-size="12" font-style="italic" lengthAdjust="spacing" textLength="19.8926" x="243.8184" y="171.1387">K,V</text><line style="stroke:#181818;stroke-width:0.5;" x1="142" x2="260.7109" y1="194" y2="194"/><line style="stroke:#181818;stroke-width:0.5;" x1="142" x2="260.7109" y1="202" y2="202"/></g><!--class V1--><g class="entity" data-qualified-name="V1" data-source-line="2" id="ent0003"><rect fill="#F1F1F1" height="48" rx="2.5" ry="2.5" style="stroke:#181818;stroke-width:0.5;" width="50.4844" x="176" y="10"/><ellipse cx="191" cy="26" fill="#ADD1B2" rx="11" ry="11" style="stroke:#181818;stroke-width:1;"/><path d="M193.9688,31.6406 Q193.3906,31.9375 192.75,32.0781 Q192.1094,32.2344 191.4063,32.2344 Q188.9063,32.2344 187.5781,30.5938 Q186.2656,28.9375 186.2656,25.8125 Q186.2656,22.6875 187.5781,21.0313 Q188.9063,19.375 191.4063,19.375 Q192.1094,19.375 192.75,19.5313 Q193.4063,19.6875 193.9688,19.9844 L193.9688,22.7031 Q193.3438,22.125 192.75,21.8594 Q192.1563,21.5781 191.5313,21.5781 Q190.1875,21.5781 189.5,22.6563 Q188.8125,23.7188 188.8125,25.8125 Q188.8125,27.9063 189.5,28.9844 Q190.1875,30.0469 191.5313,30.0469 Q192.1563,30.0469 192.75,29.7813 Q193.3438,29.5 193.9688,28.9219 L193.9688,31.6406 Z " fill="#000000"/><text fill="#000000" font-family="sans-serif" font-size="14" lengthAdjust="spacing" textLength="18.4844" x="205" y="30.8467">V1</text><line style="stroke:#181818;stroke-width:0.5;" x1="177" x2="225.4844" y1="42" y2="42"/><line style="stroke:#181818;stroke-width:0.5;" x1="177" x2="225.4844" y1="50" y2="50"/></g><!--class V2--><g class="entity" data-qualified-name="V2" data-source-line="3" id="ent0006"><rect fill="#F1F1F1" height="48" rx="2.5" ry="2.5" style="stroke:#181818;stroke-width:0.5;" width="50.4844" x="341" y="162"/><ellipse cx="356" cy="178" fill="#ADD1B2" rx="11" ry="11" style="stroke:#181818;stroke-width:1;"/><path d="M358.9688,183.6406 Q358.3906,183.9375 357.75,184.0781 Q357.1094,184.2344 356.4063,184.2344 Q353.9063,184.2344 352.5781,182.5938 Q351.2656,180.9375 351.2656,177.8125 Q351.2656,174.6875 352.5781,173.0313 Q353.9063,171.375 356.4063,171.375 Q357.1094,171.375 357.75,171.5313 Q358.4063,171.6875 358.9688,171.9844 L358.9688,174.7031 Q358.3438,174.125 357.75,173.8594 Q357.1563,173.5781 356.5313,173.5781 Q355.1875,173.5781 354.5,174.6563 Q353.8125,175.7188 353.8125,177.8125 Q353.8125,179.9063 354.5,180.9844 Q355.1875,182.0469 356.5313,182.0469 Q357.1563,182.0469 357.75,181.7813 Q358.3438,181.5 358.9688,180.9219 L358.9688,183.6406 Z " fill="#000000"/><text fill="#000000" font-family="sans-serif" font-size="14" lengthAdjust="spacing" textLength="18.4844" x="370" y="182.8467">V2</text><line style="stroke:#181818;stroke-width:0.5;" x1="342" x2="390.4844" y1="194" y2="194"/><line style="stroke:#181818;stroke-width:0.5;" x1="342" x2="390.4844" y1="202" y2="202"/></g><!--class V3--><g class="entity" data-qualified-name="V3" data-source-line="4" id="ent0008"><rect fill="#F1F1F1" height="48" rx="2.5" ry="2.5" style="stroke:#181818;stroke-width:0.5;" width="50.4844" x="176" y="314"/><ellipse cx="191" cy="330" fill="#ADD1B2" rx="11" ry="11" style="stroke:#181818;stroke-width:1;"/><path d="M193.9688,335.6406 Q193.3906,335.9375 192.75,336.0781 Q192.1094,336.2344 191.4063,336.2344 Q188.9063,336.2344 187.5781,334.5938 Q186.2656,332.9375 186.2656,329.8125 Q186.2656,326.6875 187.5781,325.0313 Q188.9063,323.375 191.4063,323.375 Q192.1094,323.375 192.75,323.5313 Q193.4063,323.6875 193.9688,323.9844 L193.9688,326.7031 Q193.3438,326.125 192.75,325.8594 Q192.1563,325.5781 191.5313,325.5781 Q190.1875,325.5781 189.5,326.6563 Q188.8125,327.7188 188.8125,329.8125 Q188.8125,331.9063 189.5,332.9844 Q190.1875,334.0469 191.5313,334.0469 Q192.1563,334.0469 192.75,333.7813 Q193.3438,333.5 193.9688,332.9219 L193.9688,335.6406 Z " fill="#000000"/><text fill="#000000" font-family="sans-serif" font-size="14" lengthAdjust="spacing" textLength="18.4844" x="205" y="334.8467">V3</text><line style="stroke:#181818;stroke-width:0.5;" x1="177" x2="225.4844" y1="346" y2="346"/><line style="stroke:#181818;stroke-width:0.5;" x1="177" x2="225.4844" y1="354" y2="354"/></g><!--class V4--><g class="entity" data-qualified-name="V4" data-source-line="5" id="ent0010"><rect fill="#F1F1F1" height="48" rx="2.5" ry="2.5" style="stroke:#181818;stroke-width:0.5;" width="50.4844" x="7" y="162"/><ellipse cx="22" cy="178" fill="#ADD1B2" rx="11" ry="11" style="stroke:#181818;stroke-width:1;"/><path d="M24.9688,183.6406 Q24.3906,183.9375 23.75,184.0781 Q23.1094,184.2344 22.4063,184.2344 Q19.9063,184.2344 18.5781,182.5938 Q17.2656,180.9375 17.2656,177.8125 Q17.2656,174.6875 18.5781,173.0313 Q19.9063,171.375 22.4063,171.375 Q23.1094,171.375 23.75,171.5313 Q24.4063,171.6875 24.9688,171.9844 L24.9688,174.7031 Q24.3438,174.125 23.75,173.8594 Q23.1563,173.5781 22.5313,173.5781 Q21.1875,173.5781 20.5,174.6563 Q19.8125,175.7188 19.8125,177.8125 Q19.8125,179.9063 20.5,180.9844 Q21.1875,182.0469 22.5313,182.0469 Q23.1563,182.0469 23.75,181.7813 Q24.3438,181.5 24.9688,180.9219 L24.9688,183.6406 Z " fill="#000000"/><text fill="#000000" font-family="sans-serif" font-size="14" lengthAdjust="spacing" textLength="18.4844" x="36" y="182.8467">V4</text><line style="stroke:#181818;stroke-width:0.5;" x1="8" x2="56.4844" y1="194" y2="194"/><line style="stroke:#181818;stroke-width:0.5;" x1="8" x2="56.4844" y1="202" y2="202"/></g><!--class MoreComplex--><g class="entity" data-qualified-name="MoreComplex" data-source-line="7" id="ent0013"><rect fill="#F1F1F1" height="48" rx="2.5" ry="2.5" style="stroke:#181818;stroke-width:0.5;" width="233.2535" x="415" y="10"/><ellipse cx="479.0433" cy="26" fill="#ADD1B2" rx="11" ry="11" style="stroke:#181818;stroke-width:1;"/><path d="M482.012,31.6406 Q481.4339,31.9375 480.7933,32.0781 Q480.1526,32.2344 479.4495,32.2344 Q476.9495,32.2344 475.6214,30.5938 Q474.3089,28.9375 474.3089,25.8125 Q474.3089,22.6875 475.6214,21.0313 Q476.9495,19.375 479.4495,19.375 Q480.1526,19.375 480.7933,19.5313 Q481.4495,19.6875 482.012,19.9844 L482.012,22.7031 Q481.387,22.125 480.7933,21.8594 Q480.1995,21.5781 479.5745,21.5781 Q478.2308,21.5781 477.5433,22.6563 Q476.8558,23.7188 476.8558,25.8125 Q476.8558,27.9063 477.5433,28.9844 Q478.2308,30.0469 479.5745,30.0469 Q480.1995,30.0469 480.7933,29.7813 Q481.387,29.5 482.012,28.9219 L482.012,31.6406 Z " fill="#000000"/><text fill="#000000" font-family="sans-serif" font-size="14" lengthAdjust="spacing" textLength="96.667" x="499.5433" y="30.8467">MoreComplex</text><line style="stroke:#181818;stroke-width:0.5;" x1="416" x2="647.2535" y1="42" y2="42"/><line style="stroke:#181818;stroke-width:0.5;" x1="416" x2="647.2535" y1="50" y2="50"/></g><!--class X--><g class="entity" data-qualified-name="X" data-source-line="7" id="ent0014"><rect fill="#F1F1F1" height="48" rx="2.5" ry="2.5" style="stroke:#181818;stroke-width:0.5;" width="41.5908" x="434" y="162"/><ellipse cx="449" cy="178" fill="#ADD1B2" rx="11" ry="11" style="stroke:#181818;stroke-width:1;"/><path d="M451.9688,183.6406 Q451.3906,183.9375 450.75,184.0781 Q450.1094,184.2344 449.4063,184.2344 Q446.9063,184.2344 445.5781,182.5938 Q444.2656,180.9375 444.2656,177.8125 Q444.2656,174.6875 445.5781,173.0313 Q446.9063,171.375 449.4063,171.375 Q450.1094,171.375 450.75,171.5313 Q451.4063,171.6875 451.9688,171.9844 L451.9688,174.7031 Q451.3438,174.125 450.75,173.8594 Q450.1563,173.5781 449.5313,173.5781 Q448.1875,173.5781 447.5,174.6563 Q446.8125,175.7188 446.8125,177.8125 Q446.8125,179.9063 447.5,180.9844 Q448.1875,182.0469 449.5313,182.0469 Q450.1563,182.0469 450.75,181.7813 Q451.3438,181.5 451.9688,180.9219 L451.9688,183.6406 Z " fill="#000000"/><text fill="#000000" font-family="sans-serif" font-size="14" lengthAdjust="spacing" textLength="9.5908" x="463" y="182.8467">X</text><line style="stroke:#181818;stroke-width:0.5;" x1="435" x2="474.5908" y1="194" y2="194"/><line style="stroke:#181818;stroke-width:0.5;" x1="435" x2="474.5908" y1="202" y2="202"/></g><!--class Y--><g class="entity" data-qualified-name="Y" data-source-line="8" id="ent0016"><rect fill="#F1F1F1" height="48" rx="2.5" ry="2.5" style="stroke:#181818;stroke-width:0.5;" width="40.5518" x="511.5" y="162"/><ellipse cx="526.5" cy="178" fill="#ADD1B2" rx="11" ry="11" style="stroke:#181818;stroke-width:1;"/><path d="M529.4688,183.6406 Q528.8906,183.9375 528.25,184.0781 Q527.6094,184.2344 526.9063,184.2344 Q524.4063,184.2344 523.0781,182.5938 Q521.7656,180.9375 521.7656,177.8125 Q521.7656,174.6875 523.0781,173.0313 Q524.4063,171.375 526.9063,171.375 Q527.6094,171.375 528.25,171.5313 Q528.9063,171.6875 529.4688,171.9844 L529.4688,174.7031 Q528.8438,174.125 528.25,173.8594 Q527.6563,173.5781 527.0313,173.5781 Q525.6875,173.5781 525,174.6563 Q524.3125,175.7188 524.3125,177.8125 Q524.3125,179.9063 525,180.9844 Q525.6875,182.0469 527.0313,182.0469 Q527.6563,182.0469 528.25,181.7813 Q528.8438,181.5 529.4688,180.9219 L529.4688,183.6406 Z " fill="#000000"/><text fill="#000000" font-family="sans-serif" font-size="14" lengthAdjust="spacing" textLength="8.5518" x="540.5" y="182.8467">Y</text><line style="stroke:#181818;stroke-width:0.5;" x1="512.5" x2="551.0518" y1="194" y2="194"/><line style="stroke:#181818;stroke-width:0.5;" x1="512.5" x2="551.0518" y1="202" y2="202"/></g><!--class Z--><g class="entity" data-qualified-name="Z" data-source-line="9" id="ent0018"><rect fill="#F1F1F1" height="48" rx="2.5" ry="2.5" style="stroke:#181818;stroke-width:0.5;" width="41.5908" x="588" y="162"/><ellipse cx="603" cy="178" fill="#ADD1B2" rx="11" ry="11" style="stroke:#181818;stroke-width:1;"/><path d="M605.9688,183.6406 Q605.3906,183.9375 604.75,184.0781 Q604.1094,184.2344 603.4063,184.2344 Q600.9063,184.2344 599.5781,182.5938 Q598.2656,180.9375 598.2656,177.8125 Q598.2656,174.6875 599.5781,173.0313 Q600.9063,171.375 603.4063,171.375 Q604.1094,171.375 604.75,171.5313 Q605.4063,171.6875 605.9688,171.9844 L605.9688,174.7031 Q605.3438,174.125 604.75,173.8594 Q604.1563,173.5781 603.5313,173.5781 Q602.1875,173.5781 601.5,174.6563 Q600.8125,175.7188 600.8125,177.8125 Q600.8125,179.9063 601.5,180.9844 Q602.1875,182.0469 603.5313,182.0469 Q604.1563,182.0469 604.75,181.7813 Q605.3438,181.5 605.9688,180.9219 L605.9688,183.6406 Z " fill="#000000"/><text fill="#000000" font-family="sans-serif" font-size="14" lengthAdjust="spacing" textLength="9.5908" x="617" y="182.8467">Z</text><line style="stroke:#181818;stroke-width:0.5;" x1="589" x2="628.5908" y1="194" y2="194"/><line style="stroke:#181818;stroke-width:0.5;" x1="589" x2="628.5908" y1="202" y2="202"/></g><!--link V1 to HashMap--><g class="link" data-entity-1="ent0003" data-entity-2="ent0002" data-link-type="extension" data-source-line="2" id="lnk5"><path codeLine="2" d="M201,82.4069 C201,110.5069 201,97.0931 201,125.3231" fill="none" id="V1-HashMap" style="stroke:#181818;stroke-width:1;"/><polygon fill="#181818" points="201,76.4069,197,85.4069,201,81.4069,205,85.4069,201,76.4069" style="stroke:#181818;stroke-width:1;"/><polygon fill="none" points="201,143.3231,207,125.3231,195,125.3231,201,143.3231" style="stroke:#181818;stroke-width:1;"/><rect fill="#F1F1F1" height="18.2969" style="stroke:#181818;stroke-width:0.5;" width="12.6133" x="194.6934" y="58.11"/><text fill="#000000" font-family="sans-serif" font-size="14" lengthAdjust="spacing" textLength="8.6133" x="196.6934" y="72.1051">e</text><rect fill="#F1F1F1" height="18.2969" style="stroke:#181818;stroke-width:0.5;" width="21.4863" x="190.2568" y="143.8231"/><text fill="#000000" font-family="sans-serif" font-size="14" lengthAdjust="spacing" textLength="17.4863" x="192.2568" y="157.8182">a1</text></g><!--link HashMap to V2--><g class="link" data-entity-1="ent0002" data-entity-2="ent0006" data-link-type="composition" data-source-line="3" id="lnk7"><path codeLine="3" d="M295.1039,186 C322.5939,186 305.0013,186 325.9213,186" fill="none" id="HashMap-V2" style="stroke:#181818;stroke-width:1;stroke-dasharray:7,7;"/><polygon fill="#181818" points="283.1039,186,289.1039,190,295.1039,186,289.1039,182,283.1039,186" style="stroke:#181818;stroke-width:1;"/><polygon fill="#181818" points="331.9213,186,322.9213,182,326.9213,186,322.9213,190,331.9213,186" style="stroke:#181818;stroke-width:1;"/><rect fill="#F1F1F1" height="18.2969" style="stroke:#181818;stroke-width:0.5;" width="21.7939" x="261.31" y="176.8516"/><text fill="#000000" font-family="sans-serif" font-size="14" lengthAdjust="spacing" textLength="17.7939" x="263.31" y="190.8467">b2</text><rect fill="#F1F1F1" height="18.2969" style="stroke:#181818;stroke-width:0.5;" width="8.9287" x="332.4213" y="176.8516"/><text fill="#000000" font-family="sans-serif" font-size="14" lengthAdjust="spacing" textLength="4.9287" x="334.4213" y="190.8467">f</text></g><!--link HashMap to V3--><g class="link" data-entity-1="ent0002" data-entity-2="ent0008" data-link-type="aggregation" data-source-line="4" id="lnk9"><path codeLine="4" d="M201,240.4069 C201,268.5069 201,261.0931 201,289.3231" fill="none" id="HashMap-V3" style="stroke:#181818;stroke-width:1;stroke-dasharray:7,7;"/><polygon fill="none" points="201,228.4069,197,234.4069,201,240.4069,205,234.4069,201,228.4069" style="stroke:#181818;stroke-width:1;"/><polygon fill="#181818" points="201,295.3231,205,286.3231,201,290.3231,197,286.3231,201,295.3231" style="stroke:#181818;stroke-width:1;"/><rect fill="#F1F1F1" height="18.2969" style="stroke:#181818;stroke-width:0.5;" width="20.6045" x="190.6978" y="210.11"/><text fill="#000000" font-family="sans-serif" font-size="14" lengthAdjust="spacing" textLength="16.6045" x="192.6978" y="224.1051">c3</text><rect fill="#F1F1F1" height="18.2969" style="stroke:#181818;stroke-width:0.5;" width="12.8867" x="194.5566" y="295.8231"/><text fill="#000000" font-family="sans-serif" font-size="14" lengthAdjust="spacing" textLength="8.8867" x="196.5566" y="309.8182">g</text></g><!--link V4 to HashMap--><g class="link" data-entity-1="ent0010" data-entity-2="ent0002" data-link-type="dependency" data-source-line="5" id="lnk12"><path codeLine="5" d="M76.153,186 C97.953,186 74.1861,186 102.9061,186" fill="none" id="V4-HashMap" style="stroke:#181818;stroke-width:1;"/><polygon fill="#181818" points="70.153,186,79.153,190,75.153,186,79.153,182,70.153,186" style="stroke:#181818;stroke-width:1;"/><ellipse cx="110.9061" cy="186" fill="#FFFFFF" rx="8" ry="8" style="stroke:#181818;stroke-width:1;"/><line style="stroke:#181818;stroke-width:1;" x1="102.9061" x2="118.9061" y1="186" y2="186"/><line style="stroke:#181818;stroke-width:1;" x1="110.9061" x2="110.9061" y1="178" y2="194"/><rect fill="#F1F1F1" height="18.2969" style="stroke:#181818;stroke-width:0.5;" width="12.873" x="57.28" y="176.8516"/><text fill="#000000" font-family="sans-serif" font-size="14" lengthAdjust="spacing" textLength="8.873" x="59.28" y="190.8467">h</text><rect fill="#F1F1F1" height="18.2969" style="stroke:#181818;stroke-width:0.5;" width="21.7939" x="119.4061" y="176.8516"/><text fill="#000000" font-family="sans-serif" font-size="14" lengthAdjust="spacing" textLength="17.7939" x="121.4061" y="190.8467">d4</text></g><!--link MoreComplex to X--><g class="link" data-entity-1="ent0013" data-entity-2="ent0014" data-link-type="dependency" data-source-line="7" id="lnk15"><path codeLine="7" d="M468.3221,58.11 C453.8921,86.21 484.2299,128.0521 469.7399,156.2821" fill="none" id="MoreComplex-to-X" style="stroke:#181818;stroke-width:1;stroke-dasharray:7,7;"/><polygon fill="#181818" points="467,161.62,474.6684,155.4397,469.2832,157.1717,467.5512,151.7866,467,161.62" style="stroke:#181818;stroke-width:1;"/><rect fill="#F1F1F1" height="18.2969" style="stroke:#181818;stroke-width:0.5;" width="63.2334" x="436.7054" y="58.11"/><text fill="#000000" font-family="sans-serif" font-size="14" lengthAdjust="spacing" textLength="59.2334" x="438.7054" y="72.1051">x: String</text></g><!--link MoreComplex to Y--><g class="link" data-entity-1="ent0013" data-entity-2="ent0016" data-link-type="dependency" data-source-line="8" id="lnk17"><path codeLine="8" d="M529.7909,58.11 C529.7909,86.21 532,127.39 532,155.62" fill="none" id="MoreComplex-to-Y" style="stroke:#181818;stroke-width:1;"/><polygon fill="#181818" points="532,161.62,536,152.62,532,156.62,528,152.62,532,161.62" style="stroke:#181818;stroke-width:1;"/><rect fill="#F1F1F1" height="18.2969" style="stroke:#181818;stroke-width:0.5;" width="39.7041" x="509.9388" y="58.11"/><text fill="#000000" font-family="sans-serif" font-size="14" lengthAdjust="spacing" textLength="35.7041" x="511.9388" y="72.1051">y: int</text></g><!--link MoreComplex to Z--><g class="link" data-entity-1="ent0013" data-entity-2="ent0018" data-link-type="dependency" data-source-line="9" id="lnk19"><path codeLine="9" d="M597.887,58.11 C612.317,86.21 579.7701,128.0521 594.2601,156.2821" fill="none" id="MoreComplex-to-Z" style="stroke:#181818;stroke-width:1;stroke-dasharray:7,7;"/><polygon fill="#181818" points="597,161.62,596.4488,151.7866,594.7168,157.1717,589.3316,155.4397,597,161.62" style="stroke:#181818;stroke-width:1;"/><rect fill="#F1F1F1" height="18.2969" style="stroke:#181818;stroke-width:0.5;" width="76.4883" x="559.6429" y="58.11"/><text fill="#000000" font-family="sans-serif" font-size="14" lengthAdjust="spacing" textLength="72.4883" x="561.6429" y="72.1051">z: boolean</text></g><?plantuml-src PSmz3u8m4CRndK_np6gRy38Hmk9YOfXCY4ew5AX2KYcXcA3nmtieIyEDzxlxLrfQYuEqJIRxvBZBKmyqomA5z0MI3tko58KIo7sNoq1WmmTEUYCDNAr20SFhMU-aeQjr9B1bUYutf97tuymCQcyUlLOJYYd6QHpQZhuvLSxhYrUCjXi566KkQtx7A8tHIdR_mlKB?></g></svg>