<svg xmlns="http://www.w3.org/2000/svg" xmlns:xlink="http://www.w3.org/1999/xlink" contentStyleType="text/css" data-diagram-type="ACTIVITY" height="192px" preserveAspectRatio="none" style="width:229px;height:192px;background:#FFFFFF;" version="1.1" viewBox="0 0 229 192" width="229px" zoomAndPan="magnify"><?plantuml 1.2026.3beta5?><defs/><g><ellipse cx="44.4688" cy="25" fill="#222222" rx="10" ry="10" style="stroke:#222222;stroke-width:1;"/><path d="M92.9375,45 L92.9375,83.832 L72.9375,87.832 L92.9375,91.832 L92.9375,130.6641 A0,0 0 0 0 92.9375,130.6641 L208.7651,130.6641 A0,0 0 0 0 208.7651,130.6641 L208.7651,55 L198.7651,45 L92.9375,45 A0,0 0 0 0 92.9375,45" fill="#FEFFDD" style="stroke:#181818;stroke-width:0.5;"/><path d="M198.7651,45 L198.7651,55 L208.7651,55 L198.7651,45" fill="#FEFFDD" style="stroke:#181818;stroke-width:0.5;"/><text fill="#000000" font-family="sans-serif" font-size="13" lengthAdjust="spacing" textLength="8.8931" x="98.9375" y="62.0669">A</text><text fill="#000000" font-family="sans-serif" font-size="13" lengthAdjust="spacing" textLength="4.1323" x="107.8306" y="62.0669">&#160;</text><text fill="#000000" font-family="sans-serif" font-size="13" lengthAdjust="spacing" textLength="31.6875" x="111.9629" y="62.0669">Long</text><text fill="#000000" font-family="sans-serif" font-size="13" lengthAdjust="spacing" textLength="4.1323" x="143.6504" y="62.0669">&#160;</text><text fill="#000000" font-family="sans-serif" font-size="13" lengthAdjust="spacing" textLength="31.6875" x="147.7827" y="62.0669">Long</text><text fill="#000000" font-family="sans-serif" font-size="13" lengthAdjust="spacing" textLength="31.6875" x="98.9375" y="77.1997">Long</text><text fill="#000000" font-family="sans-serif" font-size="13" lengthAdjust="spacing" textLength="4.1323" x="130.625" y="77.1997">&#160;</text><text fill="#000000" font-family="sans-serif" font-size="13" lengthAdjust="spacing" textLength="31.6875" x="134.7573" y="77.1997">Long</text><text fill="#000000" font-family="sans-serif" font-size="13" lengthAdjust="spacing" textLength="29.2881" x="98.9375" y="92.3325">note</text><text fill="#000000" font-family="sans-serif" font-size="13" lengthAdjust="spacing" textLength="26.5649" x="98.9375" y="107.4653">This</text><text fill="#000000" font-family="sans-serif" font-size="13" lengthAdjust="spacing" textLength="4.1323" x="125.5024" y="107.4653">&#160;</text><text fill="#000000" font-family="sans-serif" font-size="13" lengthAdjust="spacing" textLength="29.2881" x="129.6348" y="107.4653">note</text><text fill="#000000" font-family="sans-serif" font-size="13" lengthAdjust="spacing" textLength="4.1323" x="158.9229" y="107.4653">&#160;</text><text fill="#000000" font-family="sans-serif" font-size="13" lengthAdjust="spacing" textLength="10.3848" x="163.0552" y="107.4653">is</text><text fill="#000000" font-family="sans-serif" font-size="13" lengthAdjust="spacing" textLength="4.1323" x="173.4399" y="107.4653">&#160;</text><text fill="#000000" font-family="sans-serif" font-size="13" lengthAdjust="spacing" textLength="16.1929" x="177.5723" y="107.4653">on</text><text fill="#000000" font-family="sans-serif" font-size="13" lengthAdjust="spacing" textLength="47.3853" x="98.9375" y="122.5981">several</text><rect fill="#F1F1F1" height="33.9688" rx="12.5" ry="12.5" style="stroke:#181818;stroke-width:0.5;" width="56.9375" x="16" y="70.8477"/><text fill="#000000" font-family="sans-serif" font-size="12" lengthAdjust="spacing" textLength="36.9375" x="26" y="91.9863">action</text><ellipse cx="44.4688" cy="161.6641" fill="none" rx="11" ry="11" style="stroke:#222222;stroke-width:1;"/><ellipse cx="44.4688" cy="161.6641" fill="#222222" rx="6" ry="6" style="stroke:#222222;stroke-width:1;"/><line style="stroke:#181818;stroke-width:1;" x1="44.4688" x2="44.4688" y1="35" y2="70.8477"/><polygon fill="#181818" points="40.4688,60.8477,44.4688,70.8477,48.4688,60.8477,44.4688,64.8477" style="stroke:#181818;stroke-width:1;"/><line style="stroke:#181818;stroke-width:1;" x1="44.4688" x2="44.4688" y1="104.8164" y2="150.6641"/><polygon fill="#181818" points="40.4688,140.6641,44.4688,150.6641,48.4688,140.6641,44.4688,144.6641" style="stroke:#181818;stroke-width:1;"/></g></svg>