<svg xmlns="http://www.w3.org/2000/svg" xmlns:xlink="http://www.w3.org/1999/xlink" contentStyleType="text/css" data-diagram-type="ACTIVITY" height="232px" preserveAspectRatio="none" style="width:252px;height:232px;background:#FFFFFF;" version="1.1" viewBox="0 0 252 232" width="252px" zoomAndPan="magnify"><?plantuml 1.2026.3beta5?><defs/><g><rect fill="none" height="20.9531" style="stroke:none;stroke-width:1;" width="205.626" x="20" y="17.7451"/><ellipse cx="58.9688" cy="53.6982" fill="#222222" rx="10" ry="10" style="stroke:#222222;stroke-width:1;"/><path d="M107.4375,83.6982 L107.4375,122.5303 L87.4375,126.5303 L107.4375,130.5303 L107.4375,169.3623 A0,0 0 0 0 107.4375,169.3623 L223.2651,169.3623 A0,0 0 0 0 223.2651,169.3623 L223.2651,93.6982 L213.2651,83.6982 L107.4375,83.6982 A0,0 0 0 0 107.4375,83.6982" fill="#FEFFDD" style="stroke:#181818;stroke-width:0.5;"/><path d="M213.2651,83.6982 L213.2651,93.6982 L223.2651,93.6982 L213.2651,83.6982" fill="#FEFFDD" style="stroke:#181818;stroke-width:0.5;"/><text fill="#000000" font-family="sans-serif" font-size="13" lengthAdjust="spacing" textLength="8.8931" x="113.4375" y="100.7651">A</text><text fill="#000000" font-family="sans-serif" font-size="13" lengthAdjust="spacing" textLength="4.1323" x="122.3306" y="100.7651">&#160;</text><text fill="#000000" font-family="sans-serif" font-size="13" lengthAdjust="spacing" textLength="31.6875" x="126.4629" y="100.7651">Long</text><text fill="#000000" font-family="sans-serif" font-size="13" lengthAdjust="spacing" textLength="4.1323" x="158.1504" y="100.7651">&#160;</text><text fill="#000000" font-family="sans-serif" font-size="13" lengthAdjust="spacing" textLength="31.6875" x="162.2827" y="100.7651">Long</text><text fill="#000000" font-family="sans-serif" font-size="13" lengthAdjust="spacing" textLength="31.6875" x="113.4375" y="115.8979">Long</text><text fill="#000000" font-family="sans-serif" font-size="13" lengthAdjust="spacing" textLength="4.1323" x="145.125" y="115.8979">&#160;</text><text fill="#000000" font-family="sans-serif" font-size="13" lengthAdjust="spacing" textLength="31.6875" x="149.2573" y="115.8979">Long</text><text fill="#000000" font-family="sans-serif" font-size="13" lengthAdjust="spacing" textLength="29.2881" x="113.4375" y="131.0308">note</text><text fill="#000000" font-family="sans-serif" font-size="13" lengthAdjust="spacing" textLength="26.5649" x="113.4375" y="146.1636">This</text><text fill="#000000" font-family="sans-serif" font-size="13" lengthAdjust="spacing" textLength="4.1323" x="140.0024" y="146.1636">&#160;</text><text fill="#000000" font-family="sans-serif" font-size="13" lengthAdjust="spacing" textLength="29.2881" x="144.1348" y="146.1636">note</text><text fill="#000000" font-family="sans-serif" font-size="13" lengthAdjust="spacing" textLength="4.1323" x="173.4229" y="146.1636">&#160;</text><text fill="#000000" font-family="sans-serif" font-size="13" lengthAdjust="spacing" textLength="10.3848" x="177.5552" y="146.1636">is</text><text fill="#000000" font-family="sans-serif" font-size="13" lengthAdjust="spacing" textLength="4.1323" x="187.9399" y="146.1636">&#160;</text><text fill="#000000" font-family="sans-serif" font-size="13" lengthAdjust="spacing" textLength="16.1929" x="192.0723" y="146.1636">on</text><text fill="#000000" font-family="sans-serif" font-size="13" lengthAdjust="spacing" textLength="47.3853" x="113.4375" y="161.2964">several</text><rect fill="#F1F1F1" height="33.9688" rx="12.5" ry="12.5" style="stroke:#181818;stroke-width:0.5;" width="56.9375" x="30.5" y="109.5459"/><text fill="#000000" font-family="sans-serif" font-size="12" lengthAdjust="spacing" textLength="36.9375" x="40.5" y="130.6846">action</text><ellipse cx="58.9688" cy="200.3623" fill="none" rx="11" ry="11" style="stroke:#222222;stroke-width:1;"/><ellipse cx="58.9688" cy="200.3623" fill="#222222" rx="6" ry="6" style="stroke:#222222;stroke-width:1;"/><line style="stroke:#000000;stroke-width:1.5;" x1="20" x2="20" y1="17.7451" y2="211.3623"/><line style="stroke:#000000;stroke-width:1.5;" x1="223.7651" x2="223.7651" y1="17.7451" y2="211.3623"/><line style="stroke:#181818;stroke-width:1;" x1="58.9688" x2="58.9688" y1="63.6982" y2="109.5459"/><polygon fill="#181818" points="54.9688,99.5459,58.9688,109.5459,62.9688,99.5459,58.9688,103.5459" style="stroke:#181818;stroke-width:1;"/><line style="stroke:#181818;stroke-width:1;" x1="58.9688" x2="58.9688" y1="143.5146" y2="189.3623"/><polygon fill="#181818" points="54.9688,179.3623,58.9688,189.3623,62.9688,179.3623,58.9688,183.3623" style="stroke:#181818;stroke-width:1;"/><text fill="#000000" font-family="sans-serif" font-size="18" lengthAdjust="spacing" textLength="43.541" x="100.1121" y="34.4531">Lane</text></g></svg>