<svg xmlns="http://www.w3.org/2000/svg" xmlns:xlink="http://www.w3.org/1999/xlink" contentStyleType="text/css" data-diagram-type="STATE" height="368px" preserveAspectRatio="none" style="width:284px;height:368px;background:#FFFFFF;" version="1.1" viewBox="0 0 284 368" width="284px" zoomAndPan="magnify"><?plantuml 1.2026.3beta5?><defs/><g><path d="M19.5,86 L96.4961,86 A12.5,12.5 0 0 1 108.9961,98.5 L108.9961,112.2969 L7,112.2969 L7,98.5 A12.5,12.5 0 0 1 19.5,86" fill="#F1F1F1"/><rect fill="none" height="158" rx="12.5" ry="12.5" style="stroke:#181818;stroke-width:0.5;" width="101.9961" x="7" y="86"/><line style="stroke:#181818;stroke-width:0.5;" x1="7" x2="108.9961" y1="112.2969" y2="112.2969"/><text fill="#000000" font-family="sans-serif" font-size="14" lengthAdjust="spacing" textLength="43.5518" x="57.998" y="103.9951">Active</text><g class="start_entity" data-qualified-name="Active..start.Active" data-source-line="4" id="ent0002"><ellipse cx="57.998" cy="122" fill="#222222" rx="10" ry="10" style="stroke:#222222;stroke-width:1;"/></g><g class="entity" data-qualified-name="Active.Running" id="ent0004"><rect fill="#F1F1F1" height="50" rx="12.5" ry="12.5" style="stroke:#181818;stroke-width:0.5;" width="77.9961" x="19" y="182"/><line style="stroke:#181818;stroke-width:0.5;" x1="19" x2="96.9961" y1="208.2969" y2="208.2969"/><text fill="#000000" font-family="sans-serif" font-size="14" lengthAdjust="spacing" textLength="57.9961" x="29" y="199.9951">Running</text></g><g class="entity" data-qualified-name="Inactive" id="ent0002"><rect fill="#F1F1F1" height="50" rx="12.5" ry="12.5" style="stroke:#181818;stroke-width:0.5;" width="75.5557" x="20" y="304"/><line style="stroke:#181818;stroke-width:0.5;" x1="20" x2="95.5557" y1="330.2969" y2="330.2969"/><text fill="#000000" font-family="sans-serif" font-size="14" lengthAdjust="spacing" textLength="55.5557" x="30" y="321.9951">Inactive</text></g><g class="start_entity" data-qualified-name=".start." data-source-line="1" id="ent0003"><ellipse cx="58" cy="16" fill="#222222" rx="10" ry="10" style="stroke:#222222;stroke-width:1;"/></g><!--link *start* to Active--><g class="link" data-entity-1="ent0003" data-entity-2="ent0003" data-link-type="dependency" data-source-line="1" id="lnk3"><path d="M56,24.2 C56,36.58 56,53.83 56,77.76" fill="none" id="*start*-to-Active" style="stroke:#181818;stroke-width:1;"/><polygon fill="#181818" points="58,85.76,62,76.76,58,80.76,54,76.76,58,85.76" style="stroke:#181818;stroke-width:1;"/></g><!--link Active to Inactive--><g class="link" data-entity-1="ent0003" data-entity-2="ent0002" data-link-type="dependency" data-source-line="2" id="lnk4"><path d="M56,242.15 C56,263.84 56,279.79 56,295.8" fill="none" id="Active-to-Inactive" style="stroke:#181818;stroke-width:1;"/><polygon fill="#181818" points="58,303.8,62,294.8,58,298.8,54,294.8,58,303.8" style="stroke:#181818;stroke-width:1;"/></g><path d="M138.9961,6 L138.9961,56 L259.7961,56 L259.7961,16 L249.7961,6 L138.9961,6" fill="#FEFFDD" style="stroke:#181818;stroke-width:0.5;"/>
<path d="M249.7961,6 L249.7961,16 L259.7961,16 L249.7961,6" fill="#FEFFDD" style="stroke:#181818;stroke-width:1;"/>
<text fill="#000000" font-family="sans-serif" font-size="13" lengthAdjust="spacing" textLength="26.5649" x="144.9961" y="29">This</text><text fill="#000000" font-family="sans-serif" font-size="13" lengthAdjust="spacing" textLength="4.1323" x="171.561" y="29">&#160;</text><text fill="#000000" font-family="sans-serif" font-size="13" lengthAdjust="spacing" textLength="10.3848" x="175.6934" y="29">is</text><text fill="#000000" font-family="sans-serif" font-size="13" lengthAdjust="spacing" textLength="4.1323" x="186.0781" y="29">&#160;</text><text fill="#000000" font-family="sans-serif" font-size="13" lengthAdjust="spacing" textLength="39.5142" x="190.2104" y="29">active</text><path d="M138.9961,66 L138.9961,118 L230.9961,118 L230.9961,76 L220.9961,66 L138.9961,66" fill="#FEFFDD" style="stroke:#181818;stroke-width:0.5;"/>
<path d="M220.9961,66 L220.9961,76 L230.9961,76 L220.9961,66" fill="#FEFFDD" style="stroke:#181818;stroke-width:1;"/>
<text fill="#000000" font-family="sans-serif" font-size="13" lengthAdjust="spacing" textLength="31.7764" x="144.9961" y="89">Multi</text><text fill="#000000" font-family="sans-serif" font-size="13" lengthAdjust="spacing" textLength="4.1323" x="176.7725" y="89">&#160;</text><text fill="#000000" font-family="sans-serif" font-size="13" lengthAdjust="spacing" textLength="23.4609" x="180.9048" y="89">line</text><text fill="#000000" font-family="sans-serif" font-size="13" lengthAdjust="spacing" textLength="29.2881" x="144.9961" y="105">note</text><text fill="#000000" font-family="sans-serif" font-size="13" lengthAdjust="spacing" textLength="4.1323" x="174.2842" y="105">&#160;</text><text fill="#000000" font-family="sans-serif" font-size="13" lengthAdjust="spacing" textLength="25.8857" x="178.4165" y="105">text</text><?plantuml-src FSmn2eHG30JGFgUOUi4BRB6mvHRRY9rOY4ODV29e546ykng_GY1aU9dyLI19FlXM9ZFJjJpvQNbbevN64M0b88y_wQGgsj96sXzYaBOpzCrDtyWw6N5CB78Lk77qr0F_APWWY9w78-F5YBNsQmS0?></g></svg>