<svg xmlns="http://www.w3.org/2000/svg" xmlns:xlink="http://www.w3.org/1999/xlink" contentStyleType="text/css" data-diagram-type="SEQUENCE" height="270px" preserveAspectRatio="none" style="width:198px;height:270px;background:#FFFFFF;" version="1.1" viewBox="0 0 198 270" width="198px" zoomAndPan="magnify"><?plantuml 1.2026.3beta5?><defs/><g><g><title>Alice</title><rect fill="#000000" fill-opacity="0.00000" height="186.5313" width="8" x="30.3335" y="41.2969"/><line style="stroke:#181818;stroke-width:0.5;stroke-dasharray:5,5;" x1="33.8335" x2="33.8335" y1="41.2969" y2="227.8281"/></g><rect fill="#E2E2F0" height="30.2969" rx="2.5" ry="2.5" style="stroke:#181818;stroke-width:0.5;" width="47.667" x="10" y="10"/><text fill="#000000" font-family="sans-serif" font-size="14" lengthAdjust="spacing" textLength="33.667" x="17" y="29.9951">Alice</text><rect fill="#E2E2F0" height="30.2969" rx="2.5" ry="2.5" style="stroke:#181818;stroke-width:0.5;" width="47.667" x="10" y="227.8281"/><text fill="#000000" font-family="sans-serif" font-size="14" lengthAdjust="spacing" textLength="33.667" x="17" y="247.8232">Alice</text><line style="stroke:#181818;stroke-width:1;" x1="33.8335" x2="75.8335" y1="70.4297" y2="70.4297"/><line style="stroke:#181818;stroke-width:1;" x1="75.8335" x2="75.8335" y1="70.4297" y2="83.4297"/><line style="stroke:#181818;stroke-width:1;" x1="34.8335" x2="75.8335" y1="83.4297" y2="83.4297"/><polygon fill="#181818" points="43.8335,79.4297,33.8335,83.4297,43.8335,83.4297" style="stroke:#181818;stroke-width:1;"/><text fill="#000000" font-family="sans-serif" font-size="13" lengthAdjust="spacing" textLength="112.7153" x="40.8335" y="65.3638">self filled half top</text><line style="stroke:#181818;stroke-width:1;" x1="33.8335" x2="75.8335" y1="112.5625" y2="112.5625"/><line style="stroke:#181818;stroke-width:1;" x1="75.8335" x2="75.8335" y1="112.5625" y2="125.5625"/><line style="stroke:#181818;stroke-width:1;" x1="34.8335" x2="75.8335" y1="125.5625" y2="125.5625"/><polygon fill="#181818" points="43.8335,125.5625,33.8335,125.5625,43.8335,129.5625" style="stroke:#181818;stroke-width:1;"/><text fill="#000000" font-family="sans-serif" font-size="13" lengthAdjust="spacing" textLength="138.4297" x="40.8335" y="107.4966">self filled half bottom</text><line style="stroke:#181818;stroke-width:1;" x1="33.8335" x2="75.8335" y1="154.6953" y2="154.6953"/><line style="stroke:#181818;stroke-width:1;" x1="75.8335" x2="75.8335" y1="154.6953" y2="167.6953"/><line style="stroke:#181818;stroke-width:1;" x1="33.8335" x2="75.8335" y1="167.6953" y2="167.6953"/><line style="stroke:#181818;stroke-width:1;" x1="34.8335" x2="44.8335" y1="167.6953" y2="163.6953"/><text fill="#000000" font-family="sans-serif" font-size="13" lengthAdjust="spacing" textLength="113.4961" x="40.8335" y="149.6294">self open half top</text><line style="stroke:#181818;stroke-width:1;" x1="33.8335" x2="75.8335" y1="196.8281" y2="196.8281"/><line style="stroke:#181818;stroke-width:1;" x1="75.8335" x2="75.8335" y1="196.8281" y2="209.8281"/><line style="stroke:#181818;stroke-width:1;" x1="33.8335" x2="75.8335" y1="209.8281" y2="209.8281"/><line style="stroke:#181818;stroke-width:1;" x1="34.8335" x2="44.8335" y1="209.8281" y2="213.8281"/><text fill="#000000" font-family="sans-serif" font-size="13" lengthAdjust="spacing" textLength="139.2104" x="40.8335" y="191.7622">self open half bottom</text><?plantuml-src TOmn2eH040JpVKNx034tynychOwwi3h3EYQ-_kuqE0JD6ggh2ikS5i953tZU9HYpnpuQLqUJOY_W1eP0b2r0rDWaZHXZIZ9WvdUxsWzNBxXJTrtEGFj_gCbwrwidUCaV?></g></svg>