<svg xmlns="http://www.w3.org/2000/svg" xmlns:xlink="http://www.w3.org/1999/xlink" contentStyleType="text/css" data-diagram-type="SEQUENCE" height="525px" preserveAspectRatio="none" style="width:130px;height:525px;background:#FFFFFF;" version="1.1" viewBox="0 0 130 525" width="130px" zoomAndPan="magnify"><?plantuml 1.2026.3beta5?><defs/><g><g><title>Bob</title><rect fill="#FFFFFF" height="453.1328" style="stroke:#181818;stroke-width:1;" width="10" x="20.5283" y="46.2969"/></g><g><title>Bob</title><rect fill="#FFFFFF" height="258.1328" style="stroke:#181818;stroke-width:1;" width="10" x="25.5283" y="241.2969"/></g><g><title>Bob</title><rect fill="#FFFFFF" height="204.1328" style="stroke:#181818;stroke-width:1;" width="10" x="30.5283" y="295.2969"/></g><g><title>Bob</title><rect fill="#FFFFFF" height="150.1328" style="stroke:#181818;stroke-width:1;" width="10" x="35.5283" y="349.2969"/></g><g><title>Alice</title><rect fill="#FFFFFF" height="453.1328" style="stroke:#181818;stroke-width:1;" width="10" x="91.0566" y="46.2969"/></g><g class="participant-lifeline" data-entity-uid="part1" data-qualified-name="b" data-source-line="5" id="part1-lifeline"><g><title>Bob</title><rect fill="#000000" fill-opacity="0.00000" height="452" width="8" x="21.5283" y="36.2969"/><line style="stroke:#181818;stroke-width:0.5;stroke-dasharray:5,5;" x1="25" x2="25" y1="36.2969" y2="488.2969"/></g></g><g class="participant-lifeline" data-entity-uid="part2" data-qualified-name="a" data-source-line="6" id="part2-lifeline"><g><title>Alice</title><rect fill="#000000" fill-opacity="0.00000" height="452" width="8" x="92.0566" y="36.2969"/><line style="stroke:#181818;stroke-width:0.5;stroke-dasharray:5,5;" x1="95.2231" x2="95.2231" y1="36.2969" y2="488.2969"/></g></g><g class="participant participant-head" data-entity-uid="part1" data-qualified-name="b" data-source-line="5" id="part1-head"><rect fill="#E2E2F0" height="30.2969" rx="2.5" ry="2.5" style="stroke:#181818;stroke-width:0.5;" width="41.0566" x="5" y="5"/><text fill="#000000" font-family="sans-serif" font-size="14" lengthAdjust="spacing" textLength="27.0566" x="12" y="24.9951">Bob</text></g><g class="participant participant-tail" data-entity-uid="part1" data-qualified-name="b" data-source-line="5" id="part1-tail"><rect fill="#E2E2F0" height="30.2969" rx="2.5" ry="2.5" style="stroke:#181818;stroke-width:0.5;" width="41.0566" x="5" y="487.2969"/><text fill="#000000" font-family="sans-serif" font-size="14" lengthAdjust="spacing" textLength="27.0566" x="12" y="507.292">Bob</text></g><g class="participant participant-head" data-entity-uid="part2" data-qualified-name="a" data-source-line="6" id="part2-head"><rect fill="#E2E2F0" height="30.2969" rx="2.5" ry="2.5" style="stroke:#181818;stroke-width:0.5;" width="47.667" x="72.2231" y="5"/><text fill="#000000" font-family="sans-serif" font-size="14" lengthAdjust="spacing" textLength="33.667" x="79.2231" y="24.9951">Alice</text></g><g class="participant participant-tail" data-entity-uid="part2" data-qualified-name="a" data-source-line="6" id="part2-tail"><rect fill="#E2E2F0" height="30.2969" rx="2.5" ry="2.5" style="stroke:#181818;stroke-width:0.5;" width="47.667" x="72.2231" y="487.2969"/><text fill="#000000" font-family="sans-serif" font-size="14" lengthAdjust="spacing" textLength="33.667" x="79.2231" y="507.292">Alice</text></g><g><title>Bob</title><rect fill="#FFFFFF" height="453.1328" style="stroke:#181818;stroke-width:1;" width="10" x="20.5283" y="46.2969"/></g><g><title>Bob</title><rect fill="#FFFFFF" height="258.1328" style="stroke:#181818;stroke-width:1;" width="10" x="25.5283" y="241.2969"/></g><g><title>Bob</title><rect fill="#FFFFFF" height="204.1328" style="stroke:#181818;stroke-width:1;" width="10" x="30.5283" y="295.2969"/></g><g><title>Bob</title><rect fill="#FFFFFF" height="150.1328" style="stroke:#181818;stroke-width:1;" width="10" x="35.5283" y="349.2969"/></g><g><title>Alice</title><rect fill="#FFFFFF" height="453.1328" style="stroke:#181818;stroke-width:1;" width="10" x="91.0566" y="46.2969"/></g><g class="message" data-entity-1="part2" data-entity-2="part2" data-source-line="9" id="msg1"><line style="stroke:#181818;stroke-width:1;" x1="49.0566" x2="90.0566" y1="52.2969" y2="52.2969"/><line style="stroke:#181818;stroke-width:1;" x1="49.0566" x2="49.0566" y1="52.2969" y2="65.2969"/><line style="stroke:#181818;stroke-width:1;" x1="49.0566" x2="89.0566" y1="65.2969" y2="65.2969"/><polygon fill="#181818" points="79.0566,61.2969,89.0566,65.2969,79.0566,69.2969,83.0566,65.2969" style="stroke:#181818;stroke-width:1;"/></g><g class="message" data-entity-1="part2" data-entity-2="part2" data-source-line="10" id="msg2"><ellipse cx="90.5566" cy="91.5469" fill="#000000" rx="4" ry="4" style="stroke:#181818;stroke-width:1.5;"/><line style="stroke:#181818;stroke-width:1;" x1="49.0566" x2="90.0566" y1="79.2969" y2="79.2969"/><line style="stroke:#181818;stroke-width:1;" x1="49.0566" x2="49.0566" y1="79.2969" y2="92.2969"/><line style="stroke:#181818;stroke-width:1;" x1="49.0566" x2="89.0566" y1="92.2969" y2="92.2969"/><polygon fill="#181818" points="79.0566,88.2969,89.0566,92.2969,79.0566,96.2969,83.0566,92.2969" style="stroke:#181818;stroke-width:1;"/></g><g class="message" data-entity-1="part2" data-entity-2="part2" data-source-line="11" id="msg3"><ellipse cx="90.5566" cy="105.5469" fill="#000000" rx="4" ry="4" style="stroke:#181818;stroke-width:1.5;"/><ellipse cx="90.5566" cy="118.5469" fill="#000000" rx="4" ry="4" style="stroke:#181818;stroke-width:1.5;"/><line style="stroke:#181818;stroke-width:1;" x1="49.0566" x2="90.0566" y1="106.2969" y2="106.2969"/><line style="stroke:#181818;stroke-width:1;" x1="49.0566" x2="49.0566" y1="106.2969" y2="119.2969"/><line style="stroke:#181818;stroke-width:1;" x1="49.0566" x2="89.0566" y1="119.2969" y2="119.2969"/><polygon fill="#181818" points="79.0566,115.2969,89.0566,119.2969,79.0566,123.2969,83.0566,119.2969" style="stroke:#181818;stroke-width:1;"/></g><g class="message" data-entity-1="part2" data-entity-2="part2" data-source-line="12" id="msg4"><line style="stroke:#181818;stroke-width:1;" x1="49.0566" x2="90.0566" y1="133.2969" y2="133.2969"/><line style="stroke:#181818;stroke-width:1;" x1="49.0566" x2="49.0566" y1="133.2969" y2="146.2969"/><line style="stroke:#181818;stroke-width:1;" x1="49.0566" x2="90.0566" y1="146.2969" y2="146.2969"/><line style="stroke:#181818;stroke-width:1;" x1="80.0566" x2="90.0566" y1="142.2969" y2="146.2969"/><line style="stroke:#181818;stroke-width:1;" x1="80.0566" x2="90.0566" y1="150.2969" y2="146.2969"/></g><g class="message" data-entity-1="part2" data-entity-2="part2" data-source-line="13" id="msg5"><line style="stroke:#181818;stroke-width:1;" x1="49.0566" x2="90.0566" y1="160.2969" y2="160.2969"/><line style="stroke:#181818;stroke-width:1;" x1="49.0566" x2="49.0566" y1="160.2969" y2="173.2969"/><line style="stroke:#181818;stroke-width:1;" x1="49.0566" x2="89.0566" y1="173.2969" y2="173.2969"/><polygon fill="#181818" points="79.0566,169.2969,89.0566,173.2969,79.0566,177.2969,83.0566,173.2969" style="stroke:#181818;stroke-width:1;"/></g><g class="message" data-entity-1="part2" data-entity-2="part2" data-source-line="14" id="msg6"><line style="stroke:#181818;stroke-width:1;" x1="49.0566" x2="90.0566" y1="187.2969" y2="187.2969"/><line style="stroke:#181818;stroke-width:1;" x1="49.0566" x2="49.0566" y1="187.2969" y2="200.2969"/><line style="stroke:#181818;stroke-width:1;" x1="49.0566" x2="90.0566" y1="200.2969" y2="200.2969"/><line style="stroke:#181818;stroke-width:1;" x1="80.0566" x2="90.0566" y1="196.2969" y2="200.2969"/></g><g class="message" data-entity-1="part2" data-entity-2="part2" data-source-line="15" id="msg7"><line style="stroke:#181818;stroke-width:1;" x1="49.0566" x2="90.0566" y1="214.2969" y2="214.2969"/><line style="stroke:#181818;stroke-width:1;" x1="49.0566" x2="49.0566" y1="214.2969" y2="227.2969"/><line style="stroke:#181818;stroke-width:1;" x1="49.0566" x2="89.0566" y1="227.2969" y2="227.2969"/><polygon fill="#181818" points="79.0566,223.2969,89.0566,227.2969,79.0566,231.2969,83.0566,227.2969" style="stroke:#181818;stroke-width:1;"/></g><g class="message" data-entity-1="part2" data-entity-2="part2" data-source-line="16" id="msg8"><line style="stroke:#181818;stroke-width:1;" x1="49.0566" x2="90.0566" y1="241.2969" y2="241.2969"/><line style="stroke:#181818;stroke-width:1;" x1="49.0566" x2="49.0566" y1="241.2969" y2="254.2969"/><line style="stroke:#181818;stroke-width:1;" x1="49.0566" x2="90.0566" y1="254.2969" y2="254.2969"/><line style="stroke:#181818;stroke-width:1;" x1="80.0566" x2="90.0566" y1="258.2969" y2="254.2969"/></g><g class="message" data-entity-1="part2" data-entity-2="part2" data-source-line="18" id="msg9"><ellipse cx="90.5566" cy="267.5469" fill="#000000" rx="4" ry="4" style="stroke:#181818;stroke-width:1.5;"/><line style="stroke:#181818;stroke-width:1;" x1="49.0566" x2="90.0566" y1="268.2969" y2="268.2969"/><line style="stroke:#181818;stroke-width:1;" x1="49.0566" x2="49.0566" y1="268.2969" y2="281.2969"/><line style="stroke:#181818;stroke-width:1;" x1="49.0566" x2="89.0566" y1="281.2969" y2="281.2969"/><polygon fill="#181818" points="79.0566,277.2969,89.0566,281.2969,79.0566,285.2969,83.0566,281.2969" style="stroke:#181818;stroke-width:1;"/></g><g class="message" data-entity-1="part2" data-entity-2="part2" data-source-line="19" id="msg10"><ellipse cx="90.5566" cy="307.5469" fill="#000000" rx="4" ry="4" style="stroke:#181818;stroke-width:1.5;"/><line style="stroke:#181818;stroke-width:1;" x1="49.0566" x2="90.0566" y1="295.2969" y2="295.2969"/><line style="stroke:#181818;stroke-width:1;" x1="49.0566" x2="49.0566" y1="295.2969" y2="308.2969"/><line style="stroke:#181818;stroke-width:1;" x1="49.0566" x2="89.0566" y1="308.2969" y2="308.2969"/><polygon fill="#181818" points="79.0566,304.2969,89.0566,308.2969,79.0566,312.2969,83.0566,308.2969" style="stroke:#181818;stroke-width:1;"/></g><g class="message" data-entity-1="part2" data-entity-2="part2" data-source-line="21" id="msg11"><ellipse cx="90.5566" cy="321.5469" fill="#000000" rx="4" ry="4" style="stroke:#181818;stroke-width:1.5;"/><ellipse cx="90.5566" cy="334.5469" fill="#000000" rx="4" ry="4" style="stroke:#181818;stroke-width:1.5;"/><line style="stroke:#181818;stroke-width:1;" x1="49.0566" x2="90.0566" y1="322.2969" y2="322.2969"/><line style="stroke:#181818;stroke-width:1;" x1="49.0566" x2="49.0566" y1="322.2969" y2="335.2969"/><line style="stroke:#181818;stroke-width:1;" x1="49.0566" x2="89.0566" y1="335.2969" y2="335.2969"/><polygon fill="#181818" points="79.0566,331.2969,89.0566,335.2969,79.0566,339.2969,83.0566,335.2969" style="stroke:#181818;stroke-width:1;"/></g><g class="message" data-entity-1="part2" data-entity-2="part2" data-source-line="22" id="msg12"><ellipse cx="90.5566" cy="361.5469" fill="#000000" rx="4" ry="4" style="stroke:#181818;stroke-width:1.5;"/><line style="stroke:#181818;stroke-width:1;" x1="49.0566" x2="90.0566" y1="349.2969" y2="349.2969"/><line style="stroke:#181818;stroke-width:1;" x1="49.0566" x2="49.0566" y1="349.2969" y2="362.2969"/><line style="stroke:#181818;stroke-width:1;" x1="49.0566" x2="90.0566" y1="362.2969" y2="362.2969"/><line style="stroke:#181818;stroke-width:1;" x1="80.0566" x2="90.0566" y1="358.2969" y2="362.2969"/><line style="stroke:#181818;stroke-width:1;" x1="80.0566" x2="90.0566" y1="366.2969" y2="362.2969"/></g><g class="message" data-entity-1="part2" data-entity-2="part2" data-source-line="24" id="msg13"><ellipse cx="90.5566" cy="388.5469" fill="#000000" rx="4" ry="4" style="stroke:#181818;stroke-width:1.5;"/><line style="stroke:#181818;stroke-width:1;" x1="49.0566" x2="90.0566" y1="376.2969" y2="376.2969"/><line style="stroke:#181818;stroke-width:1;" x1="49.0566" x2="49.0566" y1="376.2969" y2="389.2969"/><line style="stroke:#181818;stroke-width:1;" x1="49.0566" x2="89.0566" y1="389.2969" y2="389.2969"/><polygon fill="#181818" points="79.0566,385.2969,89.0566,389.2969,79.0566,393.2969,83.0566,389.2969" style="stroke:#181818;stroke-width:1;"/></g><g class="message" data-entity-1="part2" data-entity-2="part2" data-source-line="25" id="msg14"><ellipse cx="90.5566" cy="415.5469" fill="#000000" rx="4" ry="4" style="stroke:#181818;stroke-width:1.5;"/><line style="stroke:#181818;stroke-width:1;" x1="49.0566" x2="90.0566" y1="403.2969" y2="403.2969"/><line style="stroke:#181818;stroke-width:1;" x1="49.0566" x2="49.0566" y1="403.2969" y2="416.2969"/><line style="stroke:#181818;stroke-width:1;" x1="49.0566" x2="90.0566" y1="416.2969" y2="416.2969"/><line style="stroke:#181818;stroke-width:1;" x1="80.0566" x2="90.0566" y1="412.2969" y2="416.2969"/></g><g class="message" data-entity-1="part2" data-entity-2="part2" data-source-line="26" id="msg15"><ellipse cx="90.5566" cy="442.5469" fill="#000000" rx="4" ry="4" style="stroke:#181818;stroke-width:1.5;"/><line style="stroke:#181818;stroke-width:1;" x1="49.0566" x2="90.0566" y1="430.2969" y2="430.2969"/><line style="stroke:#181818;stroke-width:1;" x1="49.0566" x2="49.0566" y1="430.2969" y2="443.2969"/><line style="stroke:#181818;stroke-width:1;" x1="49.0566" x2="89.0566" y1="443.2969" y2="443.2969"/><polygon fill="#181818" points="79.0566,439.2969,89.0566,443.2969,79.0566,447.2969,83.0566,443.2969" style="stroke:#181818;stroke-width:1;"/></g><g class="message" data-entity-1="part2" data-entity-2="part2" data-source-line="27" id="msg16"><ellipse cx="90.5566" cy="469.5469" fill="#000000" rx="4" ry="4" style="stroke:#181818;stroke-width:1.5;"/><line style="stroke:#181818;stroke-width:1;" x1="49.0566" x2="90.0566" y1="457.2969" y2="457.2969"/><line style="stroke:#181818;stroke-width:1;" x1="49.0566" x2="49.0566" y1="457.2969" y2="470.2969"/><line style="stroke:#181818;stroke-width:1;" x1="49.0566" x2="90.0566" y1="470.2969" y2="470.2969"/><line style="stroke:#181818;stroke-width:1;" x1="80.0566" x2="90.0566" y1="474.2969" y2="470.2969"/></g><?plantuml-src NOr13i8W44Ntd69SiJAzG3VLXPTWCsqcXjWoTKerqNXtQT5IOFLvFFBqOHIy3WYU-0LUPb9wkbatek004zrdSXt1M-b6X9zdxbdW8aHEwOyAbhUT7T5vE74BE46RmQQtuNV0gB3pze6UzhDL2FKHbXCeSBvvkzJnOPbLKgfgeoPHO_uqht1HAOHVBmghKGgfnh6yJfDeBECN?></g></svg>