<svg xmlns="http://www.w3.org/2000/svg" xmlns:xlink="http://www.w3.org/1999/xlink" contentStyleType="text/css" data-diagram-type="ACTIVITY" height="368px" preserveAspectRatio="none" style="width:440px;height:368px;background:#FFFFFF;" version="1.1" viewBox="0 0 440 368" width="440px" zoomAndPan="magnify"><?plantuml 1.2026.3beta4?><defs/><g><line style="stroke:#000000;stroke-width:1.5;" x1="20" x2="20" y1="0" y2="368"/><text fill="#000000" font-family="sans-serif" font-size="18" lengthAdjust="spacing" text-anchor="middle" textLength="98.6484" x="120" y="16">Swimlane1</text><line style="stroke:#000000;stroke-width:1.5;" x1="220" x2="220" y1="0" y2="368"/><text fill="#000000" font-family="sans-serif" font-size="18" lengthAdjust="spacing" text-anchor="middle" textLength="98.6484" x="320" y="16">Swimlane2</text><line style="stroke:#000000;stroke-width:1.5;" x1="420" x2="420" y1="0" y2="368"/><line style="stroke:#181818;stroke-width:1;" x1="120" x2="120" y1="70" y2="100"/><polygon fill="#181818" points="116,90,120,100,124,90,120,94" style="stroke:#181818;stroke-width:1;"/><line style="stroke:#181818;stroke-width:1;" x1="120" x2="120" y1="136" y2="151"/><line style="stroke:#181818;stroke-width:1;" x1="120" x2="320" y1="151" y2="151"/><line style="stroke:#181818;stroke-width:1;" x1="320" x2="320" y1="151" y2="166"/><polygon fill="#181818" points="316,156,320,166,324,156,320,160" style="stroke:#181818;stroke-width:1;"/><line style="stroke:#181818;stroke-width:1;" x1="320" x2="320" y1="202" y2="217"/><line style="stroke:#181818;stroke-width:1;" x1="320" x2="120" y1="217" y2="217"/><line style="stroke:#181818;stroke-width:1;" x1="120" x2="120" y1="217" y2="232"/><polygon fill="#181818" points="116,222,120,232,124,222,120,226" style="stroke:#181818;stroke-width:1;"/><line style="stroke:#181818;stroke-width:1;" x1="120" x2="120" y1="268" y2="298"/><polygon fill="#181818" points="116,288,120,298,124,288,120,292" style="stroke:#181818;stroke-width:1;"/><ellipse cx="120" cy="60" fill="#222222" rx="10" ry="10" style="stroke:#222222;stroke-width:1;"/><rect fill="#F1F1F1" height="36" rx="12.5" ry="12.5" style="stroke:#181818;stroke-width:0.5;" width="80" x="80" y="100"/><text fill="#000000" font-family="sans-serif" font-size="12" lengthAdjust="spacing" text-anchor="middle" textLength="49.2422" x="120" y="123">Action 1</text><rect fill="#F1F1F1" height="36" rx="12.5" ry="12.5" style="stroke:#181818;stroke-width:0.5;" width="80" x="280" y="166"/><text fill="#000000" font-family="sans-serif" font-size="12" lengthAdjust="spacing" text-anchor="middle" textLength="49.2422" x="320" y="189">Action 2</text><rect fill="#F1F1F1" height="36" rx="12.5" ry="12.5" style="stroke:#181818;stroke-width:0.5;" width="80" x="80" y="232"/><text fill="#000000" font-family="sans-serif" font-size="12" lengthAdjust="spacing" text-anchor="middle" textLength="49.2422" x="120" y="255">Action 3</text><ellipse cx="120" cy="308" fill="none" rx="11" ry="11" style="stroke:#222222;stroke-width:1;"/><ellipse cx="120" cy="308" fill="#222222" rx="6" ry="6" style="stroke:#222222;stroke-width:1;"/><?plantuml-src JSkv2G0X443HVAhO5iRDDB86An0n4BpG0PCfNXEFz7q-cn5IjDaZGoVR2AHs54h-K07lAFYmU1Wl_shjfKu0?></g></svg>