<svg xmlns="http://www.w3.org/2000/svg" xmlns:xlink="http://www.w3.org/1999/xlink" contentStyleType="text/css" data-diagram-type="SEQUENCE" height="262px" preserveAspectRatio="none" style="width:356px;height:262px;background:#FFFFFF;" version="1.1" viewBox="0 0 356 262" width="356px" zoomAndPan="magnify"><?plantuml 1.2026.3beta4?><defs/><g><g class="participant-lifeline" data-entity-uid="part1" data-qualified-name="Test" id="part1-lifeline"><g><title>Test</title><rect fill="#000000" fill-opacity="0.00000" height="188.5313" width="8" x="22.9741" y="36.2969"/><line style="stroke:#181818;stroke-width:0.5;stroke-dasharray:5,5;" x1="26" x2="26" y1="36.2969" y2="224.8281"/></g></g><g class="participant participant-head" data-entity-uid="part1" data-qualified-name="Test" id="part1-head"><rect fill="#E2E2F0" height="30.2969" rx="2.5" ry="2.5" style="stroke:#181818;stroke-width:0.5;" width="43.9482" x="5" y="5"/><text fill="#000000" font-family="sans-serif" font-size="14" lengthAdjust="spacing" textLength="29.9482" x="12" y="24.9951">Test</text></g><g class="participant participant-tail" data-entity-uid="part1" data-qualified-name="Test" id="part1-tail"><rect fill="#E2E2F0" height="30.2969" rx="2.5" ry="2.5" style="stroke:#181818;stroke-width:0.5;" width="43.9482" x="5" y="223.8281"/><text fill="#000000" font-family="sans-serif" font-size="14" lengthAdjust="spacing" textLength="29.9482" x="12" y="243.8232">Test</text></g><g class="message" data-entity-1="part1" data-entity-2="part1" id="msg1"><line style="stroke:#181818;stroke-width:1;stroke-dasharray:2,2;" x1="26.9741" x2="68.9741" y1="67.4297" y2="67.4297"/><line style="stroke:#181818;stroke-width:1;stroke-dasharray:2,2;" x1="68.9741" x2="68.9741" y1="67.4297" y2="80.4297"/><line style="stroke:#181818;stroke-width:1;stroke-dasharray:2,2;" x1="27.9741" x2="68.9741" y1="80.4297" y2="80.4297"/><polygon fill="#181818" points="37.9741,76.4297,27.9741,80.4297,37.9741,84.4297,33.9741,80.4297" style="stroke:#181818;stroke-width:1;"/><text fill="#000000" font-family="sans-serif" font-size="13" lengthAdjust="spacing" textLength="28.7295" x="33.9741" y="62.3638">Text</text></g><path d="M36.9741,55.4297 L36.9741,80.4297 L309.6587,80.4297 L309.6587,65.4297 L299.6587,55.4297 L36.9741,55.4297" fill="#FEFFDD" style="stroke:#181818;stroke-width:0.5;"/>
<path d="M299.6587,55.4297 L299.6587,65.4297 L309.6587,65.4297 L299.6587,55.4297" fill="#FEFFDD" style="stroke:#181818;stroke-width:0.5;"/>
<text fill="#000000" font-family="sans-serif" font-size="13" lengthAdjust="spacing" textLength="251.6846" x="42.9741" y="71.4297">the location of the Comment is correct</text><path d="M-255.7104,97.5625 L-255.7104,122.5625 L16.9741,122.5625 L16.9741,107.5625 L6.9741,97.5625 L-255.7104,97.5625" fill="#FEFFDD" style="stroke:#181818;stroke-width:0.5;"/>
<path d="M6.9741,97.5625 L6.9741,107.5625 L16.9741,107.5625 L6.9741,97.5625" fill="#FEFFDD" style="stroke:#181818;stroke-width:0.5;"/>
<text fill="#000000" font-family="sans-serif" font-size="13" lengthAdjust="spacing" textLength="251.6846" x="-249.7104" y="113.5625">the location of the Comment is correct</text><g class="message" data-entity-1="part1" data-entity-2="part1" id="msg2"><line style="stroke:#181818;stroke-width:1;stroke-dasharray:2,2;" x1="26.9741" x2="68.9741" y1="109.5625" y2="109.5625"/><line style="stroke:#181818;stroke-width:1;stroke-dasharray:2,2;" x1="68.9741" x2="68.9741" y1="109.5625" y2="122.5625"/><line style="stroke:#181818;stroke-width:1;stroke-dasharray:2,2;" x1="27.9741" x2="68.9741" y1="122.5625" y2="122.5625"/><polygon fill="#181818" points="37.9741,118.5625,27.9741,122.5625,37.9741,126.5625,33.9741,122.5625" style="stroke:#181818;stroke-width:1;"/><text fill="#000000" font-family="sans-serif" font-size="13" lengthAdjust="spacing" textLength="28.7295" x="33.9741" y="104.4966">Text</text></g><path d="M-255.7104,97.5625 L-255.7104,122.5625 L16.9741,122.5625 L16.9741,107.5625 L6.9741,97.5625 L-255.7104,97.5625" fill="#FEFFDD" style="stroke:#181818;stroke-width:0.5;"/>
<path d="M6.9741,97.5625 L6.9741,107.5625 L16.9741,107.5625 L6.9741,97.5625" fill="#FEFFDD" style="stroke:#181818;stroke-width:0.5;"/>
<text fill="#000000" font-family="sans-serif" font-size="13" lengthAdjust="spacing" textLength="251.6846" x="-249.7104" y="113.5625">the location of the Comment is correct</text><path d="M36.9741,139.6953 L36.9741,164.6953 L350.7598,164.6953 L350.7598,149.6953 L340.7598,139.6953 L36.9741,139.6953" fill="#FEFFDD" style="stroke:#181818;stroke-width:0.5;"/>
<path d="M340.7598,139.6953 L340.7598,149.6953 L350.7598,149.6953 L340.7598,139.6953" fill="#FEFFDD" style="stroke:#181818;stroke-width:0.5;"/>
<text fill="#000000" font-family="sans-serif" font-size="13" lengthAdjust="spacing" textLength="292.7856" x="42.9741" y="155.6953">the location of the Comment is [now correct]</text><g class="message" data-entity-1="part1" data-entity-2="part1" id="msg3"><line style="stroke:#181818;stroke-width:1;stroke-dasharray:2,2;" x1="26.9741" x2="68.9741" y1="151.6953" y2="151.6953"/><line style="stroke:#181818;stroke-width:1;stroke-dasharray:2,2;" x1="68.9741" x2="68.9741" y1="151.6953" y2="164.6953"/><line style="stroke:#181818;stroke-width:1;stroke-dasharray:2,2;" x1="27.9741" x2="68.9741" y1="164.6953" y2="164.6953"/><polygon fill="#181818" points="37.9741,160.6953,27.9741,164.6953,37.9741,168.6953,33.9741,164.6953" style="stroke:#181818;stroke-width:1;"/><text fill="#000000" font-family="sans-serif" font-size="13" lengthAdjust="spacing" textLength="28.7295" x="33.9741" y="146.6294">Text</text></g><path d="M36.9741,139.6953 L36.9741,164.6953 L350.7598,164.6953 L350.7598,149.6953 L340.7598,139.6953 L36.9741,139.6953" fill="#FEFFDD" style="stroke:#181818;stroke-width:0.5;"/>
<path d="M340.7598,139.6953 L340.7598,149.6953 L350.7598,149.6953 L340.7598,139.6953" fill="#FEFFDD" style="stroke:#181818;stroke-width:0.5;"/>
<text fill="#000000" font-family="sans-serif" font-size="13" lengthAdjust="spacing" textLength="292.7856" x="42.9741" y="155.6953">the location of the Comment is [now correct]</text><path d="M-296.8115,181.8281 L-296.8115,206.8281 L16.9741,206.8281 L16.9741,191.8281 L6.9741,181.8281 L-296.8115,181.8281" fill="#FEFFDD" style="stroke:#181818;stroke-width:0.5;"/>
<path d="M6.9741,181.8281 L6.9741,191.8281 L16.9741,191.8281 L6.9741,181.8281" fill="#FEFFDD" style="stroke:#181818;stroke-width:0.5;"/>
<text fill="#000000" font-family="sans-serif" font-size="13" lengthAdjust="spacing" textLength="292.7856" x="-290.8115" y="197.8281">the location of the Comment is [now correct]</text><g class="message" data-entity-1="part1" data-entity-2="part1" id="msg4"><line style="stroke:#181818;stroke-width:1;stroke-dasharray:2,2;" x1="26.9741" x2="68.9741" y1="193.8281" y2="193.8281"/><line style="stroke:#181818;stroke-width:1;stroke-dasharray:2,2;" x1="68.9741" x2="68.9741" y1="193.8281" y2="206.8281"/><line style="stroke:#181818;stroke-width:1;stroke-dasharray:2,2;" x1="27.9741" x2="68.9741" y1="206.8281" y2="206.8281"/><polygon fill="#181818" points="37.9741,202.8281,27.9741,206.8281,37.9741,210.8281,33.9741,206.8281" style="stroke:#181818;stroke-width:1;"/><text fill="#000000" font-family="sans-serif" font-size="13" lengthAdjust="spacing" textLength="28.7295" x="33.9741" y="188.7622">Text</text></g><path d="M-296.8115,181.8281 L-296.8115,206.8281 L16.9741,206.8281 L16.9741,191.8281 L6.9741,181.8281 L-296.8115,181.8281" fill="#FEFFDD" style="stroke:#181818;stroke-width:0.5;"/>
<path d="M6.9741,181.8281 L6.9741,191.8281 L16.9741,191.8281 L6.9741,181.8281" fill="#FEFFDD" style="stroke:#181818;stroke-width:0.5;"/>
<text fill="#000000" font-family="sans-serif" font-size="13" lengthAdjust="spacing" textLength="292.7856" x="-290.8115" y="197.8281">the location of the Comment is [now correct]</text><?plantuml-src dSun2e0m30NGlQV81N814HUlq4qSf4HRQ1De0tfyY-3WeAXBoF_3urig2eWTsFeqzMvgM9GWXyNNGZr153Tf40QPZznBIiGAeO2JdCcfCVREYJH_PLh4dtC6blN4nWVjrQWBjWC0?></g></svg>