<svg xmlns="http://www.w3.org/2000/svg" xmlns:xlink="http://www.w3.org/1999/xlink" contentStyleType="text/css" data-diagram-type="SEQUENCE" height="460px" preserveAspectRatio="none" style="width:294px;height:460px;background:#FFFFFF;" version="1.1" viewBox="0 0 294 460" width="294px" zoomAndPan="magnify"><?plantuml 1.2026.3beta4?><defs/><g><rect fill="none" height="103.2031" style="stroke:#000000;stroke-width:1.5;" width="126.0146" x="10" y="232.0938"/><rect fill="none" height="46.2656" style="stroke:#000000;stroke-width:1.5;" width="126.0146" x="10" y="142.6953"/><rect fill="none" height="46.2656" style="stroke:#000000;stroke-width:1.5;" width="126.0146" x="10" y="53.2969"/><g class="participant-lifeline" data-entity-uid="part1" data-qualified-name="A" id="part1-lifeline"><g><title>A</title><rect fill="#000000" fill-opacity="0.00000" height="387.2656" width="8" x="27.7886" y="36.2969"/><line style="stroke:#181818;stroke-width:0.5;stroke-dasharray:5,5;" x1="31" x2="31" y1="36.2969" y2="423.5625"/></g></g><g class="participant-lifeline" data-entity-uid="part2" data-qualified-name="B" id="part2-lifeline"><g><title>B</title><rect fill="#000000" fill-opacity="0.00000" height="387.2656" width="8" x="110.2124" y="36.2969"/><line style="stroke:#181818;stroke-width:0.5;stroke-dasharray:5,5;" x1="113.4102" x2="113.4102" y1="36.2969" y2="423.5625"/></g></g><g class="participant-lifeline" data-entity-uid="part3" data-qualified-name="C" id="part3-lifeline"><g><title>C</title><rect fill="#000000" fill-opacity="0.00000" height="387.2656" width="8" x="160.2124" y="36.2969"/><line style="stroke:#181818;stroke-width:0.5;stroke-dasharray:5,5;" x1="163.3247" x2="163.3247" y1="36.2969" y2="423.5625"/></g></g><g class="participant-lifeline" data-entity-uid="part4" data-qualified-name="D" id="part4-lifeline"><g><title>D</title><rect fill="#000000" fill-opacity="0.00000" height="387.2656" width="8" x="242.6362" y="36.2969"/><line style="stroke:#181818;stroke-width:0.5;stroke-dasharray:5,5;" x1="246.2461" x2="246.2461" y1="36.2969" y2="423.5625"/></g></g><g class="participant participant-head" data-entity-uid="part1" data-qualified-name="A" id="part1-head"><rect fill="#E2E2F0" height="30.2969" rx="2.5" ry="2.5" style="stroke:#181818;stroke-width:0.5;" width="23.5771" x="20" y="5"/><text fill="#000000" font-family="sans-serif" font-size="14" lengthAdjust="spacing" textLength="9.5771" x="27" y="24.9951">A</text></g><g class="participant participant-tail" data-entity-uid="part1" data-qualified-name="A" id="part1-tail"><rect fill="#E2E2F0" height="30.2969" rx="2.5" ry="2.5" style="stroke:#181818;stroke-width:0.5;" width="23.5771" x="20" y="422.5625"/><text fill="#000000" font-family="sans-serif" font-size="14" lengthAdjust="spacing" textLength="9.5771" x="27" y="442.5576">A</text></g><g class="participant participant-head" data-entity-uid="part2" data-qualified-name="B" id="part2-head"><rect fill="#E2E2F0" height="30.2969" rx="2.5" ry="2.5" style="stroke:#181818;stroke-width:0.5;" width="23.6045" x="102.4102" y="5"/><text fill="#000000" font-family="sans-serif" font-size="14" lengthAdjust="spacing" textLength="9.6045" x="109.4102" y="24.9951">B</text></g><g class="participant participant-tail" data-entity-uid="part2" data-qualified-name="B" id="part2-tail"><rect fill="#E2E2F0" height="30.2969" rx="2.5" ry="2.5" style="stroke:#181818;stroke-width:0.5;" width="23.6045" x="102.4102" y="422.5625"/><text fill="#000000" font-family="sans-serif" font-size="14" lengthAdjust="spacing" textLength="9.6045" x="109.4102" y="442.5576">B</text></g><g class="participant participant-head" data-entity-uid="part3" data-qualified-name="C" id="part3-head"><rect fill="#E2E2F0" height="30.2969" rx="2.5" ry="2.5" style="stroke:#181818;stroke-width:0.5;" width="23.7754" x="152.3247" y="5"/><text fill="#000000" font-family="sans-serif" font-size="14" lengthAdjust="spacing" textLength="9.7754" x="159.3247" y="24.9951">C</text></g><g class="participant participant-tail" data-entity-uid="part3" data-qualified-name="C" id="part3-tail"><rect fill="#E2E2F0" height="30.2969" rx="2.5" ry="2.5" style="stroke:#181818;stroke-width:0.5;" width="23.7754" x="152.3247" y="422.5625"/><text fill="#000000" font-family="sans-serif" font-size="14" lengthAdjust="spacing" textLength="9.7754" x="159.3247" y="442.5576">C</text></g><g class="participant participant-head" data-entity-uid="part4" data-qualified-name="D" id="part4-head"><rect fill="#E2E2F0" height="30.2969" rx="2.5" ry="2.5" style="stroke:#181818;stroke-width:0.5;" width="24.7803" x="234.2461" y="5"/><text fill="#000000" font-family="sans-serif" font-size="14" lengthAdjust="spacing" textLength="10.7803" x="241.2461" y="24.9951">D</text></g><g class="participant participant-tail" data-entity-uid="part4" data-qualified-name="D" id="part4-tail"><rect fill="#E2E2F0" height="30.2969" rx="2.5" ry="2.5" style="stroke:#181818;stroke-width:0.5;" width="24.7803" x="234.2461" y="422.5625"/><text fill="#000000" font-family="sans-serif" font-size="14" lengthAdjust="spacing" textLength="10.7803" x="241.2461" y="442.5576">D</text></g><path d="M10,53.2969 L79.4512,53.2969 L79.4512,60.4297 L69.4512,70.4297 L10,70.4297 L10,53.2969" fill="#EEEEEE" style="stroke:#000000;stroke-width:1.5;"/><rect fill="none" height="46.2656" style="stroke:#000000;stroke-width:1.5;" width="126.0146" x="10" y="53.2969"/><text fill="#000000" font-family="sans-serif" font-size="13" font-weight="700" lengthAdjust="spacing" textLength="24.4512" x="25" y="66.3638">opt</text><g class="message" data-entity-1="part1" data-entity-2="part2" id="msg1"><polygon fill="#181818" points="102.2124,87.5625,112.2124,91.5625,102.2124,95.5625,106.2124,91.5625" style="stroke:#181818;stroke-width:1;"/><line style="stroke:#181818;stroke-width:1;" x1="31.7886" x2="108.2124" y1="91.5625" y2="91.5625"/><text fill="#000000" font-family="sans-serif" font-size="13" lengthAdjust="spacing" textLength="58.4238" x="38.7886" y="86.4966">message</text></g><g class="message" data-entity-1="part3" data-entity-2="part4" id="msg2"><polygon fill="#181818" points="234.6362,123.6953,244.6362,127.6953,234.6362,131.6953,238.6362,127.6953" style="stroke:#181818;stroke-width:1;"/><line style="stroke:#181818;stroke-width:1;" x1="164.2124" x2="240.6362" y1="127.6953" y2="127.6953"/><text fill="#000000" font-family="sans-serif" font-size="13" lengthAdjust="spacing" textLength="58.4238" x="171.2124" y="122.6294">message</text></g><path d="M10,142.6953 L74.4429,142.6953 L74.4429,149.8281 L64.4429,159.8281 L10,159.8281 L10,142.6953" fill="#EEEEEE" style="stroke:#000000;stroke-width:1.5;"/><rect fill="none" height="46.2656" style="stroke:#000000;stroke-width:1.5;" width="126.0146" x="10" y="142.6953"/><text fill="#000000" font-family="sans-serif" font-size="13" font-weight="700" lengthAdjust="spacing" textLength="19.4429" x="25" y="155.7622">alt</text><g class="message" data-entity-1="part1" data-entity-2="part2" id="msg3"><polygon fill="#181818" points="102.2124,176.9609,112.2124,180.9609,102.2124,184.9609,106.2124,180.9609" style="stroke:#181818;stroke-width:1;"/><line style="stroke:#181818;stroke-width:1;" x1="31.7886" x2="108.2124" y1="180.9609" y2="180.9609"/><text fill="#000000" font-family="sans-serif" font-size="13" lengthAdjust="spacing" textLength="58.4238" x="38.7886" y="175.895">message</text></g><g class="message" data-entity-1="part3" data-entity-2="part4" id="msg4"><polygon fill="#181818" points="234.6362,213.0938,244.6362,217.0938,234.6362,221.0938,238.6362,217.0938" style="stroke:#181818;stroke-width:1;"/><line style="stroke:#181818;stroke-width:1;" x1="164.2124" x2="240.6362" y1="217.0938" y2="217.0938"/><text fill="#000000" font-family="sans-serif" font-size="13" lengthAdjust="spacing" textLength="58.4238" x="171.2124" y="212.0278">message</text></g><path d="M10,232.0938 L74.4429,232.0938 L74.4429,239.2266 L64.4429,249.2266 L10,249.2266 L10,232.0938" fill="#EEEEEE" style="stroke:#000000;stroke-width:1.5;"/><rect fill="none" height="103.2031" style="stroke:#000000;stroke-width:1.5;" width="126.0146" x="10" y="232.0938"/><text fill="#000000" font-family="sans-serif" font-size="13" font-weight="700" lengthAdjust="spacing" textLength="19.4429" x="25" y="245.1607">alt</text><g class="message" data-entity-1="part1" data-entity-2="part2" id="msg5"><polygon fill="#181818" points="102.2124,266.3594,112.2124,270.3594,102.2124,274.3594,106.2124,270.3594" style="stroke:#181818;stroke-width:1;"/><line style="stroke:#181818;stroke-width:1;" x1="31.7886" x2="108.2124" y1="270.3594" y2="270.3594"/><text fill="#000000" font-family="sans-serif" font-size="13" lengthAdjust="spacing" textLength="58.4238" x="38.7886" y="265.2935">message</text></g><line style="stroke:#000000;stroke-width:1;stroke-dasharray:2,2;" x1="10" x2="136.0146" y1="279.3594" y2="279.3594"/><text fill="#000000" font-family="sans-serif" font-size="11" font-weight="700" lengthAdjust="spacing" textLength="54.4575" x="15" y="289.5699">[default]</text><g class="message" data-entity-1="part2" data-entity-2="part2" id="msg6"><line style="stroke:#181818;stroke-width:1;" x1="114.2124" x2="156.2124" y1="314.2969" y2="314.2969"/><line style="stroke:#181818;stroke-width:1;" x1="156.2124" x2="156.2124" y1="314.2969" y2="327.2969"/><line style="stroke:#181818;stroke-width:1;" x1="115.2124" x2="156.2124" y1="327.2969" y2="327.2969"/><polygon fill="#181818" points="125.2124,323.2969,115.2124,327.2969,125.2124,331.2969,121.2124,327.2969" style="stroke:#181818;stroke-width:1;"/><text fill="#000000" font-family="sans-serif" font-size="13" lengthAdjust="spacing" textLength="34.6328" x="121.2124" y="309.231">other</text></g><g class="message" data-entity-1="part3" data-entity-2="part4" id="msg7"><polygon fill="#181818" points="234.6362,359.4297,244.6362,363.4297,234.6362,367.4297,238.6362,363.4297" style="stroke:#181818;stroke-width:1;"/><line style="stroke:#181818;stroke-width:1;" x1="164.2124" x2="240.6362" y1="363.4297" y2="363.4297"/><text fill="#000000" font-family="sans-serif" font-size="13" lengthAdjust="spacing" textLength="58.4238" x="171.2124" y="358.3638">message</text></g><g class="message" data-entity-1="part4" data-entity-2="part4" id="msg8"><line style="stroke:#181818;stroke-width:1;" x1="246.6362" x2="288.6362" y1="392.5625" y2="392.5625"/><line style="stroke:#181818;stroke-width:1;" x1="288.6362" x2="288.6362" y1="392.5625" y2="405.5625"/><line style="stroke:#181818;stroke-width:1;" x1="247.6362" x2="288.6362" y1="405.5625" y2="405.5625"/><polygon fill="#181818" points="257.6362,401.5625,247.6362,405.5625,257.6362,409.5625,253.6362,405.5625" style="stroke:#181818;stroke-width:1;"/><text fill="#000000" font-family="sans-serif" font-size="13" lengthAdjust="spacing" textLength="34.6328" x="253.6362" y="387.4966">other</text></g><?plantuml-src dOsx3O0m34HxfZ0D7GjG805Pn59CA18IvTCmFM2QH500rvmbFxshdKTb42BP3Q9FLC4HwoBtcQ7jnmuCXO3g-j8gkPk2czfUt3a-KB_JvTn_dGu4acPC6JOoPkD2_jlcaqmmLiXs?></g></svg>