<svg xmlns="http://www.w3.org/2000/svg" xmlns:xlink="http://www.w3.org/1999/xlink" contentStyleType="text/css" data-diagram-type="REGEX" height="199px" preserveAspectRatio="none" style="width:312px;height:199px;background:#FFFFFF;" version="1.1" viewBox="0 0 312 199" width="312px" zoomAndPan="magnify"><?plantuml 1.2026.3beta5?><defs/><g><rect fill="none" height="124.0783" style="stroke:#181818;stroke-width:1;stroke-dasharray:5,5;" width="19.5908" x="21" y="41.9999"/><text fill="#000000" font-family="sans-serif" font-size="14" lengthAdjust="spacing" textLength="9.5771" x="26" y="59.9951">A</text><text fill="#000000" font-family="sans-serif" font-size="14" lengthAdjust="spacing" textLength="5.0518" x="26" y="76.2919">-</text><text fill="#000000" font-family="sans-serif" font-size="14" lengthAdjust="spacing" textLength="9.5908" x="26" y="92.5888">Z</text><text fill="#000000" font-family="sans-serif" font-size="14" lengthAdjust="spacing" textLength="8.5791" x="26" y="108.8857">a</text><text fill="#000000" font-family="sans-serif" font-size="14" lengthAdjust="spacing" textLength="5.0518" x="26" y="125.1826">-</text><text fill="#000000" font-family="sans-serif" font-size="14" lengthAdjust="spacing" textLength="7.3486" x="26" y="141.4794">z</text><text fill="#000000" font-family="sans-serif" font-size="14" lengthAdjust="spacing" textLength="7" x="26" y="157.7763">_</text><line style="stroke:#181818;stroke-width:0.3000;" x1="21" x2="40.5908" y1="55.1484" y2="55.1484"/><line style="stroke:#181818;stroke-width:1;" x1="15" x2="21" y1="55.1484" y2="55.1484"/><line style="stroke:#181818;stroke-width:1;" x1="40.5908" x2="46.5908" y1="55.1484" y2="55.1484"/><rect fill="none" height="172.9690" style="stroke:#181818;stroke-width:1;stroke-dasharray:5,5;" width="19.5908" x="56.5908" y="41.9999"/><text fill="#000000" font-family="sans-serif" font-size="14" lengthAdjust="spacing" textLength="9.5771" x="61.5908" y="59.9951">A</text><text fill="#000000" font-family="sans-serif" font-size="14" lengthAdjust="spacing" textLength="5.0518" x="61.5908" y="76.2919">-</text><text fill="#000000" font-family="sans-serif" font-size="14" lengthAdjust="spacing" textLength="9.5908" x="61.5908" y="92.5888">Z</text><text fill="#000000" font-family="sans-serif" font-size="14" lengthAdjust="spacing" textLength="8.5791" x="61.5908" y="108.8857">a</text><text fill="#000000" font-family="sans-serif" font-size="14" lengthAdjust="spacing" textLength="5.0518" x="61.5908" y="125.1826">-</text><text fill="#000000" font-family="sans-serif" font-size="14" lengthAdjust="spacing" textLength="7.3486" x="61.5908" y="141.4794">z</text><text fill="#000000" font-family="sans-serif" font-size="14" lengthAdjust="spacing" textLength="8.9072" x="61.5908" y="157.7763">0</text><text fill="#000000" font-family="sans-serif" font-size="14" lengthAdjust="spacing" textLength="5.0518" x="61.5908" y="174.0732">-</text><text fill="#000000" font-family="sans-serif" font-size="14" lengthAdjust="spacing" textLength="8.9072" x="61.5908" y="190.3701">9</text><text fill="#000000" font-family="sans-serif" font-size="14" lengthAdjust="spacing" textLength="7" x="61.5908" y="206.6669">_</text><line style="stroke:#181818;stroke-width:0.3000;" x1="56.5908" x2="76.1816" y1="55.1484" y2="55.1484"/><line style="stroke:#181818;stroke-width:1;" x1="50.5908" x2="56.5908" y1="55.1484" y2="55.1484"/><line style="stroke:#181818;stroke-width:1;" x1="76.1816" x2="82.1816" y1="55.1484" y2="55.1484"/><path d="M73.3862,32.1484 L67.3862,35.1484 L73.3862,38.1484 L73.3862,32.1484" fill="#181818"/><text fill="#000000" font-family="sans-serif" font-size="12" lengthAdjust="spacing" textLength="6" x="67.3862" y="40.1484">*</text><path d="M50.5908203125,50.1484 C50.5908203125,35.1484 56.5908203125,35.1484 62.5908203125,35.1484" fill="none" style="stroke:#181818;stroke-width:0.5000;"/><path d="M74.181640625,35.1484 C80.181640625,35.1484 86.181640625,35.1484 86.181640625,50.1484" fill="none" style="stroke:#181818;stroke-width:0.5000;"/><line style="stroke:#181818;stroke-width:0.5000;" x1="62.5908" x2="74.1816" y1="35.1484" y2="35.1484"/><rect fill="none" height="26.2969" style="stroke:#181818;stroke-width:0.5;" width="24" x="86.1816" y="41.9999"/><text fill="#000000" font-family="sans-serif" font-size="14" lengthAdjust="spacing" textLength="14" x="91.1816" y="59.9951">@</text><line style="stroke:#181818;stroke-width:1;" x1="82.1816" x2="86.1816" y1="55.1484" y2="55.1484"/><line style="stroke:#181818;stroke-width:1;" x1="110.1816" x2="114.1816" y1="55.1484" y2="55.1484"/><rect fill="none" height="58.8907" style="stroke:#181818;stroke-width:1;stroke-dasharray:5,5;" width="18.5791" x="120.1816" y="41.9999"/><text fill="#000000" font-family="sans-serif" font-size="14" lengthAdjust="spacing" textLength="8.5791" x="125.1816" y="59.9951">a</text><text fill="#000000" font-family="sans-serif" font-size="14" lengthAdjust="spacing" textLength="5.0518" x="125.1816" y="76.2919">-</text><text fill="#000000" font-family="sans-serif" font-size="14" lengthAdjust="spacing" textLength="7.3486" x="125.1816" y="92.5888">z</text><line style="stroke:#181818;stroke-width:0.3000;" x1="120.1816" x2="138.7607" y1="55.1484" y2="55.1484"/><line style="stroke:#181818;stroke-width:1;" x1="114.1816" x2="120.1816" y1="55.1484" y2="55.1484"/><line style="stroke:#181818;stroke-width:1;" x1="138.7607" x2="144.7607" y1="55.1484" y2="55.1484"/><path d="M136.4712,32.1484 L130.4712,35.1484 L136.4712,38.1484 L136.4712,32.1484" fill="#181818"/><text fill="#000000" font-family="sans-serif" font-size="12" lengthAdjust="spacing" textLength="10.0547" x="128.4438" y="40.1484">+</text><path d="M114.181640625,50.1484 C114.181640625,35.1484 120.181640625,35.1484 126.181640625,35.1484" fill="none" style="stroke:#181818;stroke-width:0.5000;"/><path d="M136.7607421875,35.1484 C142.7607421875,35.1484 148.7607421875,35.1484 148.7607421875,50.1484" fill="none" style="stroke:#181818;stroke-width:0.5000;"/><line style="stroke:#181818;stroke-width:0.5000;" x1="126.1816" x2="136.7607" y1="35.1484" y2="35.1484"/><rect fill="none" height="26.2969" style="stroke:#181818;stroke-width:0.5;" width="19.1670" x="148.7607" y="41.9999"/><text fill="#000000" font-family="sans-serif" font-size="14" lengthAdjust="spacing" textLength="9.1670" x="153.7607" y="59.9951">\.</text><line style="stroke:#181818;stroke-width:1;" x1="144.7607" x2="148.7607" y1="55.1484" y2="55.1484"/><line style="stroke:#181818;stroke-width:1;" x1="167.9277" x2="171.9277" y1="55.1484" y2="55.1484"/><rect fill="none" height="58.8907" style="stroke:#181818;stroke-width:1;stroke-dasharray:5,5;" width="18.5791" x="177.9277" y="41.9999"/><text fill="#000000" font-family="sans-serif" font-size="14" lengthAdjust="spacing" textLength="8.5791" x="182.9277" y="59.9951">a</text><text fill="#000000" font-family="sans-serif" font-size="14" lengthAdjust="spacing" textLength="5.0518" x="182.9277" y="76.2919">-</text><text fill="#000000" font-family="sans-serif" font-size="14" lengthAdjust="spacing" textLength="7.3486" x="182.9277" y="92.5888">z</text><line style="stroke:#181818;stroke-width:0.3000;" x1="177.9277" x2="196.5068" y1="55.1484" y2="55.1484"/><line style="stroke:#181818;stroke-width:1;" x1="171.9277" x2="177.9277" y1="55.1484" y2="55.1484"/><line style="stroke:#181818;stroke-width:1;" x1="196.5068" x2="202.5068" y1="55.1484" y2="55.1484"/><path d="M194.2173,32.1484 L188.2173,35.1484 L194.2173,38.1484 L194.2173,32.1484" fill="#181818"/><text fill="#000000" font-family="sans-serif" font-size="12" lengthAdjust="spacing" textLength="34.3535" x="174.0405" y="40.1484">{2,4}</text><path d="M171.927734375,50.1484 C171.927734375,35.1484 177.927734375,35.1484 183.927734375,35.1484" fill="none" style="stroke:#181818;stroke-width:0.5000;"/><path d="M194.5068359375,35.1484 C200.5068359375,35.1484 206.5068359375,35.1484 206.5068359375,50.1484" fill="none" style="stroke:#181818;stroke-width:0.5000;"/><line style="stroke:#181818;stroke-width:0.5000;" x1="183.9277" x2="194.5068" y1="35.1484" y2="35.1484"/><?plantuml-src 0Jy0mFz0StHXSdHoPMTbU0fRGIrQOIrwNrrRGIrQOIrwC2qvNrqgG5jXBNfTArmkMs4jUbrxCYmqVGf0PMvaScLdPNW0?></g></svg>